<?xml version="1.0" encoding="UTF-8"?><!-- Generator: visioncortex VTracer 0.6.2 --><svg xmlns="http://www.w3.org/2000/svg" version="1.1" width="1280" height="1280">
<path d="M0 0 C1.57687592 0.0007402 1.57687592 0.0007402 3.18560791 0.00149536 C46.18882395 0.06294132 46.18882395 0.06294132 58.9375 4.3125 C60.78890053 4.49003156 62.64389099 4.63142198 64.5 4.75 C71.39626357 5.28304453 77.92589043 6.42978685 84.5625 8.375 C87.13681335 9.09008704 89.3164776 9.5262964 91.9375 9.8125 C96.61101043 10.3277613 100.96770296 11.49417709 105.31640625 13.30078125 C107.93446847 14.31132986 110.4505642 14.95255431 113.1875 15.5625 C124.53004421 18.3282928 135.49133981 22.55568163 146.20703125 27.15234375 C149.76306162 28.66327511 153.36540992 30.04479584 156.9765625 31.41796875 C158.9375 32.3125 158.9375 32.3125 160.9375 34.3125 C162.419736 34.93959985 163.9235706 35.5163356 165.4375 36.0625 C170.09227955 37.86564272 174.16610906 40.12242379 178.39453125 42.7578125 C180.9071971 44.2939738 183.45983243 45.68530371 186.0625 47.0625 C191.0145621 49.74160122 195.83138204 52.61209318 200.625 55.5625 C201.34510254 55.99916992 202.06520508 56.43583984 202.80712891 56.88574219 C204.55330448 57.97208235 206.25084841 59.13586476 207.9375 60.3125 C207.9375 60.9725 207.9375 61.6325 207.9375 62.3125 C208.48277344 62.395 209.02804687 62.4775 209.58984375 62.5625 C212.75229065 63.57279918 214.86754384 65.29346572 217.5 67.3125 C218.01941162 67.70896729 218.53882324 68.10543457 219.07397461 68.51391602 C223.68817007 72.05991371 228.18815127 75.74145635 232.66015625 79.46484375 C234.99747757 81.4199887 234.99747757 81.4199887 237.9375 83.3125 C237.9375 83.9725 237.9375 84.6325 237.9375 85.3125 C240.4125 86.3025 240.4125 86.3025 242.9375 87.3125 C242.9375 87.9725 242.9375 88.6325 242.9375 89.3125 C243.52088135 89.57369629 244.1042627 89.83489258 244.70532227 90.10400391 C247.07220067 91.38542664 248.71343673 92.78819977 250.65234375 94.6484375 C251.33876953 95.30070312 252.02519531 95.95296875 252.73242188 96.625 C253.79299805 97.6459375 253.79299805 97.6459375 254.875 98.6875 C259.1173782 102.74711763 263.34785533 106.64564103 267.9375 110.3125 C269.13913834 111.59305951 270.30832464 112.90510953 271.4375 114.25 C274.12597365 117.43939209 276.9657927 120.38411205 279.9375 123.3125 C299.31958498 142.45875494 299.31958498 142.45875494 300.9375 147.3125 C301.5975 147.3125 302.2575 147.3125 302.9375 147.3125 C304.55859375 148.95703125 304.55859375 148.95703125 306.375 151.125 C308.91089332 154.13713265 308.91089332 154.13713265 311.66015625 156.94921875 C312.9375 158.3125 312.9375 158.3125 312.9375 160.3125 C313.9275 160.6425 314.9175 160.9725 315.9375 161.3125 C315.9375 161.9725 315.9375 162.6325 315.9375 163.3125 C316.5975 163.3125 317.2575 163.3125 317.9375 163.3125 C317.9375 163.9725 317.9375 164.6325 317.9375 165.3125 C318.5975 165.3125 319.2575 165.3125 319.9375 165.3125 C321.28393555 166.67797852 321.28393555 166.67797852 322.88671875 168.62890625 C327.55799083 174.120889 332.64388795 179.16503128 337.75 184.25 C338.71305913 185.21662902 339.67595081 186.1834249 340.63867188 187.15039062 C341.54810547 188.05853516 342.45753906 188.96667969 343.39453125 189.90234375 C344.6316687 191.13778931 344.6316687 191.13778931 345.89379883 192.39819336 C347.79205934 194.3585552 347.79205934 194.3585552 349.9375 195.3125 C349.9375 195.9725 349.9375 196.6325 349.9375 197.3125 C350.9275 197.6425 351.9175 197.9725 352.9375 198.3125 C352.9375 198.9725 352.9375 199.6325 352.9375 200.3125 C353.66066406 200.55742187 354.38382813 200.80234375 355.12890625 201.0546875 C358.26576487 202.45951153 360.30403751 204.16364412 362.875 206.4375 C375.23922268 216.77425606 389.69018498 223.60908175 405.515625 226.63671875 C408.9375 227.3125 408.9375 227.3125 412.64111328 228.33374023 C416.83440735 229.38695965 420.79190459 229.63477881 425.1015625 229.6484375 C426.23336441 229.6584227 426.23336441 229.6584227 427.38803101 229.66860962 C428.97627351 229.67866866 430.56455771 229.68342875 432.15283203 229.68310547 C434.53622381 229.68745208 436.91771911 229.72376719 439.30078125 229.76171875 C449.24696865 229.83385674 457.48083965 228.61589231 466.9375 225.3125 C468.54072698 224.80949508 470.1446794 224.30878265 471.75 223.8125 C476.27772354 222.26133545 480.60776721 220.34498248 484.9375 218.3125 C485.57171875 218.02761719 486.2059375 217.74273437 486.859375 217.44921875 C498.79772862 211.85003224 511.47328856 202.97356976 520.71484375 193.48828125 C521.9375 192.3125 521.9375 192.3125 523.9375 192.3125 C523.9375 191.6525 523.9375 190.9925 523.9375 190.3125 C525.3125 188.6875 525.3125 188.6875 526.9375 187.3125 C527.5975 187.3125 528.2575 187.3125 528.9375 187.3125 C528.9375 186.6525 528.9375 185.9925 528.9375 185.3125 C530.3125 183.6875 530.3125 183.6875 531.9375 182.3125 C532.5975 182.3125 533.2575 182.3125 533.9375 182.3125 C534.16308594 181.76851562 534.38867188 181.22453125 534.62109375 180.6640625 C536.34973787 177.57609881 538.58300144 175.26795026 541 172.6875 C544.35283647 169.27040247 544.35283647 169.27040247 546.9375 165.3125 C547.5975 165.3125 548.2575 165.3125 548.9375 165.3125 C549.27587891 164.28189453 549.27587891 164.28189453 549.62109375 163.23046875 C551.2705057 159.57435383 553.50482467 156.74132223 556 153.625 C559.26308304 149.66320369 559.26308304 149.66320369 561.9375 145.3125 C562.5975 145.3125 563.2575 145.3125 563.9375 145.3125 C564.205625 144.673125 564.47375 144.03375 564.75 143.375 C565.9375 141.3125 565.9375 141.3125 568.9375 140.3125 C569.2675 139.3225 569.5975 138.3325 569.9375 137.3125 C581.38341095 129.3356764 593.78778787 126.56234897 607.5 128.9375 C614.21657818 130.63199322 620.22442632 134.50378421 625.9375 138.3125 C625.9375 138.9725 625.9375 139.6325 625.9375 140.3125 C626.5975 140.3125 627.2575 140.3125 627.9375 140.3125 C627.9375 140.9725 627.9375 141.6325 627.9375 142.3125 C628.9275 142.6425 629.9175 142.9725 630.9375 143.3125 C638.58516633 152.7250124 640.55179383 160.74074687 640.25 172.8125 C640.23549805 174.59914063 640.23549805 174.59914063 640.22070312 176.421875 C640.10620301 185.14379699 640.10620301 185.14379699 638.9375 186.3125 C638.27918129 189.3971934 637.69580608 192.48712059 637.13085938 195.58984375 C636.41149187 199.38422782 635.42643723 202.75921952 633.9375 206.3125 C633.49272408 208.03465065 633.07811613 209.76476298 632.6875 211.5 C630.81820201 219.18489172 628.24856033 226.60460715 625.69287109 234.08154297 C624.98376275 236.1758649 624.29385811 238.2751641 623.61328125 240.37890625 C621.07815979 248.19800453 618.18462745 255.76318477 614.9375 263.3125 C614.55980469 264.25222656 614.18210937 265.19195312 613.79296875 266.16015625 C611.17766076 272.6590654 608.20593603 278.90247699 605.0378418 285.14355469 C601.50097102 292.1217278 598.20523346 299.20517973 594.9375 306.3125 C594.2775 306.3125 593.6175 306.3125 592.9375 306.3125 C592.81294434 306.89588135 592.68838867 307.4792627 592.56005859 308.08032227 C591.93679801 310.31501698 591.1240712 312.01828615 589.9765625 314.02734375 C589.39261719 315.05698242 589.39261719 315.05698242 588.796875 316.10742188 C588.38953125 316.81447266 587.9821875 317.52152344 587.5625 318.25 C587.16289063 318.95318359 586.76328125 319.65636719 586.3515625 320.38085938 C585.57431655 321.74487488 584.79226718 323.10616719 584.00488281 324.46435547 C583.07664211 326.0715792 582.17282653 327.69286127 581.2734375 329.31640625 C580.83257813 329.97511719 580.39171875 330.63382813 579.9375 331.3125 C579.2775 331.3125 578.6175 331.3125 577.9375 331.3125 C577.9375 332.3025 577.9375 333.2925 577.9375 334.3125 C577.2775 334.3125 576.6175 334.3125 575.9375 334.3125 C575.68226563 335.03050781 575.42703125 335.74851562 575.1640625 336.48828125 C571.69025319 344.48689314 565.16304007 351.39383301 559.69921875 358.12109375 C558.52931838 359.57633568 557.40542161 361.06983785 556.33203125 362.59765625 C555.87183594 363.16355469 555.41164063 363.72945312 554.9375 364.3125 C554.2775 364.3125 553.6175 364.3125 552.9375 364.3125 C552.2775 365.9625 551.6175 367.6125 550.9375 369.3125 C550.2775 369.3125 549.6175 369.3125 548.9375 369.3125 C548.58413574 370.15373413 548.58413574 370.15373413 548.22363281 371.01196289 C546.63019018 373.86219257 544.67453171 375.81738266 542.359375 378.12109375 C541.44542969 379.03310547 540.53148437 379.94511719 539.58984375 380.88476562 C539.11272949 381.35567627 538.63561523 381.82658691 538.14404297 382.31176758 C536.70096656 383.73670273 535.26593939 385.16936103 533.83203125 386.60351562 C521.04232644 399.3125 521.04232644 399.3125 517.9375 399.3125 C517.9375 399.9725 517.9375 400.6325 517.9375 401.3125 C516.26590309 402.73712223 514.52097098 404.07598248 512.75 405.375 C512.21479736 405.76913086 511.67959473 406.16326172 511.12817383 406.56933594 C506.1085645 410.24246947 500.99725387 413.78219227 495.86328125 417.29296875 C493.47344224 418.9425639 491.13784939 420.6371073 488.8125 422.375 C485.9375 424.3125 485.9375 424.3125 482.9375 424.3125 C482.9375 424.9725 482.9375 425.6325 482.9375 426.3125 C481.69033203 426.92738281 481.69033203 426.92738281 480.41796875 427.5546875 C479.33128906 428.09351563 478.24460937 428.63234375 477.125 429.1875 C475.50658203 429.98800781 475.50658203 429.98800781 473.85546875 430.8046875 C470.85911735 432.28471139 470.85911735 432.28471139 467.9375 434.3125 C466.9475 434.3125 465.9575 434.3125 464.9375 434.3125 C464.9375 434.9725 464.9375 435.6325 464.9375 436.3125 C464.3084375 436.55484375 463.679375 436.7971875 463.03125 437.046875 C458.96136048 438.64050644 454.9475735 440.24189239 451.0625 442.25 C443.4248682 446.16120661 435.56112253 449.23858789 427.30859375 451.5625 C424.87025575 452.33377001 422.6303077 453.29731847 420.3125 454.375 C416.25158097 456.24872229 412.3031657 457.39297649 407.9375 458.3125 C406.29124672 458.6647095 404.64541261 459.01888384 403 459.375 C402.24847656 459.53097656 401.49695312 459.68695312 400.72265625 459.84765625 C398.92680215 460.15449661 398.92680215 460.15449661 397.9375 461.3125 C396.40619166 461.66672319 394.86302411 461.97008487 393.31640625 462.25 C392.38119141 462.42273438 391.44597656 462.59546875 390.48242188 462.7734375 C389.49822266 462.95132812 388.51402344 463.12921875 387.5 463.3125 C385.56330386 463.66393204 383.62707877 464.017973 381.69140625 464.375 C380.82845947 464.53097656 379.9655127 464.68695312 379.07641602 464.84765625 C376.89961671 465.22849856 376.89961671 465.22849856 374.9375 466.3125 C373.25344764 466.49385948 371.56478162 466.63354529 369.875 466.75 C366.44701654 467.03272029 363.20760998 467.40362286 359.875 468.25 C346.60883352 471.42095587 332.74847338 471.62712103 319.1796875 471.61328125 C317.53654883 471.61719 315.89341114 471.62152891 314.25027466 471.62626648 C310.83348291 471.63364974 307.4167946 471.63349672 304 471.62817383 C300.5522759 471.6235495 297.10490512 471.63044601 293.65722656 471.64868164 C246.68553898 471.89517966 246.68553898 471.89517966 232.9375 467.3125 C231.35591547 467.18449406 229.77202972 467.08402809 228.1875 467 C222.69024339 466.55467111 217.57597893 465.25358765 212.29394531 463.7590332 C209.00981718 462.8383798 205.83168292 462.04339491 202.4375 461.6875 C195.61411212 460.95642273 189.02831084 458.43356982 182.5 456.375 C181.28860352 455.99698242 181.28860352 455.99698242 180.05273438 455.61132812 C174.9463841 454.00247804 169.93482133 452.230645 164.9375 450.3125 C163.55229743 449.79760075 162.16687538 449.28329162 160.78125 448.76953125 C151.13396345 445.1402088 141.93366355 441.01942891 132.79296875 436.26367188 C129.95179768 434.80719786 127.06424678 433.44710242 124.1875 432.0625 C111.94668336 425.94209168 99.94240078 418.81890375 88.91015625 410.71484375 C86.85871432 409.20561129 86.85871432 409.20561129 84.18359375 407.75390625 C83.44238281 407.27824219 82.70117188 406.80257813 81.9375 406.3125 C81.9375 405.6525 81.9375 404.9925 81.9375 404.3125 C81.37546875 404.044375 80.8134375 403.77625 80.234375 403.5 C77.78199354 402.2321021 75.49822317 400.82277658 73.1875 399.3125 C72.38828125 398.796875 71.5890625 398.28125 70.765625 397.75 C69.86070312 397.0384375 69.86070312 397.0384375 68.9375 396.3125 C68.9375 395.6525 68.9375 394.9925 68.9375 394.3125 C68.36515625 394.044375 67.7928125 393.77625 67.203125 393.5 C64.85865366 392.27117364 62.81345062 390.88727824 60.6875 389.3125 C59.62789062 388.5390625 59.62789062 388.5390625 58.546875 387.75 C58.01578125 387.275625 57.4846875 386.80125 56.9375 386.3125 C56.9375 385.6525 56.9375 384.9925 56.9375 384.3125 C56.38964844 384.08304688 55.84179688 383.85359375 55.27734375 383.6171875 C52.26310122 381.93645795 50.01972044 379.79296682 47.5 377.4375 C44.75554679 374.88008185 42.06165933 372.4082168 39.08984375 370.1171875 C38.37957031 369.52164062 37.66929687 368.92609375 36.9375 368.3125 C36.9375 367.6525 36.9375 366.9925 36.9375 366.3125 C36.2775 366.3125 35.6175 366.3125 34.9375 366.3125 C33.3125 364.9375 33.3125 364.9375 31.9375 363.3125 C31.9375 362.6525 31.9375 361.9925 31.9375 361.3125 C31.298125 361.044375 30.65875 360.77625 30 360.5 C27.9375 359.3125 27.9375 359.3125 26.9375 356.3125 C25.9475 355.9825 24.9575 355.6525 23.9375 355.3125 C23.9375 354.6525 23.9375 353.9925 23.9375 353.3125 C23.2775 353.3125 22.6175 353.3125 21.9375 353.3125 C21.9375 352.6525 21.9375 351.9925 21.9375 351.3125 C21.2775 351.3125 20.6175 351.3125 19.9375 351.3125 C18.3125 349.9375 18.3125 349.9375 16.9375 348.3125 C16.9375 347.6525 16.9375 346.9925 16.9375 346.3125 C16.2775 346.3125 15.6175 346.3125 14.9375 346.3125 C13.703125 345.08984375 13.703125 345.08984375 12.1875 343.25 C9.65765674 340.25626224 7.05810508 337.35652758 4.36328125 334.51171875 C3.72938477 333.84213135 3.09548828 333.17254395 2.44238281 332.48266602 C1.15230021 331.12431735 -0.14130187 329.76930222 -1.43847656 328.41772461 C-2.33324707 327.47231812 -2.33324707 327.47231812 -3.24609375 326.5078125 C-3.78806396 325.94078613 -4.33003418 325.37375977 -4.88842773 324.78955078 C-6.0625 323.3125 -6.0625 323.3125 -6.0625 321.3125 C-6.7225 321.3125 -7.3825 321.3125 -8.0625 321.3125 C-8.0625 320.6525 -8.0625 319.9925 -8.0625 319.3125 C-9.0525 318.9825 -10.0425 318.6525 -11.0625 318.3125 C-11.0625 317.6525 -11.0625 316.9925 -11.0625 316.3125 C-11.7225 316.3125 -12.3825 316.3125 -13.0625 316.3125 C-14.68359375 314.66796875 -14.68359375 314.66796875 -16.5 312.5 C-19.03589332 309.48786735 -19.03589332 309.48786735 -21.78515625 306.67578125 C-23.0625 305.3125 -23.0625 305.3125 -23.0625 303.3125 C-23.7225 303.3125 -24.3825 303.3125 -25.0625 303.3125 C-26.26171875 302.08984375 -26.26171875 302.08984375 -27.75 300.25 C-36.55819373 289.88741914 -46.70707044 278.88278637 -58.0625 271.3125 C-58.0625 270.6525 -58.0625 269.9925 -58.0625 269.3125 C-58.77921875 269.06113281 -59.4959375 268.80976563 -60.234375 268.55078125 C-63.31611755 267.20145475 -65.64267826 265.54139879 -68.3125 263.5 C-73.05190734 259.98202381 -77.81700267 257.00299494 -83.0625 254.3125 C-83.74054688 253.95414063 -84.41859375 253.59578125 -85.1171875 253.2265625 C-93.58514986 248.84430961 -101.78259196 246.62453061 -111.12890625 245.0078125 C-113.37446029 244.61088239 -115.6164613 244.18628097 -117.83984375 243.6796875 C-146.21084616 237.31526042 -175.47713472 246.77956622 -199.5625 261.5625 C-204.3054056 264.69079944 -208.87697356 268.05115435 -213.4375 271.4375 C-214.11619141 271.94055664 -214.79488281 272.44361328 -215.49414062 272.96191406 C-219.3168086 275.84504845 -222.7431466 278.84427194 -226.0625 282.3125 C-226.93390625 283.17230469 -227.8053125 284.03210938 -228.703125 284.91796875 C-229.56421875 285.77003906 -230.4253125 286.62210937 -231.3125 287.5 C-232.18390625 288.35980469 -233.0553125 289.21960938 -233.953125 290.10546875 C-236.09244238 292.12681066 -236.09244238 292.12681066 -237.0625 294.3125 C-237.7225 294.3125 -238.3825 294.3125 -239.0625 294.3125 C-239.2996875 294.85390625 -239.536875 295.3953125 -239.78125 295.953125 C-241.40597757 298.94500137 -243.4126877 301.42409399 -245.5625 304.0625 C-246.3565625 305.04734375 -247.150625 306.0321875 -247.96875 307.046875 C-248.6596875 307.79453125 -249.350625 308.5421875 -250.0625 309.3125 C-250.7225 309.3125 -251.3825 309.3125 -252.0625 309.3125 C-252.2790625 309.97636719 -252.495625 310.64023437 -252.71875 311.32421875 C-254.51386558 315.31626357 -256.96524929 318.61837598 -259.5625 322.125 C-260.06136719 322.81787109 -260.56023437 323.51074219 -261.07421875 324.22460938 C-261.55503906 324.87880859 -262.03585937 325.53300781 -262.53125 326.20703125 C-262.96888672 326.80362549 -263.40652344 327.40021973 -263.85742188 328.01489258 C-264.45393555 328.65720825 -264.45393555 328.65720825 -265.0625 329.3125 C-265.7225 329.3125 -266.3825 329.3125 -267.0625 329.3125 C-267.0625 329.9725 -267.0625 330.6325 -267.0625 331.3125 C-267.7225 331.3125 -268.3825 331.3125 -269.0625 331.3125 C-269.3925 332.3025 -269.7225 333.2925 -270.0625 334.3125 C-280.49786857 342.78401692 -291.83202536 345.49033494 -305.0625 344.3125 C-312.49772791 343.04379048 -318.69216847 340.29199105 -325.0625 336.3125 C-325.0625 335.6525 -325.0625 334.9925 -325.0625 334.3125 C-325.93648438 333.93931641 -325.93648438 333.93931641 -326.828125 333.55859375 C-329.37757622 332.13678441 -330.89866159 330.57100689 -332.8125 328.375 C-333.73289062 327.34052734 -333.73289062 327.34052734 -334.671875 326.28515625 C-336.0625 324.3125 -336.0625 324.3125 -336.0625 321.3125 C-336.7225 321.3125 -337.3825 321.3125 -338.0625 321.3125 C-342.88527405 307.42980041 -344.25863605 298.26139189 -340.03515625 283.92578125 C-339.08219392 280.38566013 -338.54412957 276.94223558 -338.0625 273.3125 C-337.19055658 270.40602194 -336.21202052 267.65551765 -335 264.875 C-333.93184918 262.26180364 -333.93184918 262.26180364 -333.6875 259.125 C-333.02374831 255.0761147 -331.7428867 251.86120862 -330.1640625 248.1015625 C-328.98759193 245.12283913 -328.04312727 242.13038869 -327.125 239.0625 C-323.98739046 228.61610589 -320.2506228 218.38213821 -316.0625 208.3125 C-315.63324219 207.26835937 -315.20398438 206.22421875 -314.76171875 205.1484375 C-311.2133635 196.67446781 -307.24271674 188.48444505 -303.07373047 180.30273438 C-301.42830726 177.06432539 -299.80887442 173.81299631 -298.1875 170.5625 C-296.47916667 167.14583333 -294.77083333 163.72916667 -293.0625 160.3125 C-292.4025 160.3125 -291.7425 160.3125 -291.0625 160.3125 C-290.9696875 159.3225 -290.9696875 159.3225 -290.875 158.3125 C-289.73261398 154.09445932 -287.47979235 150.91919579 -285.0625 147.3125 C-284.57209229 146.57008057 -284.08168457 145.82766113 -283.57641602 145.06274414 C-282.08063192 142.8066132 -280.57240983 140.55919405 -279.0625 138.3125 C-278.61116699 137.63300293 -278.15983398 136.95350586 -277.69482422 136.25341797 C-272.31827647 128.16320653 -272.31827647 128.16320653 -270.0625 125.3125 C-269.4025 125.3125 -268.7425 125.3125 -268.0625 125.3125 C-268.0625 124.3225 -268.0625 123.3325 -268.0625 122.3125 C-267.4025 122.3125 -266.7425 122.3125 -266.0625 122.3125 C-265.815 121.77625 -265.5675 121.24 -265.3125 120.6875 C-263.75597463 117.7301018 -262.02814327 115.01525949 -260.0625 112.3125 C-259.4025 112.3125 -258.7425 112.3125 -258.0625 112.3125 C-257.81371094 111.75691406 -257.56492187 111.20132813 -257.30859375 110.62890625 C-255.84154015 107.90175018 -254.07363998 105.65586277 -252.125 103.25 C-251.43535156 102.39277344 -250.74570312 101.53554688 -250.03515625 100.65234375 C-246.82299374 96.84227376 -246.82299374 96.84227376 -245.0625 95.3125 C-244.4025 95.3125 -243.7425 95.3125 -243.0625 95.3125 C-243.0625 94.6525 -243.0625 93.9925 -243.0625 93.3125 C-241.6875 91.6875 -241.6875 91.6875 -240.0625 90.3125 C-239.4025 90.3125 -238.7425 90.3125 -238.0625 90.3125 C-238.0625 89.6525 -238.0625 88.9925 -238.0625 88.3125 C-236.6875 86.6875 -236.6875 86.6875 -235.0625 85.3125 C-234.4025 85.3125 -233.7425 85.3125 -233.0625 85.3125 C-233.0625 84.6525 -233.0625 83.9925 -233.0625 83.3125 C-231.48828125 81.7265625 -231.48828125 81.7265625 -229.375 79.9375 C-228.28251953 79.01130859 -228.28251953 79.01130859 -227.16796875 78.06640625 C-226.47316406 77.48761719 -225.77835937 76.90882813 -225.0625 76.3125 C-224.11375 75.508125 -223.165 74.70375 -222.1875 73.875 C-220.0625 72.3125 -220.0625 72.3125 -218.0625 72.3125 C-218.0625 71.6525 -218.0625 70.9925 -218.0625 70.3125 C-216.03478698 68.58167029 -214.00645409 66.96841714 -211.875 65.375 C-211.29685547 64.93220703 -210.71871094 64.48941406 -210.12304688 64.03320312 C-201.25893023 57.3125 -201.25893023 57.3125 -198.0625 57.3125 C-198.0625 56.6525 -198.0625 55.9925 -198.0625 55.3125 C-196.10986328 53.87963867 -196.10986328 53.87963867 -193.3828125 52.23046875 C-192.39023437 51.62783203 -191.39765625 51.02519531 -190.375 50.40429688 C-189.323125 49.77587891 -188.27125 49.14746094 -187.1875 48.5 C-186.17429687 47.88318359 -185.16109375 47.26636719 -184.1171875 46.63085938 C-178.5846871 43.29362676 -173.01050652 40.19427142 -167.20214844 37.36499023 C-164.61649528 36.09311087 -162.12319953 34.68496581 -159.625 33.25 C-155.09781274 30.75334243 -150.56887599 28.91609803 -145.68359375 27.24609375 C-143.21287765 26.36606223 -140.87618288 25.35665811 -138.5 24.25 C-134.59071258 22.46608275 -130.6506289 21.20444919 -126.5234375 20.0234375 C-124.22350749 19.35901327 -121.95675457 18.63687969 -119.6875 17.875 C-118.94113281 17.62621094 -118.19476562 17.37742188 -117.42578125 17.12109375 C-115.81260872 16.56914877 -114.20593565 15.99792708 -112.60546875 15.41015625 C-102.34388673 11.75474291 -91.70062698 9.57216613 -81.0625 7.3125 C-80.17264404 7.12268555 -79.28278809 6.93287109 -78.3659668 6.73730469 C-73.94180754 5.81930922 -69.64548327 5.07192515 -65.125 4.8125 C-61.35257528 4.59538203 -57.75482597 4.08139938 -54.05224609 3.36010742 C-48.342081 2.31176747 -42.66316977 1.67263412 -36.87890625 1.20703125 C-35.32835289 1.08120415 -35.32835289 1.08120415 -33.74647522 0.95283508 C-22.49815368 0.104406 -11.27560055 -0.03681326 0 0 Z M-41.0625 90.3125 C-42.99816044 90.46333068 -44.9361757 90.58507155 -46.875 90.6875 C-64.03850757 91.93401172 -80.74151559 97.10280922 -97.0625 102.3125 C-98.11695313 102.6425 -99.17140625 102.9725 -100.2578125 103.3125 C-101.80082031 103.8075 -101.80082031 103.8075 -103.375 104.3125 C-104.27863281 104.60125 -105.18226563 104.89 -106.11328125 105.1875 C-109.90869785 106.63528805 -113.45198586 108.45929312 -117.0625 110.3125 C-118.35959915 110.9579001 -119.65776316 111.60116494 -120.95703125 112.2421875 C-128.75038514 116.10750286 -136.4680144 120.06473687 -144.0625 124.3125 C-144.0625 124.9725 -144.0625 125.6325 -144.0625 126.3125 C-145.0525 126.3125 -146.0425 126.3125 -147.0625 126.3125 C-147.0625 126.9725 -147.0625 127.6325 -147.0625 128.3125 C-147.74441406 128.53292969 -148.42632812 128.75335938 -149.12890625 128.98046875 C-152.89430258 130.69018932 -155.80176853 133.03267675 -159 135.625 C-159.89235352 136.3355957 -159.89235352 136.3355957 -160.80273438 137.06054688 C-161.98451699 138.0046814 -163.16218154 138.95399611 -164.33544922 139.90869141 C-165.49640725 140.85235958 -166.66489171 141.78683591 -167.84033203 142.71240234 C-169.2847094 143.86764987 -170.67885031 145.08517104 -172.0625 146.3125 C-172.0625 146.9725 -172.0625 147.6325 -172.0625 148.3125 C-173.5475 148.8075 -173.5475 148.8075 -175.0625 149.3125 C-175.0625 149.9725 -175.0625 150.6325 -175.0625 151.3125 C-175.7225 151.3125 -176.3825 151.3125 -177.0625 151.3125 C-177.0625 151.9725 -177.0625 152.6325 -177.0625 153.3125 C-178.5475 153.8075 -178.5475 153.8075 -180.0625 154.3125 C-180.0625 154.9725 -180.0625 155.6325 -180.0625 156.3125 C-180.7225 156.3125 -181.3825 156.3125 -182.0625 156.3125 C-182.0625 156.9725 -182.0625 157.6325 -182.0625 158.3125 C-182.7225 158.3125 -183.3825 158.3125 -184.0625 158.3125 C-184.0625 158.9725 -184.0625 159.6325 -184.0625 160.3125 C-182.804375 160.02375 -181.54625 159.735 -180.25 159.4375 C-178.52097307 159.06185624 -176.79180002 158.68688454 -175.0625 158.3125 C-174.30066406 158.13332031 -173.53882813 157.95414062 -172.75390625 157.76953125 C-142.88759205 151.41397959 -109.30123217 154.58485541 -80.0625 162.3125 C-78.18498047 162.7765625 -78.18498047 162.7765625 -76.26953125 163.25 C-70.21232995 164.76579741 -64.45023031 166.26848631 -58.9609375 169.30078125 C-53.6285946 172.14250308 -48.01095851 174.26650108 -42.0625 175.3125 C-42.0625 175.9725 -42.0625 176.6325 -42.0625 177.3125 C-41.0415625 177.77076172 -41.0415625 177.77076172 -40 178.23828125 C-29.66153964 183.11880443 -20.05653233 189.39558459 -11.21484375 196.6484375 C-9.25222502 198.51638393 -9.25222502 198.51638393 -7.0625 198.3125 C-7.0625 198.9725 -7.0625 199.6325 -7.0625 200.3125 C-5.6104615 201.58939272 -5.6104615 201.58939272 -3.6875 202.875 C0.8076022 206.10986819 4.80048404 209.76910732 8.8359375 213.5546875 C10.7365515 215.5263619 10.7365515 215.5263619 12.9375 215.3125 C12.9375 215.9725 12.9375 216.6325 12.9375 217.3125 C14.27083333 218.97916667 14.27083333 218.97916667 15.9375 220.3125 C16.5975 220.3125 17.2575 220.3125 17.9375 220.3125 C17.9375 220.9725 17.9375 221.6325 17.9375 222.3125 C19.27083333 223.97916667 19.27083333 223.97916667 20.9375 225.3125 C21.5975 225.3125 22.2575 225.3125 22.9375 225.3125 C22.9375 225.9725 22.9375 226.6325 22.9375 227.3125 C24.27083333 228.97916667 24.27083333 228.97916667 25.9375 230.3125 C26.5975 230.3125 27.2575 230.3125 27.9375 230.3125 C27.9375 230.9725 27.9375 231.6325 27.9375 232.3125 C29.27083333 233.97916667 29.27083333 233.97916667 30.9375 235.3125 C31.5975 235.3125 32.2575 235.3125 32.9375 235.3125 C32.9375 235.9725 32.9375 236.6325 32.9375 237.3125 C34.27083333 238.97916667 34.27083333 238.97916667 35.9375 240.3125 C36.5975 240.3125 37.2575 240.3125 37.9375 240.3125 C38.15019531 240.85390625 38.36289062 241.3953125 38.58203125 241.953125 C40.42771228 245.16578016 42.97725703 247.5178371 45.625 250.0625 C51.14474534 255.47066019 56.63495225 260.85867837 60.9375 267.3125 C61.5975 267.3125 62.2575 267.3125 62.9375 267.3125 C63.2675 268.3025 63.5975 269.2925 63.9375 270.3125 C64.5975 270.3125 65.2575 270.3125 65.9375 270.3125 C66.164375 270.84875 66.39125 271.385 66.625 271.9375 C68.95981629 276.16240566 72.26125317 280.16143129 75.9375 283.3125 C76.5975 283.3125 77.2575 283.3125 77.9375 283.3125 C77.9375 283.9725 77.9375 284.6325 77.9375 285.3125 C78.5975 285.3125 79.2575 285.3125 79.9375 285.3125 C80.2675 286.3025 80.5975 287.2925 80.9375 288.3125 C81.5975 288.3125 82.2575 288.3125 82.9375 288.3125 C82.9375 288.9725 82.9375 289.6325 82.9375 290.3125 C83.5975 290.3125 84.2575 290.3125 84.9375 290.3125 C85.185 290.89 85.4325 291.4675 85.6875 292.0625 C87.12049988 294.64189979 88.72174676 296.37371592 90.9375 298.3125 C91.5975 298.3125 92.2575 298.3125 92.9375 298.3125 C92.9375 298.9725 92.9375 299.6325 92.9375 300.3125 C93.5975 300.3125 94.2575 300.3125 94.9375 300.3125 C95.2675 301.3025 95.5975 302.2925 95.9375 303.3125 C96.5975 303.3125 97.2575 303.3125 97.9375 303.3125 C97.9375 303.9725 97.9375 304.6325 97.9375 305.3125 C98.5975 305.3125 99.2575 305.3125 99.9375 305.3125 C99.9375 305.9725 99.9375 306.6325 99.9375 307.3125 C101.61709838 309.08921697 101.61709838 309.08921697 103.75 310.875 C104.45769531 311.49503906 105.16539062 312.11507812 105.89453125 312.75390625 C107.95023468 314.49674754 107.95023468 314.49674754 110.9375 315.3125 C110.9375 315.9725 110.9375 316.6325 110.9375 317.3125 C113.11014655 319.35706059 113.11014655 319.35706059 115.8125 321.4375 C116.71742188 322.16195312 117.62234375 322.88640625 118.5546875 323.6328125 C120.72405811 325.50455234 120.72405811 325.50455234 122.9375 325.3125 C122.9375 325.9725 122.9375 326.6325 122.9375 327.3125 C124.67298169 328.75776736 126.47725963 330.1212222 128.3125 331.4375 C129.80910156 332.52417969 129.80910156 332.52417969 131.3359375 333.6328125 C133.70142238 335.49330472 133.70142238 335.49330472 135.9375 335.3125 C135.9375 335.9725 135.9375 336.6325 135.9375 337.3125 C138.11501179 338.91027524 138.11501179 338.91027524 140.8125 340.4375 C141.71742188 340.97632813 142.62234375 341.51515625 143.5546875 342.0703125 C145.78522022 343.4665893 145.78522022 343.4665893 147.9375 343.3125 C147.9375 343.9725 147.9375 344.6325 147.9375 345.3125 C149.37044498 346.15364171 150.80904405 346.98515687 152.25 347.8125 C153.05050781 348.2765625 153.85101562 348.740625 154.67578125 349.21875 C156.9689118 350.53017886 156.9689118 350.53017886 159.9375 350.3125 C159.9375 350.9725 159.9375 351.6325 159.9375 352.3125 C160.47117187 352.56418945 161.00484375 352.81587891 161.5546875 353.07519531 C164.01607117 354.23668735 166.47678799 355.39958573 168.9375 356.5625 C169.77667969 356.95824219 170.61585938 357.35398437 171.48046875 357.76171875 C175.40977503 359.6197628 179.31931252 361.49802267 183.1875 363.48046875 C186.36526534 365.07972063 189.53705462 366.30774065 192.9375 367.375 C196.36411433 368.475644 199.76414504 369.58700768 203.125 370.875 C210.76611687 373.782244 218.26906187 375.93909498 226.3125 377.4375 C228.07062955 377.77177427 229.82845703 378.10764227 231.5859375 378.4453125 C232.35083496 378.58855957 233.11573242 378.73180664 233.90380859 378.87939453 C235.9375 379.3125 235.9375 379.3125 238.9375 380.3125 C240.76766552 380.51095168 242.60179914 380.67432897 244.4375 380.8125 C247.54343842 381.04628031 249.96970722 381.32323574 252.9375 382.3125 C255.83648046 382.60506103 258.72392431 382.85431104 261.62890625 383.06640625 C262.48878647 383.13157944 263.34866669 383.19675262 264.23460388 383.26390076 C266.05770981 383.40105169 267.88096281 383.53625947 269.7043457 383.66967773 C272.46546132 383.87246336 275.2258831 384.083226 277.98632812 384.29492188 C279.76298469 384.42756834 281.53967646 384.55974425 283.31640625 384.69140625 C284.1303334 384.75389053 284.94426056 384.81637482 285.78285217 384.88075256 C294.8295345 385.53127085 303.73802264 385.36718379 312.77734375 384.69140625 C313.6661171 384.62718979 314.55489044 384.56297333 315.47059631 384.49681091 C317.32859214 384.36156556 319.18645696 384.22450901 321.04418945 384.08569336 C323.89170815 383.87375644 326.73973252 383.6699399 329.58789062 383.46679688 C331.40107719 383.33381686 333.21422961 383.20037021 335.02734375 383.06640625 C335.8773143 383.0059462 336.72728485 382.94548615 337.60301208 382.88319397 C340.88924387 382.63313885 343.79767026 382.35910991 346.9375 381.3125 C348.498196 381.18410636 350.06127617 381.08381368 351.625 381 C357.33963233 380.5358288 362.6737695 379.26043193 368.19018555 377.7722168 C372.42760545 376.63767666 376.59659714 375.91482623 380.9375 375.3125 C383.03728839 374.77104415 383.03728839 374.77104415 384.9375 374.0625 C387.75695326 373.06824646 390.57326913 372.11244275 393.42578125 371.21484375 C400.68085752 368.92609024 407.37009518 366.28734487 414.12890625 362.73828125 C418.28225629 360.62983512 422.58122767 358.95092101 426.9375 357.3125 C426.9375 356.6525 426.9375 355.9925 426.9375 355.3125 C427.66710938 355.209375 428.39671875 355.10625 429.1484375 355 C432.20236321 354.24721159 434.01610619 353.1326028 436.5625 351.3125 C439.11546131 349.50015887 440.94438125 348.31020625 443.9375 347.3125 C443.9375 346.6525 443.9375 345.9925 443.9375 345.3125 C444.9275 345.3125 445.9175 345.3125 446.9375 345.3125 C446.9375 344.6525 446.9375 343.9925 446.9375 343.3125 C447.72125 343.003125 448.505 342.69375 449.3125 342.375 C451.86080128 341.38374962 451.86080128 341.38374962 453.9375 340.3125 C453.9375 339.6525 453.9375 338.9925 453.9375 338.3125 C454.47375 338.065 455.01 337.8175 455.5625 337.5625 C458.5198982 336.00597463 461.23474051 334.27814327 463.9375 332.3125 C463.9375 331.6525 463.9375 330.9925 463.9375 330.3125 C464.494375 330.085625 465.05125 329.85875 465.625 329.625 C468.59605185 327.93872733 470.58272125 325.782146 472.9375 323.3125 C475.9375 320.3125 478.9375 317.3125 481.9375 314.3125 C478.89865 313.35143831 477.05334621 313.3318598 474 314.1875 C468.97602078 315.43097658 464.01189214 315.76453678 458.85546875 316.06640625 C456.10634347 316.20124177 456.10634347 316.20124177 454.20483398 316.81738281 C451.03246048 317.51013327 447.98810314 317.46159951 444.7421875 317.48046875 C444.04158203 317.48470352 443.34097656 317.48893829 442.61914062 317.49330139 C440.35019951 317.50318884 438.08145886 317.50322304 435.8125 317.5 C435.04117737 317.49939575 434.26985474 317.4987915 433.47515869 317.49816895 C417.66571101 317.46438191 402.88877244 316.46563123 387.5859375 312.21484375 C384.89570825 311.54948726 382.50768756 311.10410111 379.78125 310.80859375 C376.44634575 310.3781742 374.09326293 309.79033189 371.0625 308.4375 C367.67673282 306.99387534 364.35779505 305.80213758 360.8125 304.8125 C357.05508695 303.71901137 353.72288427 302.37553444 350.26953125 300.546875 C347.78246706 299.23043902 345.26498215 297.98186433 342.7421875 296.7355957 C338.32889754 294.55376394 333.9319897 292.37542266 329.6875 289.875 C327.17483035 288.1478302 327.17483035 288.1478302 324.9375 288.3125 C324.9375 287.6525 324.9375 286.9925 324.9375 286.3125 C323.9475 286.3125 322.9575 286.3125 321.9375 286.3125 C321.9375 285.6525 321.9375 284.9925 321.9375 284.3125 C321.009375 283.838125 320.08125 283.36375 319.125 282.875 C314.39278076 280.20827809 310.40767073 276.65940463 306.29296875 273.140625 C304.17111381 271.10812533 304.17111381 271.10812533 301.9375 271.3125 C301.9375 270.6525 301.9375 269.9925 301.9375 269.3125 C300.02714987 267.53043979 300.02714987 267.53043979 297.625 265.75 C296.82449219 265.12996094 296.02398438 264.50992188 295.19921875 263.87109375 C292.93781797 262.15820208 292.93781797 262.15820208 289.9375 261.3125 C289.6075 260.3225 289.2775 259.3325 288.9375 258.3125 C288.2775 258.3125 287.6175 258.3125 286.9375 258.3125 C286.9375 257.6525 286.9375 256.9925 286.9375 256.3125 C285.42488612 254.77765197 285.42488612 254.77765197 283.4453125 253.1875 C279.02195511 249.42443242 274.90553555 245.42919471 270.8125 241.3125 C270.13574219 240.63960937 269.45898438 239.96671875 268.76171875 239.2734375 C265.5504673 236.05597474 262.47333116 232.81231873 259.5703125 229.3125 C258.70148438 228.3225 257.83265625 227.3325 256.9375 226.3125 C256.2775 226.3125 255.6175 226.3125 254.9375 226.3125 C254.6075 225.3225 254.2775 224.3325 253.9375 223.3125 C253.2775 223.3125 252.6175 223.3125 251.9375 223.3125 C251.54896851 222.44069092 251.54896851 222.44069092 251.15258789 221.55126953 C249.84481606 219.14173212 248.39280761 217.46660891 246.49609375 215.4921875 C245.83029297 214.79222656 245.16449219 214.09226562 244.47851562 213.37109375 C243.43727539 212.29021484 243.43727539 212.29021484 242.375 211.1875 C240.99666169 209.74934461 239.62026043 208.30932944 238.24609375 206.8671875 C237.63564209 206.23280762 237.02519043 205.59842773 236.39624023 204.94482422 C234.9375 203.3125 234.9375 203.3125 233.9375 201.3125 C233.2775 201.3125 232.6175 201.3125 231.9375 201.3125 C231.9375 200.6525 231.9375 199.9925 231.9375 199.3125 C230.60416667 197.64583333 230.60416667 197.64583333 228.9375 196.3125 C228.2775 196.3125 227.6175 196.3125 226.9375 196.3125 C226.73253906 195.77882813 226.52757812 195.24515625 226.31640625 194.6953125 C224.35917354 191.31312566 221.6778035 188.88212512 218.875 186.1875 C213.05743243 180.55236486 213.05743243 180.55236486 211.9375 178.3125 C211.2775 178.3125 210.6175 178.3125 209.9375 178.3125 C209.9375 177.6525 209.9375 176.9925 209.9375 176.3125 C208.42030017 174.77792633 208.42030017 174.77792633 206.4375 173.1875 C202.5875766 169.93356119 199.07685665 166.46477282 195.6015625 162.81640625 C194.06402316 161.08899907 194.06402316 161.08899907 191.9375 161.3125 C191.9375 160.6525 191.9375 159.9925 191.9375 159.3125 C190.32242637 157.63967819 190.32242637 157.63967819 188.25 155.9375 C187.15751953 155.01130859 187.15751953 155.01130859 186.04296875 154.06640625 C185.34816406 153.48761719 184.65335938 152.90882813 183.9375 152.3125 C182.98875 151.508125 182.04 150.70375 181.0625 149.875 C179.10855274 148.11503652 179.10855274 148.11503652 176.9375 148.3125 C176.9375 147.6525 176.9375 146.9925 176.9375 146.3125 C175.3033023 144.97381726 173.6024573 143.71596254 171.875 142.5 C170.8746875 141.79230469 169.874375 141.08460938 168.84375 140.35546875 C167.8846875 139.68128906 166.925625 139.00710938 165.9375 138.3125 C164.58282502 137.3131887 163.22855501 136.31332775 161.875 135.3125 C159.25425312 133.12490301 159.25425312 133.12490301 156.9375 133.3125 C156.9375 132.6525 156.9375 131.9925 156.9375 131.3125 C156.050625 130.8175 155.16375 130.3225 154.25 129.8125 C150.76444059 127.83270225 147.38852374 125.70350754 144 123.5625 C134.00294697 117.39630849 123.60924922 111.97587153 112.47265625 108.1796875 C109.78046962 107.25878545 107.14275067 106.24152283 104.5 105.1875 C103.32630859 104.71957031 103.32630859 104.71957031 102.12890625 104.2421875 C99.9375 103.3125 99.9375 103.3125 98.1640625 102.32421875 C94.82828219 100.808487 91.30347274 100.08072296 87.75 99.25 C80.06679062 97.44179062 80.06679062 97.44179062 78.9375 96.3125 C76.25198219 95.79320098 73.57331462 95.31753267 70.875 94.875 C66.4679906 94.14882321 62.12051407 93.39614695 57.80078125 92.25 C54.18939649 91.37362756 50.88899823 90.95809858 47.1875 90.75 C41.31441522 90.40902707 41.31441522 90.40902707 39.015625 89.8203125 C17.34865753 84.52575278 -19.51076492 84.7579291 -41.0625 90.3125 Z " fill="#405230" transform="translate(640.0625,211.6875)"/>
<path d="M0 0 C0.72281158 -0.0049649 1.44562317 -0.00992981 2.19033813 -0.01504517 C4.58556077 -0.02965695 6.98071662 -0.03647606 9.37597656 -0.04199219 C10.20289253 -0.04481956 11.0298085 -0.04764694 11.88178253 -0.05056 C16.27959003 -0.06556787 20.67736474 -0.07478035 25.07519531 -0.07910156 C28.66709783 -0.08344602 32.2587547 -0.09717621 35.85058594 -0.12011719 C84.01702389 -0.42205974 84.01702389 -0.42205974 97.76660156 4.16113281 C99.34818609 4.28913875 100.93207185 4.38960472 102.51660156 4.47363281 C108.63050162 4.97570143 114.32740819 6.53633149 120.21191406 8.18847656 C123.04461139 8.96357726 125.82096571 9.622365 128.70410156 10.16113281 C138.5469778 12.03440141 148.33552323 14.27833184 157.56347656 18.23535156 C159.67266064 19.12165764 161.7740016 19.84576782 163.95410156 20.53613281 C175.76456095 24.41079229 186.83678161 29.51657857 197.86279297 35.19384766 C199.62449444 36.08893117 201.40391195 36.94891301 203.18457031 37.80566406 C216.62649273 44.28236994 229.76200299 51.92037162 241.79394531 60.75878906 C243.84538724 62.26802152 243.84538724 62.26802152 246.52050781 63.71972656 C247.63232422 64.43322266 247.63232422 64.43322266 248.76660156 65.16113281 C248.76660156 65.82113281 248.76660156 66.48113281 248.76660156 67.16113281 C249.32863281 67.42925781 249.89066406 67.69738281 250.46972656 67.97363281 C252.92210802 69.24153071 255.20587839 70.65085623 257.51660156 72.16113281 C258.31582031 72.67675781 259.11503906 73.19238281 259.93847656 73.72363281 C260.54175781 74.19800781 261.14503906 74.67238281 261.76660156 75.16113281 C261.76660156 75.82113281 261.76660156 76.48113281 261.76660156 77.16113281 C262.33894531 77.42925781 262.91128906 77.69738281 263.50097656 77.97363281 C265.84544791 79.20245917 267.89065094 80.58635457 270.01660156 82.16113281 C271.07621094 82.93457031 271.07621094 82.93457031 272.15722656 83.72363281 C272.68832031 84.19800781 273.21941406 84.67238281 273.76660156 85.16113281 C273.76660156 85.82113281 273.76660156 86.48113281 273.76660156 87.16113281 C274.31445312 87.39058594 274.86230469 87.62003906 275.42675781 87.85644531 C278.44100034 89.53717487 280.68438113 91.680666 283.20410156 94.03613281 C285.94855478 96.59355097 288.64244223 99.06541602 291.61425781 101.35644531 C292.32453125 101.95199219 293.03480469 102.54753906 293.76660156 103.16113281 C293.76660156 103.82113281 293.76660156 104.48113281 293.76660156 105.16113281 C294.42660156 105.16113281 295.08660156 105.16113281 295.76660156 105.16113281 C297.39160156 106.53613281 297.39160156 106.53613281 298.76660156 108.16113281 C298.76660156 108.82113281 298.76660156 109.48113281 298.76660156 110.16113281 C299.72566406 110.56332031 299.72566406 110.56332031 300.70410156 110.97363281 C302.76660156 112.16113281 302.76660156 112.16113281 303.76660156 115.16113281 C304.42660156 115.49113281 305.08660156 115.82113281 305.76660156 116.16113281 C306.42660156 116.49113281 307.08660156 116.82113281 307.76660156 117.16113281 C308.09660156 118.15113281 308.42660156 119.14113281 308.76660156 120.16113281 C309.42660156 120.16113281 310.08660156 120.16113281 310.76660156 120.16113281 C312.39160156 121.53613281 312.39160156 121.53613281 313.76660156 123.16113281 C313.76660156 123.82113281 313.76660156 124.48113281 313.76660156 125.16113281 C314.42660156 125.16113281 315.08660156 125.16113281 315.76660156 125.16113281 C317.00097656 126.38378906 317.00097656 126.38378906 318.51660156 128.22363281 C321.04644482 131.21737057 323.64599648 134.11710523 326.34082031 136.96191406 C327.29166504 137.96629517 327.29166504 137.96629517 328.26171875 138.9909668 C329.55180136 140.34931546 330.84540343 141.70433059 332.14257812 143.0559082 C332.7390918 143.6861792 333.33560547 144.3164502 333.95019531 144.96582031 C334.49216553 145.53284668 335.03413574 146.09987305 335.5925293 146.68408203 C336.76660156 148.16113281 336.76660156 148.16113281 336.76660156 150.16113281 C337.42660156 150.16113281 338.08660156 150.16113281 338.76660156 150.16113281 C338.76660156 150.82113281 338.76660156 151.48113281 338.76660156 152.16113281 C339.75660156 152.49113281 340.74660156 152.82113281 341.76660156 153.16113281 C341.76660156 153.82113281 341.76660156 154.48113281 341.76660156 155.16113281 C342.42660156 155.16113281 343.08660156 155.16113281 343.76660156 155.16113281 C345.38769531 156.80566406 345.38769531 156.80566406 347.20410156 158.97363281 C349.73999488 161.98576547 349.73999488 161.98576547 352.48925781 164.79785156 C353.76660156 166.16113281 353.76660156 166.16113281 353.76660156 168.16113281 C354.42660156 168.16113281 355.08660156 168.16113281 355.76660156 168.16113281 C356.96582031 169.38378906 356.96582031 169.38378906 358.45410156 171.22363281 C367.26229529 181.58621367 377.41117201 192.59084644 388.76660156 200.16113281 C388.76660156 200.82113281 388.76660156 201.48113281 388.76660156 202.16113281 C389.48332031 202.4125 390.20003906 202.66386719 390.93847656 202.92285156 C394.02021911 204.27217806 396.34677982 205.93223403 399.01660156 207.97363281 C403.75600891 211.491609 408.52110423 214.47063787 413.76660156 217.16113281 C414.44464844 217.51949219 415.12269531 217.87785156 415.82128906 218.24707031 C424.28925142 222.6293232 432.48669352 224.84910221 441.83300781 226.46582031 C444.07856185 226.86275042 446.32056286 227.28735184 448.54394531 227.79394531 C477.10775662 234.20162494 506.63126854 224.6040479 530.76660156 209.53613281 C534.72152334 206.94127463 538.50789504 204.17378271 542.20800781 201.22753906 C543.76660156 200.16113281 543.76660156 200.16113281 545.76660156 200.16113281 C545.76660156 199.50113281 545.76660156 198.84113281 545.76660156 198.16113281 C547.75944294 196.81712351 549.76079827 195.48571989 551.76660156 194.16113281 C553.45669038 192.51822218 555.12091231 190.84851613 556.76660156 189.16113281 C557.63800781 188.30132813 558.50941406 187.44152344 559.40722656 186.55566406 C560.26832031 185.70359375 561.12941406 184.85152344 562.01660156 183.97363281 C562.88800781 183.11382813 563.75941406 182.25402344 564.65722656 181.36816406 C566.79654395 179.34682216 566.79654395 179.34682216 567.76660156 177.16113281 C568.42660156 177.16113281 569.08660156 177.16113281 569.76660156 177.16113281 C570.12238281 176.34902344 570.12238281 176.34902344 570.48535156 175.52050781 C572.11007913 172.52863144 574.11678926 170.04953882 576.26660156 167.41113281 C577.06066406 166.42628906 577.85472656 165.44144531 578.67285156 164.42675781 C579.70925781 163.30527344 579.70925781 163.30527344 580.76660156 162.16113281 C581.42660156 162.16113281 582.08660156 162.16113281 582.76660156 162.16113281 C582.98316406 161.49726562 583.19972656 160.83339844 583.42285156 160.14941406 C585.21796714 156.15736924 587.66935086 152.85525683 590.26660156 149.34863281 C590.76546875 148.65576172 591.26433594 147.96289062 591.77832031 147.24902344 C592.25914062 146.59482422 592.73996094 145.940625 593.23535156 145.26660156 C593.89180664 144.37171021 593.89180664 144.37171021 594.56152344 143.45874023 C595.15803711 142.81642456 595.15803711 142.81642456 595.76660156 142.16113281 C596.42660156 142.16113281 597.08660156 142.16113281 597.76660156 142.16113281 C597.76660156 141.50113281 597.76660156 140.84113281 597.76660156 140.16113281 C598.42660156 140.16113281 599.08660156 140.16113281 599.76660156 140.16113281 C600.09660156 139.17113281 600.42660156 138.18113281 600.76660156 137.16113281 C611.20197013 128.68961589 622.53612692 125.98329787 635.76660156 127.16113281 C643.20182947 128.42984234 649.39627004 131.18164176 655.76660156 135.16113281 C655.76660156 135.82113281 655.76660156 136.48113281 655.76660156 137.16113281 C656.34925781 137.40992188 656.93191406 137.65871094 657.53222656 137.91503906 C660.08167779 139.3368484 661.60276315 140.90262592 663.51660156 143.09863281 C664.13019531 143.78828125 664.74378906 144.47792969 665.37597656 145.18847656 C666.76660156 147.16113281 666.76660156 147.16113281 666.76660156 150.16113281 C667.42660156 150.16113281 668.08660156 150.16113281 668.76660156 150.16113281 C673.58937561 164.04383241 674.96273761 173.21224092 670.73925781 187.54785156 C669.78629548 191.08797269 669.24823113 194.53139724 668.76660156 198.16113281 C667.90704182 201.02633196 666.93511116 203.75950717 665.77832031 206.51660156 C664.78126639 209.12280044 664.12890963 211.62857198 663.51660156 214.34863281 C661.46047287 222.79122186 658.60488492 230.95634732 655.76660156 239.16113281 C655.54182129 239.8146875 655.31704102 240.46824219 655.08544922 241.14160156 C652.62193809 248.27961104 649.96506303 255.30026967 647.00488281 262.24707031 C646.19160045 264.1609777 645.39666906 266.08280764 644.62207031 268.01269531 C641.42628895 275.94336345 637.67128019 283.52665878 633.79394531 291.13867188 C632.14341434 294.38795861 630.51833018 297.64988391 628.89160156 300.91113281 C627.18326823 304.32779948 625.4749349 307.74446615 623.76660156 311.16113281 C623.10660156 311.16113281 622.44660156 311.16113281 621.76660156 311.16113281 C621.43660156 312.81113281 621.10660156 314.46113281 620.76660156 316.16113281 C620.10660156 316.16113281 619.44660156 316.16113281 618.76660156 316.16113281 C618.64285156 316.73863281 618.51910156 317.31613281 618.39160156 317.91113281 C617.76011332 320.18449048 616.87801965 322.08648571 615.76660156 324.16113281 C615.10660156 324.16113281 614.44660156 324.16113281 613.76660156 324.16113281 C613.6725 324.70253906 613.57839844 325.24394531 613.48144531 325.80175781 C612.55520903 328.85884369 611.04206596 331.21882287 609.32910156 333.91113281 C608.71164062 334.89597656 608.09417969 335.88082031 607.45800781 336.89550781 C606.89984375 337.64316406 606.34167969 338.39082031 605.76660156 339.16113281 C605.10660156 339.16113281 604.44660156 339.16113281 603.76660156 339.16113281 C603.58097656 340.05832031 603.58097656 340.05832031 603.39160156 340.97363281 C602.76660156 343.16113281 602.76660156 343.16113281 600.76660156 346.16113281 C600.10660156 346.16113281 599.44660156 346.16113281 598.76660156 346.16113281 C598.55390625 346.845625 598.34121094 347.53011719 598.12207031 348.23535156 C596.34793709 352.06482069 593.86612631 354.8364216 591.07910156 357.97363281 C590.5410791 358.59020752 590.00305664 359.20678223 589.44873047 359.84204102 C587.89448776 361.62088932 586.33204176 363.39213854 584.76660156 365.16113281 C583.39101657 366.72311783 582.01588095 368.28549897 580.64160156 369.84863281 C579.86429688 370.72068359 579.86429688 370.72068359 579.07128906 371.61035156 C577.567098 373.33992772 577.567098 373.33992772 575.76660156 376.16113281 C575.10660156 376.16113281 574.44660156 376.16113281 573.76660156 376.16113281 C573.76660156 376.82113281 573.76660156 377.48113281 573.76660156 378.16113281 C572.39160156 379.78613281 572.39160156 379.78613281 570.76660156 381.16113281 C570.10660156 381.16113281 569.44660156 381.16113281 568.76660156 381.16113281 C568.76660156 381.82113281 568.76660156 382.48113281 568.76660156 383.16113281 C567.39160156 384.78613281 567.39160156 384.78613281 565.76660156 386.16113281 C565.10660156 386.16113281 564.44660156 386.16113281 563.76660156 386.16113281 C563.76660156 386.82113281 563.76660156 387.48113281 563.76660156 388.16113281 C562.07385872 389.72546068 560.31090304 391.21441853 558.51660156 392.66113281 C557.54207031 393.45519531 556.56753906 394.24925781 555.56347656 395.06738281 C553.31765395 396.74861315 551.32002127 398.0424918 548.76660156 399.16113281 C548.76660156 399.82113281 548.76660156 400.48113281 548.76660156 401.16113281 C546.90162046 402.7018987 545.04081705 404.12866519 543.07910156 405.53613281 C538.48575613 408.88633442 538.48575613 408.88633442 534.05957031 412.45019531 C531.76660156 414.16113281 531.76660156 414.16113281 528.76660156 414.16113281 C528.76660156 414.82113281 528.76660156 415.48113281 528.76660156 416.16113281 C526.35932239 417.84048942 523.96020195 419.39189351 521.45410156 420.91113281 C520.71933594 421.36214355 519.98457031 421.8131543 519.22753906 422.27783203 C501.87428603 432.85769405 482.98194862 443.10291846 463.57519531 449.23535156 C461.02608457 450.07560086 458.60634016 451.04111249 456.14160156 452.09863281 C449.26246761 454.92858548 442.02722626 456.68036026 434.85302734 458.59545898 C432.89521679 459.12626253 430.94575042 459.68757579 428.99707031 460.25097656 C426.41709763 460.97786125 423.89616629 461.59844387 421.26660156 462.09863281 C418.27823136 462.67279774 415.29587733 463.25975567 412.31738281 463.88378906 C410.46693359 464.26857422 410.46693359 464.26857422 408.57910156 464.66113281 C407.45117188 464.89832031 406.32324219 465.13550781 405.16113281 465.37988281 C398.74335009 466.60041825 392.24424883 467.33643141 385.76660156 468.16113281 C384.66437256 468.30647461 383.56214355 468.45181641 382.42651367 468.6015625 C349.15651455 472.85148122 304.17615378 477.96431688 271.76660156 467.16113281 C268.93443142 466.88955485 266.10220729 466.71727288 263.26269531 466.54003906 C247.09031218 464.78727799 230.72328502 460.02484992 215.14160156 455.47363281 C214.48667725 455.28373779 213.83175293 455.09384277 213.15698242 454.89819336 C208.8801917 453.61241568 204.86596911 451.92001477 200.76660156 450.16113281 C198.77517117 449.54918285 196.77482703 448.96548672 194.76660156 448.41113281 C187.04244312 446.08767758 179.97456285 442.72966447 172.76660156 439.16113281 C171.68894531 438.63003906 170.61128906 438.09894531 169.50097656 437.55175781 C167.50935303 436.56105277 165.52091226 435.56391654 163.53613281 434.55957031 C161.74800335 433.65667843 159.95405276 432.76518227 158.15332031 431.88769531 C148.86789241 427.35328728 140.22707846 421.8780633 131.58789062 416.23242188 C128.71702551 414.36578896 125.87671571 412.60128419 122.76660156 411.16113281 C122.76660156 410.50113281 122.76660156 409.84113281 122.76660156 409.16113281 C122.19006836 409.05696045 121.61353516 408.95278809 121.01953125 408.84545898 C118.39780271 408.04911036 116.86003803 406.91572129 114.71972656 405.21191406 C113.95660156 404.61056641 113.19347656 404.00921875 112.40722656 403.38964844 C111.22386719 402.4412207 111.22386719 402.4412207 110.01660156 401.47363281 C108.45983583 400.23989597 106.90254776 399.00681792 105.34472656 397.77441406 C104.20874023 396.86876709 104.20874023 396.86876709 103.04980469 395.94482422 C100.15597729 393.68409892 97.18592222 391.53694656 94.19140625 389.41186523 C93.7212207 388.99912354 93.25103516 388.58638184 92.76660156 388.16113281 C92.76660156 387.50113281 92.76660156 386.84113281 92.76660156 386.16113281 C91.11660156 385.50113281 89.46660156 384.84113281 87.76660156 384.16113281 C87.76660156 383.50113281 87.76660156 382.84113281 87.76660156 382.16113281 C87.23550781 381.9484375 86.70441406 381.73574219 86.15722656 381.51660156 C82.84522998 379.63872115 80.25686087 377.08105517 77.51660156 374.47363281 C76.35339971 373.38026855 75.18934018 372.28781602 74.02441406 371.19628906 C73.46399414 370.6705127 72.90357422 370.14473633 72.32617188 369.60302734 C70.39396758 367.81661554 68.40131007 366.10953353 66.39160156 364.41113281 C63.901723 362.25992527 61.72414545 360.03370546 59.60253906 357.52050781 C55.5484984 352.83359412 51.18335199 348.50377669 46.76660156 344.16113281 C31.39555331 329.04798805 31.39555331 329.04798805 29.76660156 324.16113281 C29.10660156 324.16113281 28.44660156 324.16113281 27.76660156 324.16113281 C26.14550781 322.51660156 26.14550781 322.51660156 24.32910156 320.34863281 C21.79320824 317.33650016 21.79320824 317.33650016 19.04394531 314.52441406 C17.76660156 313.16113281 17.76660156 313.16113281 17.76660156 311.16113281 C16.77660156 310.83113281 15.78660156 310.50113281 14.76660156 310.16113281 C14.76660156 309.50113281 14.76660156 308.84113281 14.76660156 308.16113281 C14.10660156 308.16113281 13.44660156 308.16113281 12.76660156 308.16113281 C12.76660156 307.50113281 12.76660156 306.84113281 12.76660156 306.16113281 C12.10660156 306.16113281 11.44660156 306.16113281 10.76660156 306.16113281 C9.42016602 304.7956543 9.42016602 304.7956543 7.81738281 302.84472656 C3.14611073 297.35274381 -1.93978639 292.30860154 -7.04589844 287.22363281 C-8.00895757 286.25700379 -8.97184925 285.29020791 -9.93457031 284.32324219 C-10.84400391 283.41509766 -11.7534375 282.50695312 -12.69042969 281.57128906 C-13.51518799 280.74765869 -14.33994629 279.92402832 -15.18969727 279.07543945 C-17.08795778 277.11507761 -17.08795778 277.11507761 -19.23339844 276.16113281 C-19.23339844 275.50113281 -19.23339844 274.84113281 -19.23339844 274.16113281 C-20.22339844 273.83113281 -21.21339844 273.50113281 -22.23339844 273.16113281 C-22.23339844 272.50113281 -22.23339844 271.84113281 -22.23339844 271.16113281 C-22.9565625 270.91621094 -23.67972656 270.67128906 -24.42480469 270.41894531 C-27.56166331 269.01412129 -29.59993595 267.3099887 -32.17089844 265.03613281 C-41.62111694 257.13554691 -52.56460785 251.12161071 -64.23339844 247.16113281 C-64.88405273 246.93264648 -65.53470703 246.70416016 -66.20507812 246.46875 C-78.70952232 242.26265794 -91.10119339 241.65655742 -104.17089844 241.59863281 C-104.95995575 241.58996185 -105.74901306 241.58129089 -106.5619812 241.57235718 C-117.18877396 241.49131251 -126.12075276 242.66499317 -136.23339844 246.16113281 C-137.83680166 246.66357565 -139.44079197 247.16415805 -141.04589844 247.66113281 C-146.77528095 249.62062423 -152.23709718 252.12601364 -157.60839844 254.91113281 C-160.23339844 256.16113281 -160.23339844 256.16113281 -163.23339844 256.16113281 C-163.23339844 256.82113281 -163.23339844 257.48113281 -163.23339844 258.16113281 C-166.13888726 260.20282766 -167.63481889 261.16113281 -171.23339844 261.16113281 C-171.23339844 261.82113281 -171.23339844 262.48113281 -171.23339844 263.16113281 C-172.83066382 264.43297403 -174.48926738 265.62813722 -176.17089844 266.78613281 C-180.9204881 270.13661855 -185.22449441 273.71333879 -189.45605469 277.69238281 C-191.23339844 279.16113281 -191.23339844 279.16113281 -193.23339844 279.16113281 C-193.23339844 279.82113281 -193.23339844 280.48113281 -193.23339844 281.16113281 C-194.60839844 282.78613281 -194.60839844 282.78613281 -196.23339844 284.16113281 C-196.89339844 284.16113281 -197.55339844 284.16113281 -198.23339844 284.16113281 C-198.23339844 284.82113281 -198.23339844 285.48113281 -198.23339844 286.16113281 C-199.60839844 287.78613281 -199.60839844 287.78613281 -201.23339844 289.16113281 C-201.89339844 289.16113281 -202.55339844 289.16113281 -203.23339844 289.16113281 C-203.45898438 289.70511719 -203.68457031 290.24910156 -203.91699219 290.80957031 C-205.64563631 293.897534 -207.87889988 296.20568255 -210.29589844 298.78613281 C-213.6487349 302.20323034 -213.6487349 302.20323034 -216.23339844 306.16113281 C-216.89339844 306.16113281 -217.55339844 306.16113281 -218.23339844 306.16113281 C-218.51119141 306.74088867 -218.78898437 307.32064453 -219.07519531 307.91796875 C-220.98564284 311.61805135 -223.38585304 314.97777184 -225.73339844 318.41113281 C-226.23226562 319.15621094 -226.73113281 319.90128906 -227.24511719 320.66894531 C-227.7259375 321.37277344 -228.20675781 322.07660156 -228.70214844 322.80175781 C-229.13978516 323.44661133 -229.57742187 324.09146484 -230.02832031 324.75585938 C-230.62483398 325.45146973 -230.62483398 325.45146973 -231.23339844 326.16113281 C-231.89339844 326.16113281 -232.55339844 326.16113281 -233.23339844 326.16113281 C-233.50152344 326.80050781 -233.76964844 327.43988281 -234.04589844 328.09863281 C-235.23339844 330.16113281 -235.23339844 330.16113281 -238.23339844 331.16113281 C-238.56339844 332.15113281 -238.89339844 333.14113281 -239.23339844 334.16113281 C-250.67930938 342.13795641 -263.08368631 344.91128384 -276.79589844 342.53613281 C-283.51247662 340.8416396 -289.52032476 336.9698486 -295.23339844 333.16113281 C-295.23339844 332.50113281 -295.23339844 331.84113281 -295.23339844 331.16113281 C-295.89339844 331.16113281 -296.55339844 331.16113281 -297.23339844 331.16113281 C-297.23339844 330.50113281 -297.23339844 329.84113281 -297.23339844 329.16113281 C-298.22339844 328.83113281 -299.21339844 328.50113281 -300.23339844 328.16113281 C-307.88106476 318.74862041 -309.84769227 310.73288594 -309.54589844 298.66113281 C-309.53623047 297.47003906 -309.5265625 296.27894531 -309.51660156 295.05175781 C-309.40210145 286.32983582 -309.40210145 286.32983582 -308.23339844 285.16113281 C-307.57507972 282.07643941 -306.99170452 278.98651222 -306.42675781 275.88378906 C-305.70743875 272.08966055 -304.72444876 268.71351565 -303.23339844 265.16113281 C-302.78776707 263.46012529 -302.37331578 261.75076932 -301.98339844 260.03613281 C-300.6113816 254.40106367 -298.97172668 248.8789969 -297.23339844 243.34863281 C-296.98428711 242.5486084 -296.73517578 241.74858398 -296.47851562 240.92431641 C-294.97840174 236.20279153 -293.20731554 231.70994966 -291.23339844 227.16113281 C-290.2515962 224.48867668 -289.33956683 221.7933312 -288.42089844 219.09863281 C-284.53131328 207.91363839 -279.91680896 197.19233933 -274.43261719 186.68457031 C-273.38599877 184.4822397 -272.70835873 182.54152207 -272.23339844 180.16113281 C-271.57339844 180.16113281 -270.91339844 180.16113281 -270.23339844 180.16113281 C-270.12125 179.44570313 -270.00910156 178.73027344 -269.89355469 177.99316406 C-269.18883839 174.96997283 -268.10052046 172.59790593 -266.67089844 169.84863281 C-266.21585937 168.965625 -265.76082031 168.08261719 -265.29199219 167.17285156 C-264.94265625 166.50898437 -264.59332031 165.84511719 -264.23339844 165.16113281 C-263.57339844 165.16113281 -262.91339844 165.16113281 -262.23339844 165.16113281 C-262.12382812 164.60683594 -262.01425781 164.05253906 -261.90136719 163.48144531 C-260.52520795 158.7011027 -257.6811625 154.46309229 -255.23339844 150.16113281 C-254.68554688 149.19046875 -254.13769531 148.21980469 -253.57324219 147.21972656 C-253.04859375 146.31351563 -252.52394531 145.40730469 -251.98339844 144.47363281 C-251.50386719 143.64476562 -251.02433594 142.81589844 -250.53027344 141.96191406 C-250.10230469 141.36765625 -249.67433594 140.77339844 -249.23339844 140.16113281 C-248.57339844 140.16113281 -247.91339844 140.16113281 -247.23339844 140.16113281 C-247.23339844 139.17113281 -247.23339844 138.18113281 -247.23339844 137.16113281 C-246.57339844 137.16113281 -245.91339844 137.16113281 -245.23339844 137.16113281 C-244.85054687 136.0821875 -244.85054687 136.0821875 -244.45996094 134.98144531 C-243.1498432 131.96900899 -241.57638836 129.66273291 -239.60839844 127.03613281 C-237.37622367 124.04224877 -235.15508693 121.05037405 -232.99902344 118.00097656 C-231.93941406 116.50244141 -231.93941406 116.50244141 -230.85839844 114.97363281 C-230.21128906 114.05195312 -229.56417969 113.13027344 -228.89746094 112.18066406 C-228.34832031 111.51421875 -227.79917969 110.84777344 -227.23339844 110.16113281 C-226.57339844 110.16113281 -225.91339844 110.16113281 -225.23339844 110.16113281 C-224.9975 109.608125 -224.76160156 109.05511719 -224.51855469 108.48535156 C-219.67720138 99.72971259 -210.43124054 92.26583666 -203.42089844 85.22363281 C-202.70409912 84.50216064 -201.9872998 83.78068848 -201.2487793 83.03735352 C-190.33954263 72.16113281 -190.33954263 72.16113281 -187.23339844 72.16113281 C-187.23339844 71.50113281 -187.23339844 70.84113281 -187.23339844 70.16113281 C-184.91810165 68.23831078 -182.59523203 66.43788753 -180.17089844 64.66113281 C-179.44862061 64.12649414 -178.72634277 63.59185547 -177.98217773 63.04101562 C-162.22973033 51.47423324 -145.2198725 38.98447435 -126.78808594 32.25097656 C-124.07828831 31.09496198 -121.61810486 29.64457773 -119.07666016 28.16235352 C-116.12544792 26.55931757 -113.01117284 25.41817326 -109.85839844 24.28613281 C-109.1699585 24.03420166 -108.48151855 23.78227051 -107.7722168 23.52270508 C-106.32312255 22.99446625 -104.87282383 22.4695208 -103.42138672 21.94775391 C-101.28177677 21.17852569 -99.14621034 20.39880348 -97.01074219 19.61816406 C-81.42370036 13.96593903 -65.89876169 9.63602883 -49.59228516 6.60644531 C-47.42733513 6.19774433 -45.26971389 5.76392492 -43.11230469 5.31738281 C-34.71952325 3.6269938 -26.40653901 2.55752037 -17.88183594 1.80712891 C-17.07488281 1.73574707 -16.26792969 1.66436523 -15.43652344 1.59082031 C-14.72141602 1.5313623 -14.00630859 1.4719043 -13.26953125 1.41064453 C-11.27124742 1.22443631 -11.27124742 1.22443631 -9.55822754 0.65560913 C-6.35009313 -0.02674059 -3.27977036 0.01716839 0 0 Z M9.67089844 87.33300781 C7.03656064 87.53460541 4.40167368 87.72721432 1.76660156 87.91894531 C-17.38015548 89.23084148 -17.38015548 89.23084148 -36.10839844 93.16113281 C-43.86356838 95.347046 -43.86356838 95.347046 -47.79589844 96.16113281 C-56.45220679 98.02657545 -64.98099202 100.33687542 -72.99121094 104.14550781 C-77.29463918 106.09479587 -81.77894104 107.59582816 -86.23339844 109.16113281 C-86.23339844 109.82113281 -86.23339844 110.48113281 -86.23339844 111.16113281 C-86.96171875 111.28101563 -87.69003906 111.40089844 -88.44042969 111.52441406 C-95.92562208 113.23082855 -102.72622992 117.95103568 -109.20214844 121.92675781 C-111.23339844 123.16113281 -111.23339844 123.16113281 -113.23339844 124.16113281 C-113.23339844 124.82113281 -113.23339844 125.48113281 -113.23339844 126.16113281 C-113.80445313 126.25910156 -114.37550781 126.35707031 -114.96386719 126.45800781 C-117.70820034 127.30823151 -119.32466137 128.59626771 -121.54589844 130.41113281 C-124.40149007 132.71357176 -127.26394713 134.90919443 -130.29589844 136.97363281 C-131.26527344 137.69550781 -132.23464844 138.41738281 -133.23339844 139.16113281 C-133.23339844 139.82113281 -133.23339844 140.48113281 -133.23339844 141.16113281 C-133.79027344 141.38800781 -134.34714844 141.61488281 -134.92089844 141.84863281 C-137.89195029 143.53490548 -139.87861969 145.69148681 -142.23339844 148.16113281 C-146.81952819 152.85911939 -146.81952819 152.85911939 -149.54589844 154.84863281 C-150.10277344 155.28175781 -150.65964844 155.71488281 -151.23339844 156.16113281 C-151.23339844 156.82113281 -151.23339844 157.48113281 -151.23339844 158.16113281 C-149.44133296 158.02028486 -147.64974927 157.8732958 -145.85839844 157.72363281 C-144.86066406 157.64242187 -143.86292969 157.56121094 -142.83496094 157.47753906 C-140.25412231 157.31147655 -140.25412231 157.31147655 -138.23339844 156.16113281 C-136.11183721 155.95526703 -133.98571739 155.79498659 -131.85839844 155.66113281 C-127.6291295 155.46884461 -127.6291295 155.46884461 -123.5012207 154.65405273 C-120.27329165 153.9524499 -117.07163913 153.99845372 -113.78417969 153.99316406 C-113.05329636 153.98983566 -112.32241302 153.98650726 -111.56938171 153.983078 C-110.01688259 153.97801838 -108.4643726 153.97566938 -106.91186523 153.97583008 C-104.59892266 153.97368206 -102.28648855 153.95562565 -99.97363281 153.93652344 C-86.71882018 153.88518771 -73.49790186 154.64621828 -60.67089844 158.22363281 C-56.79310711 159.29295092 -53.06750079 160.23201663 -49.07324219 160.66503906 C-45.74051297 161.09561547 -43.38743268 161.68407255 -40.35839844 163.03613281 C-36.97263126 164.47975747 -33.65369349 165.67149524 -30.10839844 166.66113281 C-26.35098539 167.75462144 -23.01878271 169.09809837 -19.56542969 170.92675781 C-17.0783655 172.2431938 -14.56088059 173.49176848 -12.03808594 174.73803711 C-7.62479598 176.91986887 -3.22788814 179.09821016 1.01660156 181.59863281 C3.52927121 183.32580262 3.52927121 183.32580262 5.76660156 183.16113281 C5.76660156 183.82113281 5.76660156 184.48113281 5.76660156 185.16113281 C6.75660156 185.16113281 7.74660156 185.16113281 8.76660156 185.16113281 C8.76660156 185.82113281 8.76660156 186.48113281 8.76660156 187.16113281 C9.69472656 187.63550781 10.62285156 188.10988281 11.57910156 188.59863281 C16.3113208 191.26535472 20.29643083 194.81422819 24.41113281 198.33300781 C26.53298775 200.36550748 26.53298775 200.36550748 28.76660156 200.16113281 C28.76660156 200.82113281 28.76660156 201.48113281 28.76660156 202.16113281 C30.67695169 203.94319303 30.67695169 203.94319303 33.07910156 205.72363281 C33.87960937 206.34367187 34.68011719 206.96371094 35.50488281 207.60253906 C37.7662836 209.31543073 37.7662836 209.31543073 40.76660156 210.16113281 C41.09660156 211.15113281 41.42660156 212.14113281 41.76660156 213.16113281 C42.42660156 213.16113281 43.08660156 213.16113281 43.76660156 213.16113281 C43.76660156 213.82113281 43.76660156 214.48113281 43.76660156 215.16113281 C45.27921545 216.69598084 45.27921545 216.69598084 47.25878906 218.28613281 C51.68214645 222.0492004 55.79856601 226.0444381 59.89160156 230.16113281 C60.56835938 230.83402344 61.24511719 231.50691406 61.94238281 232.20019531 C65.15363426 235.41765808 68.2307704 238.66131408 71.13378906 242.16113281 C72.00261719 243.15113281 72.87144531 244.14113281 73.76660156 245.16113281 C74.42660156 245.16113281 75.08660156 245.16113281 75.76660156 245.16113281 C76.09660156 246.15113281 76.42660156 247.14113281 76.76660156 248.16113281 C77.42660156 248.16113281 78.08660156 248.16113281 78.76660156 248.16113281 C79.02562256 248.74233887 79.28464355 249.32354492 79.55151367 249.92236328 C80.85928551 252.3319007 82.31129395 254.0070239 84.20800781 255.98144531 C84.87380859 256.68140625 85.53960937 257.38136719 86.22558594 258.10253906 C86.91974609 258.823125 87.61390625 259.54371094 88.32910156 260.28613281 C89.70743987 261.72428821 91.08384114 263.16430337 92.45800781 264.60644531 C93.3736853 265.55801514 93.3736853 265.55801514 94.30786133 266.52880859 C95.76660156 268.16113281 95.76660156 268.16113281 96.76660156 270.16113281 C97.42660156 270.16113281 98.08660156 270.16113281 98.76660156 270.16113281 C98.76660156 270.82113281 98.76660156 271.48113281 98.76660156 272.16113281 C100.0999349 273.82779948 100.0999349 273.82779948 101.76660156 275.16113281 C102.42660156 275.16113281 103.08660156 275.16113281 103.76660156 275.16113281 C104.07404297 275.96164062 104.07404297 275.96164062 104.38769531 276.77832031 C106.34492803 280.16050715 109.02629806 282.59150769 111.82910156 285.28613281 C117.64666913 290.92126795 117.64666913 290.92126795 118.76660156 293.16113281 C119.42660156 293.16113281 120.08660156 293.16113281 120.76660156 293.16113281 C120.76660156 293.82113281 120.76660156 294.48113281 120.76660156 295.16113281 C122.28380139 296.69570648 122.28380139 296.69570648 124.26660156 298.28613281 C128.11652496 301.54007163 131.62724491 305.00885999 135.10253906 308.65722656 C136.6400784 310.38463375 136.6400784 310.38463375 138.76660156 310.16113281 C138.76660156 310.82113281 138.76660156 311.48113281 138.76660156 312.16113281 C140.4593444 313.72546068 142.22230009 315.21441853 144.01660156 316.66113281 C144.99113281 317.45519531 145.96566406 318.24925781 146.96972656 319.06738281 C149.21554918 320.74861315 151.21318186 322.0424918 153.76660156 323.16113281 C153.76660156 323.82113281 153.76660156 324.48113281 153.76660156 325.16113281 C155.50208325 326.60640017 157.30636119 327.96985502 159.14160156 329.28613281 C160.63820313 330.3728125 160.63820313 330.3728125 162.16503906 331.48144531 C164.53052395 333.34193753 164.53052395 333.34193753 166.76660156 333.16113281 C166.76660156 333.82113281 166.76660156 334.48113281 166.76660156 335.16113281 C169.98774313 337.47705304 169.98774313 337.47705304 173.76660156 338.16113281 C173.76660156 338.82113281 173.76660156 339.48113281 173.76660156 340.16113281 C174.71535156 340.69738281 175.66410156 341.23363281 176.64160156 341.78613281 C178.9072059 343.0715165 181.13766781 344.39094726 183.35253906 345.76269531 C184.23167969 346.30667969 185.11082031 346.85066406 186.01660156 347.41113281 C186.84675781 347.93191406 187.67691406 348.45269531 188.53222656 348.98925781 C190.78888966 350.39336769 190.78888966 350.39336769 193.76660156 350.16113281 C193.76660156 350.82113281 193.76660156 351.48113281 193.76660156 352.16113281 C202.30738025 356.52689065 210.76475154 360.81683317 219.76660156 364.16113281 C220.94351562 364.62132812 222.12042969 365.08152344 223.33300781 365.55566406 C239.19787642 371.72215093 254.99371359 375.86332014 271.76806641 378.75976562 C273.76660156 379.16113281 273.76660156 379.16113281 276.76660156 380.16113281 C278.90947686 380.36228929 281.05614041 380.52459953 283.20410156 380.66113281 C289.33958995 381.05201717 289.33958995 381.05201717 291.70800781 381.65722656 C313.38813162 386.96412594 350.19509526 386.68554296 371.76660156 381.16113281 C373.84781888 380.98769804 375.93168106 380.84467678 378.01660156 380.72363281 C382.31291373 380.41437446 386.27096911 379.94978189 390.42675781 378.75488281 C393.06865167 378.08448571 395.7301465 377.61901529 398.41455078 377.15307617 C405.11133909 375.98405494 411.42090955 374.48582861 417.84082031 372.19238281 C420.95652939 371.09418896 424.09755709 370.15592585 427.26660156 369.22363281 C442.54447215 364.52972002 456.94346547 357.1207665 470.76660156 349.16113281 C471.45753906 348.76796875 472.14847656 348.37480469 472.86035156 347.96972656 C474.49788764 347.03724074 476.13260698 346.09981055 477.76660156 345.16113281 C477.76660156 344.50113281 477.76660156 343.84113281 477.76660156 343.16113281 C478.55035156 342.85175781 479.33410156 342.54238281 480.14160156 342.22363281 C482.68990284 341.23238243 482.68990284 341.23238243 484.76660156 340.16113281 C484.76660156 339.50113281 484.76660156 338.84113281 484.76660156 338.16113281 C485.30285156 337.91363281 485.83910156 337.66613281 486.39160156 337.41113281 C489.34899976 335.85460745 492.06384207 334.12677608 494.76660156 332.16113281 C494.76660156 331.50113281 494.76660156 330.84113281 494.76660156 330.16113281 C495.34410156 329.89300781 495.92160156 329.62488281 496.51660156 329.34863281 C498.82210199 328.13184092 500.78716349 326.85779402 502.76660156 325.16113281 C502.76660156 324.50113281 502.76660156 323.84113281 502.76660156 323.16113281 C503.75660156 322.83113281 504.74660156 322.50113281 505.76660156 322.16113281 C505.76660156 321.50113281 505.76660156 320.84113281 505.76660156 320.16113281 C506.42660156 320.16113281 507.08660156 320.16113281 507.76660156 320.16113281 C507.76660156 319.50113281 507.76660156 318.84113281 507.76660156 318.16113281 C508.75660156 317.83113281 509.74660156 317.50113281 510.76660156 317.16113281 C510.76660156 316.50113281 510.76660156 315.84113281 510.76660156 315.16113281 C511.42660156 315.16113281 512.08660156 315.16113281 512.76660156 315.16113281 C513.42660156 313.84113281 514.08660156 312.52113281 514.76660156 311.16113281 C513.50847656 311.44988281 512.25035156 311.73863281 510.95410156 312.03613281 C509.22495481 312.41122465 507.49578732 312.78622086 505.76660156 313.16113281 C505.01636719 313.3403125 504.26613281 313.51949219 503.49316406 313.70410156 C489.42732033 316.7312168 474.0985236 316.53402219 459.76660156 316.16113281 C459.00025391 316.14324707 458.23390625 316.12536133 457.44433594 316.10693359 C441.27627579 315.68582632 426.41808391 313.29773806 410.76660156 309.16113281 C409.51492188 308.85175781 408.26324219 308.54238281 406.97363281 308.22363281 C400.91643151 306.7078354 395.15433187 305.2051465 389.66503906 302.17285156 C384.33269616 299.33112973 378.71506008 297.20713173 372.76660156 296.16113281 C372.76660156 295.50113281 372.76660156 294.84113281 372.76660156 294.16113281 C372.08597656 293.855625 371.40535156 293.55011719 370.70410156 293.23535156 C360.3656412 288.35482839 350.76063389 282.07804822 341.91894531 274.82519531 C339.95632658 272.95724888 339.95632658 272.95724888 337.76660156 273.16113281 C337.76660156 272.50113281 337.76660156 271.84113281 337.76660156 271.16113281 C336.11829333 269.64142662 336.11829333 269.64142662 334.01660156 268.16113281 C332.97246094 267.38769531 332.97246094 267.38769531 331.90722656 266.59863281 C329.91558535 265.26118032 327.93632233 264.17757858 325.76660156 263.16113281 C325.76660156 262.50113281 325.76660156 261.84113281 325.76660156 261.16113281 C322.28661649 257.52479742 322.28661649 257.52479742 317.76660156 256.16113281 C317.76660156 255.50113281 317.76660156 254.84113281 317.76660156 254.16113281 C316.43326823 252.49446615 316.43326823 252.49446615 314.76660156 251.16113281 C314.10660156 251.16113281 313.44660156 251.16113281 312.76660156 251.16113281 C312.76660156 250.50113281 312.76660156 249.84113281 312.76660156 249.16113281 C311.43326823 247.49446615 311.43326823 247.49446615 309.76660156 246.16113281 C309.10660156 246.16113281 308.44660156 246.16113281 307.76660156 246.16113281 C307.76660156 245.50113281 307.76660156 244.84113281 307.76660156 244.16113281 C306.43326823 242.49446615 306.43326823 242.49446615 304.76660156 241.16113281 C304.10660156 241.16113281 303.44660156 241.16113281 302.76660156 241.16113281 C302.76660156 240.50113281 302.76660156 239.84113281 302.76660156 239.16113281 C301.43326823 237.49446615 301.43326823 237.49446615 299.76660156 236.16113281 C299.10660156 236.16113281 298.44660156 236.16113281 297.76660156 236.16113281 C297.76660156 235.50113281 297.76660156 234.84113281 297.76660156 234.16113281 C296.43326823 232.49446615 296.43326823 232.49446615 294.76660156 231.16113281 C294.10660156 231.16113281 293.44660156 231.16113281 292.76660156 231.16113281 C292.53328125 230.59910156 292.29996094 230.03707031 292.05957031 229.45800781 C290.4472308 226.59379139 288.44724536 224.6886126 286.07910156 222.41113281 C280.83133013 217.26937696 275.94018073 211.98091119 271.45410156 206.16113281 C270.61878906 205.17113281 270.61878906 205.17113281 269.76660156 204.16113281 C269.10660156 204.16113281 268.44660156 204.16113281 267.76660156 204.16113281 C267.37601563 203.27748047 267.37601563 203.27748047 266.97753906 202.37597656 C265.69237682 200.02537337 264.33173339 198.55786225 262.39160156 196.72363281 C260.20644934 194.6157105 258.34270089 192.62266439 256.45410156 190.22363281 C255.89722656 189.54300781 255.34035156 188.86238281 254.76660156 188.16113281 C254.10660156 188.16113281 253.44660156 188.16113281 252.76660156 188.16113281 C252.76660156 187.50113281 252.76660156 186.84113281 252.76660156 186.16113281 C252.10660156 186.16113281 251.44660156 186.16113281 250.76660156 186.16113281 C250.43660156 185.17113281 250.10660156 184.18113281 249.76660156 183.16113281 C249.10660156 183.16113281 248.44660156 183.16113281 247.76660156 183.16113281 C247.76660156 182.50113281 247.76660156 181.84113281 247.76660156 181.16113281 C247.10660156 181.16113281 246.44660156 181.16113281 245.76660156 181.16113281 C245.51910156 180.58363281 245.27160156 180.00613281 245.01660156 179.41113281 C243.58360168 176.83173302 241.9823548 175.09991689 239.76660156 173.16113281 C239.10660156 173.16113281 238.44660156 173.16113281 237.76660156 173.16113281 C237.76660156 172.50113281 237.76660156 171.84113281 237.76660156 171.16113281 C237.10660156 171.16113281 236.44660156 171.16113281 235.76660156 171.16113281 C235.43660156 170.17113281 235.10660156 169.18113281 234.76660156 168.16113281 C234.10660156 168.16113281 233.44660156 168.16113281 232.76660156 168.16113281 C232.76660156 167.50113281 232.76660156 166.84113281 232.76660156 166.16113281 C232.10660156 166.16113281 231.44660156 166.16113281 230.76660156 166.16113281 C230.43660156 165.17113281 230.10660156 164.18113281 229.76660156 163.16113281 C229.10660156 163.16113281 228.44660156 163.16113281 227.76660156 163.16113281 C227.76660156 162.50113281 227.76660156 161.84113281 227.76660156 161.16113281 C224.28661649 157.52479742 224.28661649 157.52479742 219.76660156 156.16113281 C219.76660156 155.50113281 219.76660156 154.84113281 219.76660156 154.16113281 C217.59395501 152.11657222 217.59395501 152.11657222 214.89160156 150.03613281 C213.98667969 149.31167969 213.08175781 148.58722656 212.14941406 147.84082031 C209.98004345 145.96908047 209.98004345 145.96908047 207.76660156 146.16113281 C207.76660156 145.50113281 207.76660156 144.84113281 207.76660156 144.16113281 C206.03111987 142.71586545 204.22684193 141.35241061 202.39160156 140.03613281 C200.895 138.94945312 200.895 138.94945312 199.36816406 137.84082031 C197.00267918 135.98032809 197.00267918 135.98032809 194.76660156 136.16113281 C194.76660156 135.50113281 194.76660156 134.84113281 194.76660156 134.16113281 C192.58908978 132.56335758 192.58908978 132.56335758 189.89160156 131.03613281 C188.53421875 130.22789062 188.53421875 130.22789062 187.14941406 129.40332031 C184.91888134 128.00704351 184.91888134 128.00704351 182.76660156 128.16113281 C182.76660156 127.50113281 182.76660156 126.84113281 182.76660156 126.16113281 C178.96232664 123.95974621 178.96232664 123.95974621 174.76660156 123.16113281 C174.76660156 122.50113281 174.76660156 121.84113281 174.76660156 121.16113281 C174.23292969 120.90944336 173.69925781 120.65775391 173.14941406 120.3984375 C170.68803039 119.23694547 168.22731358 118.07404708 165.76660156 116.91113281 C164.50783203 116.31751953 164.50783203 116.31751953 163.22363281 115.71191406 C159.30397722 113.85843351 155.40061919 111.98670674 151.53613281 110.02050781 C148.2421704 108.36319941 144.90814457 106.9602392 141.45410156 105.66113281 C139.78154297 105.03078125 139.78154297 105.03078125 138.07519531 104.38769531 C136.98335938 103.98292969 135.89152344 103.57816406 134.76660156 103.16113281 C133.29900391 102.61585938 133.29900391 102.61585938 131.80175781 102.05957031 C129.12831979 101.07718495 126.45424564 100.10403557 123.76660156 99.16113281 C123.11804199 98.92700684 122.46948242 98.69288086 121.80126953 98.45166016 C116.07238295 96.44686567 110.35253029 95.14658898 104.39160156 94.03613281 C102.63347202 93.70185854 100.87564453 93.36599054 99.11816406 93.02832031 C97.97081787 92.81344971 97.97081787 92.81344971 96.80029297 92.59423828 C94.76660156 92.16113281 94.76660156 92.16113281 91.76660156 91.16113281 C89.93643605 90.96268113 88.10230242 90.79930385 86.26660156 90.66113281 C83.16066314 90.4273525 80.73439434 90.15039707 77.76660156 89.16113281 C74.87932716 88.86854833 72.00365712 88.61927256 69.11035156 88.40722656 C68.25284302 88.34205338 67.39533447 88.27688019 66.51184082 88.20973206 C64.69293244 88.07256709 62.87387552 87.93736006 61.0546875 87.80395508 C58.30453408 87.60142627 55.55511558 87.39053042 52.80566406 87.17871094 C38.23826874 86.07648399 24.23085824 86.21383869 9.67089844 87.33300781 Z " fill="#405230" transform="translate(309.2333984375,596.8388671875)"/>
</svg>