<?xml version="1.0" encoding="UTF-8"?>
<!-- Generator: Adobe Illustrator 27.8.1, SVG Export Plug-In . SVG Version: 6.00 Build 0)  -->
<svg xmlns="http://www.w3.org/2000/svg" xmlns:xlink="http://www.w3.org/1999/xlink" version="1.1" id="Layer_1" x="0px" y="0px" width="300px" height="204.4px" viewBox="0 0 300 204.4" style="enable-background:new 0 0 300 204.4;" xml:space="preserve">
<path style="fill:#253E8A;" d="M214.2,48.6c0-23.9-29.7-43.4-66.3-43.4c-36.6,0-66.3,19.5-66.3,43.4c0,0.6,0,2.3,0,2.5  c0,25.4,26,45.9,66.3,45.9c40.6,0,66.3-20.5,66.3-45.9C214.2,50.2,214.2,49.7,214.2,48.6z"></path>
<path style="fill:#00ADEE;" d="M211.7,48.6c0,22.5-28.6,40.8-63.8,40.8c-35.2,0-63.8-18.3-63.8-40.8c0-22.5,28.6-40.8,63.8-40.8  C183.1,7.7,211.7,26,211.7,48.6z"></path>
<g>
	<path style="fill:#FFFFFF;" d="M126.7,35.7c0,0.1-0.7,0.7-0.3,1.3c1,1.3,4.1,2,7.3,1.3c1.9-0.4,4.3-2.3,6.6-4.2c2.5-2,5-4,7.5-4.8   c2.7-0.8,4.4-0.5,5.5-0.1c1.2,0.4,2.7,1.2,5,2.9c4.4,3.3,21.9,18.6,24.9,21.2c2.4-1.1,13.3-5.8,28-9c-1.3-7.9-6.1-15.1-13.3-20.9   c-10.1,4.2-22.5,6.5-34.5,0.6c-0.1,0-6.6-3.1-13.1-3c-9.6,0.2-13.7,4.4-18.1,8.8L126.7,35.7z"></path>
	<path style="fill:#FFFFFF;" d="M182.6,55c-0.2-0.2-20.6-18.1-25.3-21.5c-2.7-2-4.2-2.5-5.7-2.7c-0.8-0.1-1.9,0-2.7,0.3   c-2.2,0.6-5,2.5-7.5,4.5c-2.6,2.1-5,4-7.3,4.5c-2.9,0.6-6.4-0.1-8-1.2c-0.7-0.4-1.1-0.9-1.3-1.5c-0.6-1.4,0.5-2.5,0.7-2.7l5.6-6.1   c0.7-0.7,1.3-1.3,2-2c-1.8,0.2-3.5,0.7-5.1,1.2c-2,0.6-4,1.1-6,1.1c-0.8,0-5.3-0.7-6.1-1c-5.1-1.4-9.6-2.8-16.3-5.9   c-8,6-13.4,13.4-14.9,21.6c1.2,0.3,3,0.9,3.8,1c18.1,4,23.8,8.2,24.8,9.1c1.1-1.2,2.7-2,4.5-2c2,0,3.8,1,4.9,2.6   c1-0.8,2.5-1.5,4.3-1.5c0.8,0,1.7,0.2,2.6,0.5c2,0.7,3.1,2.1,3.7,3.3c0.7-0.3,1.5-0.5,2.5-0.5c1,0,2,0.2,3,0.7   c3.3,1.4,3.9,4.7,3.6,7.2c0.2,0,0.5,0,0.7,0c4,0,7.2,3.2,7.2,7.2c0,1.2-0.3,2.4-0.9,3.4c1.1,0.6,3.8,2,6.2,1.7   c1.9-0.2,2.7-0.9,2.9-1.3c0.2-0.3,0.4-0.6,0.2-0.8l-5.1-5.7c0,0-0.8-0.8-0.6-1.1c0.3-0.3,0.8,0.1,1.2,0.4c2.6,2.2,5.8,5.5,5.8,5.5   c0.1,0,0.3,0.5,1.4,0.7c1,0.2,2.8,0.1,4-0.9c0.3-0.3,0.6-0.6,0.9-0.9c0,0,0,0-0.1,0c1.3-1.7-0.1-3.4-0.1-3.4l-6-6.7   c0,0-0.9-0.8-0.6-1.1c0.3-0.3,0.8,0.1,1.2,0.5c1.9,1.6,4.6,4.3,7.1,6.8c0.5,0.4,2.8,1.8,5.7-0.2c1.8-1.2,2.2-2.6,2.1-3.7   c-0.1-1.5-1.3-2.5-1.3-2.5l-8.2-8.2c0,0-0.9-0.7-0.6-1.1c0.2-0.3,0.8,0.1,1.2,0.4c2.6,2.2,9.6,8.6,9.6,8.6c0.1,0.1,2.5,1.8,5.5-0.1   c1.1-0.7,1.8-1.7,1.8-2.9C184.1,56.2,182.6,55,182.6,55z"></path>
	<path style="fill:#FFFFFF;" d="M143,65.4c-1.3,0-2.6,0.7-2.8,0.6c-0.1-0.1,0.1-0.6,0.2-0.9c0.1-0.3,1.8-5.3-2.3-7   c-3.1-1.3-5,0.2-5.7,0.8c-0.2,0.2-0.2,0.2-0.3-0.1c-0.1-0.9-0.5-3.3-3.1-4.2c-3.8-1.2-6.3,1.5-6.9,2.5c-0.3-2.2-2.1-3.9-4.4-3.9   c-2.5,0-4.5,2-4.5,4.4c0,2.5,2,4.5,4.5,4.5c1.2,0,2.3-0.5,3.1-1.2c0,0,0,0.1,0,0.2c-0.2,1.1-0.5,5.1,3.7,6.7   c1.7,0.7,3.1,0.2,4.3-0.7c0.4-0.2,0.4-0.1,0.4,0.2c-0.2,1,0,3.2,3.1,4.5c2.3,1,3.7,0,4.7-0.9c0.4-0.4,0.5-0.3,0.5,0.3   c0.1,3,2.6,5.3,5.6,5.3c3.1,0,5.6-2.5,5.6-5.6C148.6,67.9,146.1,65.4,143,65.4z"></path>
</g>
<path style="fill:#253E8A;" d="M183.4,52.8c-6.3-5.5-20.8-18.1-24.8-21.1c-2.3-1.7-3.8-2.6-5.1-3c-0.6-0.2-1.4-0.4-2.5-0.4  c-1,0-2.1,0.2-3.2,0.5c-2.5,0.8-5.1,2.8-7.5,4.8l-0.1,0.1c-2.3,1.8-4.6,3.7-6.4,4.1c-0.8,0.2-1.6,0.3-2.4,0.3c-2,0-3.8-0.6-4.5-1.4  c-0.1-0.1,0-0.4,0.2-0.7l0,0l5.5-6c4.3-4.3,8.4-8.4,17.9-8.6c0.2,0,0.3,0,0.5,0c5.9,0,11.7,2.6,12.4,2.9c5.5,2.7,11.2,4,16.9,4.1  c6,0,12.1-1.5,18.5-4.4c-0.7-0.6-1.5-1.2-2.2-1.8c-5.7,2.5-11.1,3.7-16.3,3.7c-5.3,0-10.6-1.3-15.8-3.8c-0.3-0.1-6.7-3.2-13.5-3.2  c-0.2,0-0.4,0-0.5,0c-7.9,0.2-12.4,3-15.4,5.5c-2.9,0.1-5.4,0.8-7.7,1.4c-2,0.6-3.7,1-5.4,1c-0.7,0-1.9-0.1-2.1-0.1  c-1.9-0.1-11.7-2.5-19.4-5.4c-0.8,0.6-1.6,1.1-2.3,1.7c8.1,3.3,18,5.9,21.1,6.1c0.9,0.1,1.8,0.2,2.7,0.2c2.1,0,4.1-0.6,6.1-1.1  c1.2-0.3,2.5-0.7,3.8-0.9c-0.4,0.4-0.7,0.7-1.1,1.1l-5.6,6.1c-0.4,0.4-1.4,1.6-0.8,3.1c0.3,0.6,0.8,1.2,1.5,1.6  c1.3,0.9,3.7,1.5,6,1.5c0.8,0,1.6-0.1,2.4-0.2c2.4-0.5,4.8-2.5,7.5-4.6c2.1-1.7,5.1-3.8,7.3-4.4c0.6-0.2,1.4-0.3,2-0.3  c0.2,0,0.4,0,0.5,0c1.5,0.2,3,0.7,5.5,2.6c4.6,3.5,25,21.3,25.2,21.5c0,0,1.3,1.1,1.2,3c0,1-0.6,2-1.6,2.6c-0.9,0.6-1.8,0.8-2.7,0.8  c-1.4,0-2.3-0.6-2.4-0.7c-0.1-0.1-7.1-6.5-9.7-8.6c-0.4-0.3-0.8-0.6-1.2-0.6c-0.2,0-0.4,0.1-0.5,0.3c-0.4,0.5,0,1.2,0.6,1.6l8.2,8.2  c0,0,1,1,1.1,2.2c0.1,1.4-0.6,2.5-1.9,3.4c-1,0.6-1.9,1-2.9,1c-1.3,0-2.1-0.6-2.3-0.7l-1.2-1.2c-2.1-2.1-4.4-4.3-6-5.6  c-0.4-0.3-0.8-0.6-1.2-0.6c-0.2,0-0.4,0.1-0.5,0.2c-0.2,0.2-0.3,0.6,0.1,1.2c0.2,0.3,0.4,0.5,0.4,0.5l6,6.7c0,0.1,1.2,1.5,0.1,2.9  l-0.2,0.3c-0.2,0.2-0.4,0.4-0.6,0.5c-1,0.8-2.4,0.9-2.9,0.9c-0.3,0-0.6,0-0.8-0.1c-0.6-0.1-1-0.3-1.2-0.5l-0.1-0.1  c-0.3-0.3-3.3-3.4-5.8-5.5c-0.3-0.3-0.7-0.6-1.2-0.6c-0.2,0-0.4,0.1-0.5,0.2c-0.5,0.5,0.2,1.3,0.6,1.6l5.1,5.6c0,0-0.1,0.2-0.2,0.3  c-0.2,0.3-0.8,0.9-2.6,1.1c-0.2,0-0.5,0-0.7,0c-1.9,0-3.9-0.9-5-1.5c0.5-1,0.7-2.1,0.7-3.2c0-4.2-3.4-7.6-7.6-7.6  c-0.1,0-0.2,0-0.3,0c0.1-1.9-0.1-5.5-3.9-7.1c-1.1-0.5-2.1-0.7-3.2-0.7c-0.8,0-1.6,0.1-2.3,0.4c-0.8-1.5-2-2.6-3.7-3.2  c-0.9-0.3-1.8-0.5-2.7-0.5c-1.5,0-3,0.5-4.2,1.4c-1.2-1.5-3.1-2.4-5-2.4c-1.7,0-3.3,0.7-4.5,1.9c-1.6-1.2-7.9-5.2-24.7-9  c-0.8-0.2-2.7-0.7-3.8-1.1c-0.2,0.9-0.3,1.8-0.4,2.8c0,0,3.1,0.7,3.7,0.9c17.2,3.8,22.9,7.8,23.8,8.5c-0.3,0.8-0.5,1.6-0.5,2.5  c0,3.5,2.9,6.4,6.4,6.4c0.4,0,0.8,0,1.2-0.1c0.5,2.6,2.2,4.6,4.9,5.6c0.8,0.3,1.5,0.4,2.3,0.4c0.5,0,1-0.1,1.5-0.2  c0.5,1.2,1.6,2.8,4,3.7c0.9,0.3,1.7,0.5,2.5,0.5c0.7,0,1.3-0.1,2-0.3c1.2,2.8,3.9,4.7,7,4.7c2,0,4-0.8,5.4-2.3  c1.2,0.7,3.8,1.9,6.4,1.9c0.3,0,0.7,0,1-0.1c2.6-0.3,3.8-1.3,4.4-2.1c0.1-0.1,0.2-0.3,0.3-0.4c0.6,0.2,1.3,0.3,2.1,0.3  c1.4,0,2.8-0.5,4.2-1.5c1.4-1,2.3-2.4,2.5-3.6c0,0,0,0,0-0.1c0.5,0.1,0.9,0.1,1.4,0.1c1.5,0,2.9-0.5,4.3-1.4c2.6-1.7,3.1-4,3.1-5.5  c0.5,0.1,0.9,0.1,1.4,0.1c1.4,0,2.7-0.4,4-1.2c1.6-1,2.6-2.7,2.8-4.5c0.1-1.3-0.2-2.6-0.9-3.7c4.4-1.9,14.6-5.6,26.5-8.3  c-0.1-0.9-0.2-1.8-0.4-2.8C196.9,47,186.1,51.6,183.4,52.8z M143,76.2c-2.8,0-5.1-2.2-5.2-5c0-0.2,0-0.9-0.6-0.9  c-0.2,0-0.4,0.1-0.6,0.3c-0.6,0.6-1.4,1.2-2.5,1.2c-0.5,0-1.1-0.1-1.7-0.4c-3-1.2-3-3.2-2.9-4.1c0-0.2,0-0.4-0.1-0.6l-0.2-0.2H129  c-0.2,0-0.3,0.1-0.5,0.2c-0.9,0.6-1.7,0.9-2.5,0.9c-0.5,0-0.9-0.1-1.4-0.3c-3.9-1.5-3.6-5.2-3.4-6.3c0-0.2,0-0.4-0.2-0.5l-0.3-0.2  l-0.3,0.2c-0.8,0.7-1.8,1.1-2.8,1.1c-2.2,0-4.1-1.8-4-4.1c0-2.2,1.8-4,4.1-4c2,0,3.7,1.5,4,3.5l0.1,1.1l0.6-0.9  c0.1-0.1,1.7-2.6,4.7-2.6c0.6,0,1.2,0.1,1.8,0.3c2.4,0.7,2.8,2.9,2.9,3.8c0,0.5,0.4,0.6,0.5,0.6c0.2,0,0.4-0.1,0.5-0.2  c0.5-0.5,1.4-1.3,3-1.3c0.7,0,1.5,0.2,2.2,0.5c3.8,1.6,2.1,6.5,2.1,6.5c-0.3,0.8-0.3,1.2,0,1.4l0.1,0.1h0.1c0.2,0,0.4-0.1,0.7-0.2  c0.5-0.2,1.3-0.4,2-0.4h0c2.9,0,5.2,2.4,5.2,5.2C148.2,73.8,145.9,76.2,143,76.2z"></path>
<path style="fill:#FFFCF8;" d="M248.7,122.9c-2.4-3-6-4.5-10.9-4.5c-4.9,0-8.5,1.5-10.9,4.5c-2.4,3-3.6,6.5-3.6,10.6  c0,4.2,1.2,7.7,3.6,10.7c2.4,3,6,4.4,10.9,4.4c4.9,0,8.5-1.5,10.9-4.4c2.4-3,3.6-6.5,3.6-10.7C252.3,129.5,251.1,125.9,248.7,122.9z   M242.8,140.1c-1.2,1.5-2.8,2.3-5,2.3c-2.2,0-3.8-0.8-5-2.3c-1.2-1.5-1.8-3.7-1.8-6.6c0-2.8,0.6-5,1.8-6.6c1.2-1.5,2.8-2.3,5-2.3  c2.2,0,3.8,0.8,5,2.3c1.2,1.5,1.7,3.7,1.7,6.6C244.6,136.4,244,138.6,242.8,140.1z"></path>
<path style="fill:#FFFCF8;" d="M187.5,120.4c-2.4-1.2-5.2-1.9-8.3-1.9c-4.8,0-8.2,1.3-10.2,3.8c-1.2,1.6-1.9,3.6-2.1,6.1h7.2  c0.2-1.1,0.5-2,1.1-2.6c0.7-0.9,2-1.3,3.8-1.3c1.6,0,2.8,0.2,3.6,0.7c0.8,0.4,1.2,1.2,1.2,2.4c0,1-0.5,1.7-1.6,2.1  c-0.6,0.3-1.6,0.5-3,0.7l-2.5,0.3c-2.9,0.4-5.1,1-6.6,1.8c-2.7,1.6-4.1,4.1-4.1,7.6c0,2.7,0.8,4.8,2.5,6.3c1.7,1.5,3.8,2.1,6.4,2.2  c16.2,0.7,16.1-8.6,16.2-10.5v-10.7C191.2,124,190,121.7,187.5,120.4z M183.8,136.6c0,2.5-0.8,4.2-2.1,5.1c-1.4,0.9-2.9,1.4-4.5,1.4  c-1,0-1.9-0.3-2.6-0.8c-0.7-0.6-1.1-1.5-1.1-2.8c0-1.4,0.6-2.5,1.8-3.2c0.7-0.4,1.8-0.7,3.4-1l1.7-0.3c0.8-0.2,1.5-0.3,2-0.5  c0.5-0.2,1-0.4,1.4-0.7V136.6z"></path>
<path style="fill:#FFFCF8;" d="M150.5,124.9c1.9,0,3.2,0.6,4.1,1.7c0.6,0.8,1,1.8,1.1,2.9h8c-0.4-4-1.9-6.9-4.2-8.5  c-2.4-1.6-5.5-2.4-9.2-2.4c-4.4,0-7.9,1.4-10.4,4.1c-2.5,2.7-3.8,6.5-3.8,11.4c0,4.3,1.1,7.8,3.4,10.5c2.3,2.7,5.8,4.1,10.6,4.1  c4.8,0,8.5-1.6,10.9-4.9c1.5-2,2.4-4.1,2.6-6.4h-8c-0.2,1.5-0.6,2.7-1.4,3.6c-0.8,0.9-2.1,1.4-3.9,1.4c-2.6,0-4.3-1.2-5.3-3.5  c-0.5-1.3-0.8-2.9-0.8-5c0-2.2,0.3-3.9,0.8-5.2C146.1,126.2,147.9,124.9,150.5,124.9z"></path>
<path style="fill:#FFFCF8;" d="M134,118.7c-16.5,0-15.5,14.6-15.5,14.6V148h7.5v-13.9c0-2.3,0.3-4,0.9-5.1c1-1.9,3-2.9,6-2.9  c0.2,0,0.5,0,0.9,0c0.4,0,0.8,0,1.3,0.1v-7.6c-0.3,0-0.5,0-0.6,0C134.3,118.7,134.1,118.7,134,118.7z"></path>
<path style="fill:#FFFCF8;" d="M106.6,140.3c-0.3,0.4-0.7,0.8-1,1.1c-1.1,0.9-2.5,1.1-4.2,1.1c-1.6,0-2.8-0.2-4-1  c-1.9-1.1-2.9-3.1-3-5.9H115c0-2.4,0-4.3-0.2-5.6c-0.3-2.2-1.1-4.2-2.3-5.9c-1.3-1.9-2.9-3.3-4.9-4.2c-2-0.9-4.2-1.3-6.7-1.3  c-4.2,0-7.5,1.3-10.1,3.9c-2.6,2.6-3.9,6.4-3.9,11.3c0,5.2,1.4,9,4.3,11.4c2.9,2.3,6.2,3.5,10,3.5c4.6,0,8.1-1.4,10.7-4.1  c1.4-1.5,2.2-2.9,2.6-4.3H106.6z M96.5,126.4c1-1.1,2.5-1.6,4.4-1.6c1.8,0,3.2,0.5,4.4,1.5c1.2,1,1.8,2.5,2,4.5H94.5  C94.8,128.9,95.5,127.5,96.5,126.4z"></path>
<g>
	<path style="fill:#FFFCF8;" d="M83.9,148h-6.8v-17.2c0-1.6-0.5-5.3-5-5.3c-3,0-5.2,2.2-5.2,5.3V148h-6.8v-17.2c0-1.6-0.5-5.3-5-5.3   c-3.1,0-5.2,2.2-5.2,5.3V148h-6.8v-17c0-7.1,4.7-12.5,12-12.5c3.6,0,6.6,1.5,8.5,4c2-2.4,5-4,8.5-4c7.4,0,11.8,5.1,11.8,12.5V148z"></path>
</g>
<path style="fill:#FFFCF8;" d="M221.1,109.7c0,0-7.5-0.8-7.5,5.2l0,8c-0.8-1.3-1.9-2.4-3.3-3.1c-1.3-0.8-2.9-1.1-4.6-1.1  c-3.7,0-6.7,1.4-8.9,4.2c-2.2,2.8-3.3,6.8-3.3,11.6c0,4.2,1.1,7.6,3.4,10.3c2.3,2.7,6.7,3.9,10.6,3.9c13.8,0,13.6-11.8,13.6-11.8  L221.1,109.7z M212.2,140.2c-1.1,1.6-2.7,2.3-4.8,2.3c-2.1,0-3.7-0.8-4.7-2.4c-1-1.6-1.5-3.9-1.5-6.5c0-2.4,0.5-4.5,1.5-6.1  c1-1.6,2.6-2.5,4.8-2.5c1.4,0,2.7,0.5,3.8,1.4c1.8,1.5,2.6,4.2,2.6,7.6C213.8,136.6,213.3,138.6,212.2,140.2z"></path>
<path style="fill:#FFFCF8;" d="M97.4,193.2c0,1-0.4,1.9-1.1,2.6c-0.7,0.7-1.6,1.1-2.6,1.1H90v-26c0-5.1,1.7-8.2,4.5-10.4  c1.9-1.4,4.6-2.8,9.8-2.8c3.5,0,7.6,1.4,9.8,4c2.5,3,3.5,6.4,3.5,10.8c0,4.6-1.1,8.2-3.3,11.1c-2.2,2.8-5,4.1-8.5,4.1  c-1.8,0-3.4-0.3-4.8-1c-1.5-0.7-2.6-1.8-3.5-3.4V193.2z M110,172.9c0-2.8-0.5-5-1.7-6.5c-1.1-1.5-2.7-2.3-4.7-2.3  c-2,0-3.5,0.8-4.6,2.3c-1,1.4-1.5,3.6-1.5,6.5c0,2.8,0.5,4.8,1.6,6.2c1.1,1.5,2.7,2.3,4.7,2.3c1.9,0,3.4-0.8,4.5-2.3  C109.4,177.6,110,175.6,110,172.9"></path>
<path style="fill:#FFFCF8;" d="M167.1,185.4v-1.8c-1.3,2-3,3.3-5.2,3.8c-2.2,0.5-4.4,0.3-6.5-0.5c-2.2-0.9-4-2.5-5.6-4.8  c-1.5-2.4-2.3-5.4-2.3-9.3c0-4.5,1-8.1,3.1-10.9c2.1-2.8,5.4-4.1,9.9-4.2c4.5-0.1,7.1,0.9,9.6,2.8c2.8,2.1,4.4,5.4,4.4,10.4v15.3  c0,4.9-3.4,13.9-14,13.1c-6.6-0.5-10.3-3.2-12.3-9.3h7.9c0.6,1,1.5,1.8,2.7,2.3c1.2,0.5,2.4,0.7,3.6,0.4c1.2-0.3,2.3-1,3.2-2.1  C166.4,189.5,167,187.7,167.1,185.4 M154.8,172.9c0,5,1.4,7.7,4.3,8.3c2.9,0.5,5-0.1,6.4-2c0.6-0.8,1.1-2,1.4-3.7  c0.3-1.7,0.3-3.4,0.1-5c-0.2-1.7-0.8-3.1-1.8-4.5c-0.9-1.3-2.3-2-4.1-2c-2.4,0-4.1,0.9-5,2.7C155.2,168.6,154.8,170.6,154.8,172.9"></path>
<path style="fill:#FFFCF8;" d="M141.1,159.7c-2.4-1.2-5.2-1.9-8.3-1.9c-4.8,0-8.2,1.3-10.2,3.8c-1.2,1.6-1.9,3.7-2.1,6.1h7.2  c0.2-1.1,0.5-2,1.1-2.6c0.7-0.9,2-1.3,3.8-1.3c1.6,0,2.8,0.2,3.6,0.7c0.8,0.4,1.2,1.2,1.2,2.4c0,1-0.5,1.7-1.6,2.1  c-0.6,0.3-1.6,0.5-3,0.7l-2.6,0.3c-2.9,0.4-5.1,1-6.6,1.8c-2.7,1.6-4.1,4.1-4.1,7.6c0,2.7,0.8,4.8,2.5,6.3c1.7,1.5,3.8,2.1,6.4,2.2  c16.3,0.7,16.1-8.6,16.2-10.5v-10.7C144.7,163.3,143.5,161,141.1,159.7 M137.3,176c0,2.5-0.8,4.2-2.1,5.1c-1.4,0.9-2.9,1.4-4.5,1.4  c-1,0-1.9-0.3-2.6-0.8c-0.7-0.6-1.1-1.5-1.1-2.8c0-1.4,0.6-2.5,1.8-3.2c0.7-0.4,1.8-0.7,3.4-1l1.7-0.3c0.8-0.2,1.5-0.3,2-0.5  c0.5-0.2,1-0.4,1.4-0.7V176z"></path>
<path style="fill:#FFFCF8;" d="M202.8,162.1c-2.4-3-6-4.5-10.9-4.5c-4.9,0-8.5,1.5-10.9,4.5c-2.4,3-3.6,6.6-3.6,10.6  c0,4.2,1.2,7.7,3.6,10.7c2.4,3,6,4.4,10.9,4.4c4.9,0,8.5-1.5,10.9-4.4c2.4-3,3.6-6.5,3.6-10.7C206.4,168.6,205.2,165.1,202.8,162.1   M196.8,179.3c-1.2,1.5-2.8,2.3-5,2.3c-2.2,0-3.8-0.8-5-2.3c-1.2-1.5-1.8-3.7-1.8-6.6c0-2.8,0.6-5,1.8-6.6c1.2-1.5,2.8-2.3,5-2.3  c2.2,0,3.8,0.8,5,2.3c1.2,1.5,1.7,3.7,1.7,6.6C198.6,175.6,198,177.8,196.8,179.3"></path>
</svg>
