<svg width="380" height="50" viewBox="0 0 380 50" fill="none" xmlns="http://www.w3.org/2000/svg">
<path d="M26.0547 20.1168L9.19577 26.1147L26.0547 32.1125V39.862L0 30.2017V22.0276L26.0547 12.3673V20.1168Z" fill="#F5F5F5"/>
<path d="M58.2597 22.0276V30.2017L32.205 39.862V32.1125L49.0639 26.1147L32.205 20.1168V12.3673L58.2597 22.0276Z" fill="#F5F5F5"/>
<path d="M98.8685 45.4352C94.9929 45.4352 91.5049 44.6214 88.4044 42.9936C85.3391 41.3305 82.9257 39.0304 81.164 36.0934C79.4024 33.1564 78.5216 29.8301 78.5216 26.1147C78.5216 22.3992 79.4024 19.0729 81.164 16.1359C82.9257 13.1989 85.3391 10.9165 88.4044 9.28875C91.5049 7.62562 94.9929 6.79406 98.8685 6.79406C102.251 6.79406 105.299 7.39561 108.011 8.59873C110.724 9.80184 112.979 11.5357 114.776 13.8004L108.117 19.8514C105.721 16.9498 102.815 15.4989 99.397 15.4989C97.3888 15.4989 95.5919 15.9413 94.0064 16.8259C92.4562 17.7105 91.2406 18.9667 90.3598 20.5945C89.5142 22.1868 89.0914 24.0269 89.0914 26.1147C89.0914 28.2024 89.5142 30.0602 90.3598 31.6879C91.2406 33.2803 92.4562 34.5188 94.0064 35.4034C95.5919 36.288 97.3888 36.7304 99.397 36.7304C102.815 36.7304 105.721 35.2795 108.117 32.3779L114.776 38.4289C112.979 40.6936 110.724 42.4275 108.011 43.6306C105.299 44.8337 102.251 45.4352 98.8685 45.4352Z" fill="#F5F5F5"/>
<path d="M143.454 25.3185H152.702V44.6921H145.462V42.4098C142.961 44.4268 139.649 45.4352 135.526 45.4352C132.074 45.4352 128.92 44.6921 126.066 43.2059C123.213 41.7197 120.94 39.5612 119.249 36.7304C117.593 33.8641 116.765 30.4494 116.765 26.4862C116.765 22.6645 117.646 19.2675 119.407 16.2951C121.169 13.2873 123.618 10.9519 126.754 9.28875C129.889 7.62562 133.43 6.79406 137.376 6.79406C140.829 6.79406 143.93 7.37792 146.678 8.54565C149.426 9.71338 151.716 11.3942 153.548 13.5881L146.889 19.6391C144.388 16.879 141.393 15.4989 137.905 15.4989C134.699 15.4989 132.127 16.4897 130.189 18.4713C128.286 20.4176 127.335 23.0715 127.335 26.4331C127.335 29.8301 128.233 32.431 130.03 34.2357C131.827 36.0403 134.1 36.9427 136.848 36.9427C139.49 36.9427 141.692 36.235 143.454 34.8195V25.3185Z" fill="#F5F5F5"/>
<path d="M159.337 7.53716H176.83C180.882 7.53716 184.475 8.29795 187.611 9.81954C190.747 11.3411 193.178 13.4996 194.904 16.2951C196.631 19.0906 197.494 22.3638 197.494 26.1147C197.494 29.8655 196.631 33.1387 194.904 35.9342C193.178 38.7297 190.747 40.8882 187.611 42.4098C184.475 43.9314 180.882 44.6921 176.83 44.6921H159.337V7.53716ZM176.407 36.3057C179.578 36.3057 182.115 35.4034 184.017 33.5987C185.955 31.7941 186.924 29.2994 186.924 26.1147C186.924 22.9299 185.955 20.4352 184.017 18.6306C182.115 16.8259 179.578 15.9236 176.407 15.9236H169.801V36.3057H176.407Z" fill="#F5F5F5"/>
<path d="M217.85 37.4735C219.224 37.4735 220.404 37.2788 221.391 36.8896C222.413 36.5004 223.434 35.8634 224.456 34.9788L229.688 40.4989C226.975 43.6129 222.923 45.1698 217.533 45.1698C214.186 45.1698 211.244 44.5329 208.707 43.259C206.17 41.9851 204.197 40.2159 202.788 37.9512C201.414 35.6865 200.727 33.121 200.727 30.2548C200.727 27.4239 201.414 24.8938 202.788 22.6645C204.162 20.3999 206.047 18.6306 208.443 17.3567C210.874 16.0828 213.587 15.4459 216.582 15.4459C219.365 15.4459 221.902 16.0297 224.192 17.1975C226.517 18.3298 228.367 20.0106 229.741 22.2399C231.115 24.4338 231.802 27.0524 231.802 30.0955L211.349 34.0234C212.442 36.3234 214.608 37.4735 217.85 37.4735ZM216.634 22.6115C214.908 22.6115 213.499 23.1599 212.406 24.2569C211.314 25.3185 210.698 26.8577 210.557 28.8747L222.184 26.5924C221.831 25.3892 221.162 24.4338 220.175 23.7261C219.189 22.983 218.008 22.6115 216.634 22.6115Z" fill="#F5F5F5"/>
<path d="M266.093 15.9236L254.254 44.6921H243.896L232.111 15.9236H242.416L249.287 33.4926L256.527 15.9236H266.093Z" fill="#F5F5F5"/>
<path d="M267.473 7.53716H279.417L277.409 31.1571H269.428L267.473 7.53716ZM273.445 45.1698C271.683 45.1698 270.239 44.6391 269.111 43.5775C267.984 42.4805 267.42 41.1536 267.42 39.5966C267.42 38.0042 267.984 36.695 269.111 35.6688C270.239 34.6426 271.683 34.1295 273.445 34.1295C275.206 34.1295 276.633 34.6426 277.726 35.6688C278.853 36.695 279.417 38.0042 279.417 39.5966C279.417 41.1536 278.853 42.4805 277.726 43.5775C276.598 44.6391 275.171 45.1698 273.445 45.1698Z" fill="#F5F5F5"/>
<path d="M325.861 20.1168L309.002 26.1147L325.861 32.1125V39.862L299.806 30.2017V22.0276L325.861 12.3673V20.1168Z" fill="#F5F5F5"/>
<path d="M344.43 0H353.362L335.922 50H326.99L344.43 0Z" fill="#F5F5F5"/>
<path d="M380 22.0276V30.2017L353.945 39.862V32.1125L370.804 26.1147L353.945 20.1168V12.3673L380 22.0276Z" fill="#F5F5F5"/>
</svg>
