<?xml version="1.0" standalone="no"?><svg xmlns="http://www.w3.org/2000/svg" viewBox="0 0 1440 320"><path fill="#739F7B" fill-opacity="3" d="M0,160L26.7,138.7C53.3,117,107,75,160,90.7C213.3,107,267,181,320,186.7C373.3,192,427,128,480,106.7C533.3,85,587,107,640,117.3C693.3,128,747,128,800,112C853.3,96,907,64,960,74.7C1013.3,85,1067,139,1120,149.3C1173.3,160,1227,128,1280,122.7C1333.3,117,1387,139,1413,149.3L1440,160L1440,320L1413.3,320C1386.7,320,1333,320,1280,320C1226.7,320,1173,320,1120,320C1066.7,320,1013,320,960,320C906.7,320,853,320,800,320C746.7,320,693,320,640,320C586.7,320,533,320,480,320C426.7,320,373,320,320,320C266.7,320,213,320,160,320C106.7,320,53,320,27,320L0,320Z"></path></svg>