<svg width="164" height="58" viewBox="0 0 164 58" fill="none" xmlns="http://www.w3.org/2000/svg">
<g clip-path="url(#clip0_9_552)">
<path d="M0.348095 20.8258L0.360452 17.6558C2.19052 17.6601 3.46134 17.3004 4.17293 16.5766C4.88451 15.8527 5.24346 14.6813 5.24977 13.062L5.26336 9.57662C5.27094 7.6315 5.54675 6.07603 6.09081 4.91023C6.64547 3.73395 7.41058 2.84731 8.38613 2.25031C9.37226 1.65333 10.5374 1.25656 11.8817 1.05998C13.2259 0.863398 14.6967 0.767006 16.2941 0.7708L16.2746 5.78608C15.0262 5.78312 14.0736 5.94382 13.4164 6.26821C12.7699 6.5821 12.329 7.07523 12.0937 7.74759C11.8583 8.40943 11.7387 9.25028 11.7348 10.2702L11.7168 14.8754C11.7137 15.6745 11.5626 16.4364 11.2635 17.1612C10.9646 17.8755 10.412 18.5103 9.60587 19.0656C8.79978 19.6104 7.65032 20.044 6.15749 20.3664C4.66471 20.6783 2.72824 20.8314 0.348095 20.8258ZM16.1385 40.688C14.5411 40.6842 13.071 40.5808 11.7284 40.3779C10.3857 40.1749 9.22366 39.7726 8.2422 39.171C7.27133 38.5694 6.51312 37.6843 5.9676 36.516C5.43268 35.3371 5.16903 33.775 5.17661 31.83L5.19026 28.3287C5.19657 26.7095 4.84676 25.5363 4.14083 24.8092C3.43491 24.082 2.16691 23.7163 0.336844 23.7119L0.349201 20.5419C2.72935 20.5475 4.66457 20.7151 6.15485 21.0445C7.64518 21.3635 8.79123 21.8026 9.59302 22.3618C10.3949 22.9104 10.9424 23.5479 11.2358 24.2741C11.5292 24.9897 11.6744 25.7524 11.6712 26.5619L11.6533 31.1672C11.6494 32.1765 11.7624 33.0179 11.9925 33.6914C12.2226 34.3544 12.6597 34.8496 13.3037 35.177C13.9584 35.494 14.9098 35.6539 16.1581 35.6569L16.1385 40.688ZM0.336844 23.7119L0.360452 17.6558L6.05693 17.6693L6.03332 23.7254L0.336844 23.7119Z" fill="#FFFCF8"/>
<path d="M45.9333 16.0981L38.9832 16.0816C38.8598 15.1877 38.6038 14.3933 38.215 13.6984C37.8264 12.993 37.3262 12.3925 36.7147 11.8968C36.103 11.4012 35.3958 11.021 34.5928 10.7563C33.8004 10.4915 32.9389 10.3581 32.0079 10.3558C30.3259 10.3519 28.8592 10.7637 27.6078 11.5914C26.3562 12.4085 25.3837 13.6048 24.6899 15.1803C23.9962 16.7453 23.645 18.6476 23.6362 20.887C23.6272 23.1897 23.9635 25.1251 24.645 26.6934C25.3371 28.2617 26.3058 29.4468 27.5509 30.2488C28.796 31.0509 30.2384 31.4539 31.878 31.4578C32.7984 31.46 33.6504 31.3411 34.4341 31.1011C35.2285 30.8612 35.9333 30.5106 36.5487 30.0495C37.1641 29.5777 37.674 29.0059 38.0787 28.334C38.4938 27.662 38.7825 26.8952 38.9445 26.0334L45.8944 26.0814C45.7087 27.5636 45.2536 28.9924 44.5289 30.3681C43.8149 31.7332 42.8528 32.9558 41.6425 34.0359C40.443 35.1055 39.0116 35.9538 37.3483 36.5808C35.6957 37.1972 33.8274 37.5028 31.7434 37.4979C28.845 37.491 26.2557 36.833 23.976 35.5238C21.7067 34.2146 19.9156 32.3231 18.603 29.8491C17.3009 27.3752 16.6566 24.3823 16.6703 20.8705C16.6841 17.3483 17.3622 14.3533 18.7047 11.8857C20.0473 9.41795 21.8635 7.54021 24.1535 6.25239C26.4435 4.95405 29.0167 4.30827 31.8728 4.31506C33.7557 4.31953 35.5002 4.58653 37.106 5.11606C38.7224 5.64561 40.1529 6.41656 41.3972 7.42889C42.6415 8.4307 43.6523 9.65802 44.4295 11.1108C45.2171 12.5637 45.7185 14.2261 45.9333 16.0981Z" fill="#FFFCF8"/>
<path d="M67.2033 15.1334C66.9841 14.3653 66.6747 13.6864 66.275 13.0966C65.8754 12.4963 65.3854 11.9905 64.8052 11.5791C64.2357 11.1572 63.581 10.8349 62.8415 10.6124C62.1123 10.3898 61.3035 10.2775 60.415 10.2754C58.7541 10.2715 57.2927 10.678 56.0307 11.4952C54.7793 12.3123 53.8014 13.5033 53.0971 15.0683C52.3929 16.6228 52.0364 18.525 52.0276 20.775C52.0188 23.0251 52.3551 24.9394 53.0366 26.5183C53.7181 28.097 54.6866 29.3032 55.9422 30.1368C57.1978 30.96 58.6825 31.3735 60.3962 31.3776C61.9512 31.3813 63.2799 31.1111 64.3821 30.567C65.495 30.0124 66.3444 29.2311 66.9301 28.2231C67.5264 27.2151 67.8273 26.0224 67.8327 24.645L69.2282 24.8534L60.8501 24.8335L60.8702 19.692L74.4687 19.7243L74.4529 23.7934C74.4418 26.6322 73.8293 29.0701 72.6154 31.1069C71.4015 33.1334 69.7347 34.696 67.6146 35.795C65.4947 36.8834 63.0701 37.4244 60.3409 37.4179C57.2943 37.4107 54.6206 36.7367 52.3197 35.3959C50.0189 34.0446 48.2279 32.132 46.947 29.6581C45.6767 27.1737 45.0482 24.2281 45.0615 20.8216C45.0717 18.2035 45.4616 15.8703 46.2312 13.8218C47.0115 11.7629 48.0973 10.0201 49.4886 8.59345C50.88 7.1668 52.4974 6.08241 54.341 5.34027C56.1845 4.59814 58.18 4.22962 60.3274 4.23472C62.1681 4.23909 63.8807 4.51127 65.4654 5.05126C67.0502 5.58075 68.4541 6.3306 69.6775 7.30082C70.9114 8.27107 71.9171 9.42477 72.6948 10.7619C73.4723 12.0886 73.9691 13.5513 74.1851 15.1499L67.2033 15.1334Z" fill="#FFFCF8"/>
<path d="M87.0607 37.0398L75.5408 37.0124L75.6667 4.71275L87.2817 4.74034C90.5505 4.74811 93.3618 5.40142 95.7159 6.70027C98.0698 7.9886 99.8769 9.83815 101.137 12.2489C102.407 14.6597 103.036 17.5421 103.023 20.8961C103.01 24.2607 102.359 27.1506 101.069 29.5658C99.7905 31.9811 97.9584 33.8326 95.5733 35.1201C93.1986 36.4077 90.3612 37.0476 87.0607 37.0398ZM82.4343 31.1776L86.7978 31.1879C88.8289 31.1928 90.5388 30.8393 91.9273 30.1277C93.3265 29.4055 94.3781 28.2883 95.0822 26.7758C95.7969 25.2529 96.1589 23.2876 96.1683 20.8799C96.1776 18.4931 95.8309 16.542 95.128 15.0262C94.4357 13.5105 93.398 12.3935 92.0151 11.6753C90.6321 10.957 88.9251 10.5955 86.894 10.5906L82.5146 10.5802L82.4343 31.1776Z" fill="#FFFCF8"/>
<path d="M87.0607 37.0398L75.5408 37.0124L75.6667 4.71275L87.2818 4.74034C90.5506 4.74811 93.3619 5.40142 95.7159 6.70027C98.0698 7.9886 99.8769 9.83815 101.137 12.2489C102.408 14.6597 103.036 17.5421 103.023 20.8961C103.01 24.2607 102.359 27.1506 101.069 29.5658C99.7905 31.9811 97.9585 33.8326 95.5734 35.1201C93.1987 36.4077 90.3612 37.0476 87.0607 37.0398ZM82.4343 31.1776L86.7978 31.1879C88.8289 31.1928 90.5388 30.8393 91.9273 30.1277C93.3265 29.4055 94.3781 28.2883 95.0822 26.7758C95.7969 25.2529 96.1589 23.2876 96.1683 20.8799C96.1776 18.4931 95.8309 16.542 95.128 15.0262C94.4357 13.5105 93.3981 12.3935 92.0151 11.6753C90.6321 10.957 88.9251 10.5955 86.894 10.5906L82.5146 10.5802L82.4343 31.1776Z" fill="#FFFCF8"/>
<path d="M115.007 37.5793C112.499 37.5733 110.344 37.0636 108.539 36.0499C106.744 35.0257 105.364 33.582 104.398 31.7187C103.432 29.8448 102.954 27.6305 102.964 25.0754C102.974 22.5836 103.469 20.3978 104.45 18.518C105.43 16.6384 106.806 15.1748 108.576 14.1277C110.358 13.0804 112.444 12.5596 114.834 12.5653C116.442 12.5691 117.938 12.8303 119.322 13.3488C120.716 13.8568 121.93 14.6219 122.963 15.6443C124.005 16.6667 124.816 17.9514 125.391 19.4983C125.967 21.0348 126.251 22.8334 126.243 24.8942L126.236 26.7394L105.655 26.6906L105.672 22.5269L119.889 22.5607C119.893 21.5934 119.684 20.736 119.265 19.9885C118.844 19.2409 118.259 18.656 117.51 18.2337C116.771 17.8008 115.91 17.5833 114.925 17.5809C113.9 17.5785 112.99 17.8128 112.194 18.2842C111.409 18.7448 110.793 19.369 110.346 20.1565C109.899 20.9336 109.668 21.8004 109.654 22.7572L109.638 26.7158C109.633 27.9145 109.851 28.9506 110.292 29.8243C110.744 30.6981 111.381 31.3725 112.204 31.8476C113.028 32.3227 114.006 32.5616 115.137 32.5643C115.888 32.5661 116.577 32.4626 117.202 32.2538C117.826 32.045 118.361 31.7308 118.807 31.3113C119.254 30.8917 119.594 30.3774 119.829 29.7681L126.08 30.193C125.756 31.6853 125.1 32.9875 124.113 34.0996C123.135 35.2013 121.873 36.0606 120.326 36.6772C118.79 37.2834 117.017 37.584 115.007 37.5793Z" fill="#FFFCF8"/>
<path d="M148.748 12.9613L140.132 37.1658L132.516 37.1478L124.089 12.9027L131.23 12.9197L136.224 30.2644L136.477 30.265L141.591 12.9443L148.748 12.9613Z" fill="#FFFCF8"/>
<path d="M163.321 20.7682L163.308 23.9383C161.489 23.9339 160.218 24.2937 159.496 25.0175C158.785 25.7413 158.425 26.9127 158.419 28.532L158.405 32.0332C158.398 33.9784 158.117 35.5338 157.563 36.6995C157.018 37.8758 156.253 38.7625 155.267 39.3595C154.291 39.9565 153.131 40.3532 151.788 40.5498C150.453 40.7465 148.983 40.8428 147.375 40.839L147.395 35.808C148.643 35.811 149.591 35.6502 150.236 35.3258C150.893 35.0119 151.34 34.5189 151.575 33.8465C151.811 33.1846 151.93 32.349 151.934 31.3397L151.952 26.7345C151.955 25.9248 152.107 25.1629 152.406 24.4486C152.705 23.7239 153.257 23.0891 154.063 22.5442C154.87 21.9888 156.019 21.5553 157.511 21.2434C159.005 20.921 160.941 20.7626 163.321 20.7682ZM147.531 0.921806C149.138 0.925625 150.608 1.029 151.941 1.23193C153.283 1.4349 154.44 1.83719 155.411 2.43881C156.392 3.04046 157.151 3.93072 157.686 5.10959C158.231 6.27797 158.499 7.83473 158.492 9.7799L158.478 13.2654C158.472 14.8845 158.823 16.0577 159.528 16.7849C160.245 17.5121 161.512 17.8778 163.332 17.8821L163.32 21.0521C160.94 21.0465 159.005 20.8842 157.514 20.5653C156.024 20.2357 154.878 19.7966 154.076 19.248C153.274 18.6889 152.727 18.0515 152.433 17.3357C152.14 16.6096 151.995 15.847 151.998 15.0479L152.016 10.4427C152.02 9.42277 151.907 8.58133 151.676 7.91841C151.446 7.24495 151.004 6.74972 150.349 6.43274C149.706 6.10526 148.759 5.94004 147.511 5.93708L147.531 0.921806ZM163.332 17.8821L163.308 23.9383L157.612 23.9247L157.636 17.8686L163.332 17.8821Z" fill="#FFFCF8"/>
</g>
<defs>
<clipPath id="clip0_9_552">
<rect width="163.095" height="56.9597" fill="white" transform="translate(0.165009 0.0405807) rotate(0.165988)"/>
</clipPath>
</defs>
</svg>
