<svg width="125" height="40" viewBox="0 0 125 40" fill="none" xmlns="http://www.w3.org/2000/svg">
<g clip-path="url(#clip0_9_552)">
<path d="M0.201904 18.5824V15.7273C1.60453 15.7273 2.57744 15.4006 3.12065 14.7472C3.66386 14.0937 3.93547 13.0379 3.93547 11.5795V8.44034C3.93547 6.68845 4.14221 5.28693 4.5557 4.23579C4.97729 3.17519 5.56104 2.375 6.30694 1.83523C7.06095 1.29545 7.95279 0.935604 8.98246 0.755679C10.0121 0.575756 11.1391 0.485794 12.3634 0.485794V5.00284C11.4066 5.00284 10.677 5.14962 10.1742 5.44318C9.67972 5.72727 9.34325 6.17235 9.16491 6.77841C8.98649 7.375 8.89736 8.13257 8.89736 9.05113V13.1989C8.89736 13.9186 8.78383 14.6051 8.5568 15.2585C8.32979 15.9025 7.9082 16.4754 7.29202 16.9773C6.67584 17.4697 5.79616 17.8627 4.65298 18.1562C3.50982 18.4403 2.02612 18.5824 0.201904 18.5824ZM12.3634 36.4375C11.1391 36.4375 10.0121 36.3475 8.98246 36.1676C7.95279 35.9877 7.06095 35.6278 6.30694 35.0881C5.56104 34.5483 4.97729 33.7528 4.5557 32.7017C4.14221 31.6411 3.93547 30.2348 3.93547 28.483V25.3295C3.93547 23.8712 3.66386 22.8153 3.12065 22.1619C2.57744 21.5085 1.60453 21.1818 0.201904 21.1818V18.3267C2.02612 18.3267 3.50982 18.4735 4.65298 18.767C5.79616 19.0511 6.67584 19.4441 7.29202 19.946C7.9082 20.4384 8.32979 21.0114 8.5568 21.6648C8.78383 22.3087 8.89736 22.9953 8.89736 23.7244V27.8722C8.89736 28.7812 8.98649 29.5388 9.16491 30.1449C9.34325 30.7415 9.67972 31.1866 10.1742 31.4801C10.677 31.7642 11.4066 31.9062 12.3634 31.9062V36.4375ZM0.201904 21.1818V15.7273H4.56786V21.1818H0.201904Z" fill="#C9D85D"/>
<path d="M34.2151 14.0937H28.8884C28.7911 13.2888 28.5925 12.5739 28.2925 11.9489C27.9925 11.3144 27.6074 10.7746 27.1372 10.3295C26.6669 9.88447 26.1237 9.54356 25.5075 9.30682C24.8994 9.07007 24.2387 8.9517 23.5252 8.9517C22.236 8.9517 21.1132 9.32576 20.1565 10.0739C19.1997 10.8125 18.458 11.892 17.9309 13.3125C17.4039 14.7235 17.1404 16.4375 17.1404 18.4545C17.1404 20.5284 17.4039 22.2708 17.9309 23.6818C18.466 25.0928 19.212 26.1581 20.1687 26.8778C21.1253 27.5975 22.232 27.9574 23.4887 27.9574C24.1941 27.9574 24.8468 27.8485 25.4467 27.6307C26.0548 27.4129 26.5939 27.0956 27.0642 26.679C27.5344 26.2528 27.9236 25.7367 28.2317 25.1307C28.5479 24.5246 28.7668 23.8333 28.8884 23.0568L34.2151 23.0852C34.0772 24.4205 33.7327 25.7083 33.1813 26.9489C32.6382 28.1799 31.9045 29.2831 30.9801 30.2585C30.064 31.2244 28.9694 31.9915 27.6966 32.5597C26.4318 33.1184 25.0008 33.3977 23.4036 33.3977C21.1821 33.3977 19.1957 32.8106 17.4445 31.6364C15.7014 30.4621 14.323 28.7623 13.3096 26.5369C12.3043 24.3116 11.8015 21.6174 11.8015 18.4545C11.8015 15.2822 12.3123 12.5833 13.3339 10.358C14.3555 8.13257 15.7419 6.4375 17.4932 5.27273C19.2444 4.09848 21.2146 3.51136 23.4036 3.51136C24.8467 3.51136 26.1845 3.7481 27.4169 4.22159C28.6573 4.69507 29.7559 5.38636 30.7126 6.29545C31.6693 7.19507 32.4476 8.29829 33.0476 9.60511C33.6557 10.9119 34.0449 12.4081 34.2151 14.0937Z" fill="#C4D352"/>
<path d="M51.4242 13.3125C51.2539 12.6212 51.0148 12.0104 50.7067 11.4801C50.3986 10.9403 50.0216 10.4858 49.5757 10.1165C49.1379 9.73769 48.6352 9.44886 48.0677 9.25C47.5082 9.05114 46.888 8.9517 46.207 8.9517C44.9341 8.9517 43.8152 9.32102 42.8504 10.0597C41.8937 10.7983 41.1478 11.8731 40.6127 13.2841C40.0776 14.6856 39.8101 16.3996 39.8101 18.4261C39.8101 20.4527 40.0735 22.1761 40.6006 23.5966C41.1276 25.017 41.8734 26.1013 42.8383 26.8494C43.8031 27.5881 44.9422 27.9574 46.2556 27.9574C47.4474 27.9574 48.465 27.7112 49.3081 27.2188C50.1594 26.7169 50.808 26.0114 51.2539 25.1023C51.708 24.1932 51.935 23.1184 51.935 21.8778L53.0052 22.0625H46.584V17.4318H57.0063V21.0966C57.0063 23.6534 56.5442 25.8504 55.6199 27.6875C54.6956 29.5152 53.4228 30.9261 51.8012 31.9205C50.1797 32.9053 48.323 33.3977 46.2313 33.3977C43.8963 33.3977 41.8451 32.7964 40.0776 31.5938C38.3102 30.3816 36.9318 28.6629 35.9427 26.4375C34.9617 24.2027 34.4712 21.5511 34.4712 18.483C34.4712 16.125 34.7631 14.0227 35.3468 12.1761C35.9387 10.3201 36.7657 8.7481 37.8277 7.46023C38.8899 6.17235 40.1263 5.19223 41.537 4.51988C42.9477 3.84754 44.476 3.51136 46.1218 3.51136C47.5326 3.51136 48.846 3.75284 50.0621 4.23579C51.2783 4.70928 52.3566 5.38163 53.2971 6.25284C54.2457 7.12405 55.0199 8.16098 55.6199 9.36363C56.2199 10.5568 56.605 11.8731 56.7752 13.3125H51.4242Z" fill="#B8C64D"/>
<path d="M66.7088 33H57.8796V3.90909H66.7818C69.2871 3.90909 71.4437 4.49148 73.2517 5.65625C75.0597 6.81155 76.4502 8.47348 77.423 10.642C78.4041 12.8106 78.8946 15.4053 78.8946 18.4261C78.8946 21.4564 78.4041 24.0606 77.423 26.2386C76.4502 28.4167 75.0516 30.0881 73.2274 31.2528C71.4112 32.4176 69.2385 33 66.7088 33ZM63.1456 27.7301H66.4899C68.0466 27.7301 69.356 27.4081 70.4181 26.7642C71.4883 26.1108 72.2909 25.1023 72.826 23.7386C73.3693 22.3655 73.6409 20.5947 73.6409 18.4261C73.6409 16.2765 73.3693 14.5199 72.826 13.1562C72.2909 11.7926 71.4923 10.7888 70.4302 10.1449C69.3682 9.50095 68.0587 9.17898 66.5021 9.17898H63.1456V27.7301Z" fill="#B3C04D"/>
<path d="M88.1293 33.4261C86.2072 33.4261 84.5534 32.9716 83.167 32.0625C81.7887 31.1439 80.7266 29.8466 79.9807 28.1705C79.2349 26.4848 78.8619 24.4915 78.8619 22.1903C78.8619 19.946 79.2349 17.9763 79.9807 16.2812C80.7266 14.5862 81.7765 13.2651 83.1306 12.3182C84.4926 11.3712 86.0899 10.8977 87.9221 10.8977C89.1541 10.8977 90.3014 11.1297 91.3639 11.5937C92.4341 12.0483 93.3664 12.7348 94.161 13.6534C94.9632 14.572 95.5882 15.7273 96.0334 17.1193C96.4795 18.5019 96.7029 20.1212 96.7029 21.9773V23.6392H80.9293V19.8892H91.8262C91.8262 19.018 91.6635 18.2462 91.3399 17.5739C91.0154 16.9015 90.5651 16.3759 89.9897 15.9972C89.4221 15.6089 88.7611 15.4148 88.0069 15.4148C87.2209 15.4148 86.524 15.6278 85.9152 16.054C85.3155 16.4706 84.8453 17.0341 84.5048 17.7443C84.1642 18.4451 83.99 19.2263 83.9819 20.0881V23.6534C83.9819 24.733 84.1521 25.6657 84.4926 26.4517C84.8413 27.2377 85.3318 27.8437 85.964 28.2699C86.5967 28.696 87.3467 28.9091 88.214 28.9091C88.7894 28.9091 89.3168 28.8144 89.7954 28.625C90.2731 28.4356 90.6824 28.1515 91.0231 27.7727C91.3639 27.3939 91.6233 26.9299 91.8014 26.3807L96.5933 26.75C96.3502 28.0947 95.851 29.2689 95.0976 30.2727C94.3519 31.267 93.387 32.0436 92.2029 32.6023C91.0274 33.1515 89.6695 33.4261 88.1293 33.4261Z" fill="#ACB948"/>
<path d="M113.915 11.1818L107.384 33H101.547L95.0163 11.1818H100.489L104.368 26.7926H104.562L108.43 11.1818H113.915Z" fill="#B6C453"/>
<path d="M124.368 21.2102V24.0653C122.973 24.0653 122.001 24.392 121.449 25.0455C120.907 25.6989 120.634 26.7547 120.634 28.2131V31.3665C120.634 33.1184 120.424 34.5199 120.003 35.571C119.589 36.6316 119.005 37.4318 118.251 37.9716C117.505 38.5114 116.617 38.8712 115.588 39.0511C114.566 39.2311 113.439 39.321 112.207 39.321V34.7898C113.164 34.7898 113.89 34.643 114.384 34.3494C114.886 34.0653 115.227 33.6203 115.405 33.0142C115.584 32.4176 115.673 31.6648 115.673 30.7557V26.608C115.673 25.8788 115.787 25.1922 116.014 24.5483C116.241 23.8949 116.662 23.322 117.278 22.8295C117.895 22.3276 118.774 21.9347 119.917 21.6506C121.061 21.357 122.545 21.2102 124.368 21.2102ZM112.207 3.36932C113.439 3.36932 114.566 3.45928 115.588 3.6392C116.617 3.81913 117.505 4.17898 118.251 4.71875C119.005 5.25852 119.589 6.05871 120.003 7.11932C120.424 8.17045 120.634 9.57197 120.634 11.3239V14.4631C120.634 15.9214 120.907 16.9773 121.449 17.6307C122.001 18.2841 122.973 18.6108 124.368 18.6108V21.4659C122.545 21.4659 121.061 21.3239 119.917 21.0398C118.774 20.7462 117.895 20.3532 117.278 19.8608C116.662 19.3589 116.241 18.786 116.014 18.142C115.787 17.4886 115.673 16.8021 115.673 16.0824V11.9347C115.673 11.0161 115.584 10.2585 115.405 9.66193C115.227 9.05587 114.886 8.61079 114.384 8.3267C113.89 8.03314 113.164 7.88636 112.207 7.88636V3.36932ZM124.368 18.6108V24.0653H120.003V18.6108H124.368Z" fill="#C4D352"/>
</g>
<defs>
<clipPath id="clip0_9_552">
<rect width="125" height="40" fill="white"/>
</clipPath>
</defs>
</svg>
