<svg width="146" height="40" viewBox="0 0 146 40" fill="none" xmlns="http://www.w3.org/2000/svg">
<path d="M0.235809 18.5824V15.7273C1.87407 15.7273 3.01043 15.4006 3.6449 14.7472C4.27937 14.0937 4.59661 13.0379 4.59661 11.5795V8.44034C4.59661 6.68845 4.83808 5.28693 5.32104 4.23579C5.81346 3.17519 6.49528 2.375 7.36649 1.83523C8.24717 1.29545 9.28884 0.935604 10.4915 0.755679C11.6941 0.575756 13.0104 0.485794 14.4404 0.485794V5.00284C13.3229 5.00284 12.4707 5.14962 11.8835 5.44318C11.3059 5.72727 10.9129 6.17235 10.7046 6.77841C10.4962 7.375 10.3921 8.13257 10.3921 9.05113V13.1989C10.3921 13.9186 10.2595 14.6051 9.99433 15.2585C9.72918 15.9025 9.23676 16.4754 8.51706 16.9773C7.79736 17.4697 6.7699 17.8627 5.43467 18.1562C4.09945 18.4403 2.36649 18.5824 0.235809 18.5824ZM14.4404 36.4375C13.0104 36.4375 11.6941 36.3475 10.4915 36.1676C9.28884 35.9877 8.24717 35.6278 7.36649 35.0881C6.49528 34.5483 5.81346 33.7528 5.32104 32.7017C4.83808 31.6411 4.59661 30.2348 4.59661 28.483V25.3295C4.59661 23.8712 4.27937 22.8153 3.6449 22.1619C3.01043 21.5085 1.87407 21.1818 0.235809 21.1818V18.3267C2.36649 18.3267 4.09945 18.4735 5.43467 18.767C6.7699 19.0511 7.79736 19.4441 8.51706 19.946C9.23676 20.4384 9.72918 21.0114 9.99433 21.6648C10.2595 22.3087 10.3921 22.9953 10.3921 23.7244V27.8722C10.3921 28.7812 10.4962 29.5388 10.7046 30.1449C10.9129 30.7415 11.3059 31.1866 11.8835 31.4801C12.4707 31.7642 13.3229 31.9062 14.4404 31.9062V36.4375ZM0.235809 21.1818V15.7273H5.33524V21.1818H0.235809Z" fill="#F5F5F5"/>
<path d="M39.9632 14.0937H33.7416C33.628 13.2888 33.396 12.5739 33.0456 11.9489C32.6952 11.3144 32.2454 10.7746 31.6962 10.3295C31.1469 9.88447 30.5125 9.54356 29.7928 9.30682C29.0825 9.07007 28.3108 8.9517 27.4774 8.9517C25.9717 8.9517 24.6602 9.32576 23.5428 10.0739C22.4253 10.8125 21.5589 11.892 20.9433 13.3125C20.3278 14.7235 20.02 16.4375 20.02 18.4545C20.02 20.5284 20.3278 22.2708 20.9433 23.6818C21.5683 25.0928 22.4396 26.1581 23.557 26.8778C24.6744 27.5975 25.967 27.9574 27.4348 27.9574C28.2587 27.9574 29.021 27.8485 29.7217 27.6307C30.432 27.4129 31.0617 27.0956 31.611 26.679C32.1602 26.2528 32.6147 25.7367 32.9746 25.1307C33.3439 24.5246 33.5996 23.8333 33.7416 23.0568L39.9632 23.0852C39.8022 24.4205 39.3998 25.7083 38.7558 26.9489C38.1214 28.1799 37.2644 29.2831 36.1848 30.2585C35.1147 31.2244 33.8363 31.9915 32.3496 32.5597C30.8723 33.1184 29.2009 33.3977 27.3354 33.3977C24.7407 33.3977 22.4206 32.8106 20.3752 31.6364C18.3392 30.4621 16.7293 28.7623 15.5456 26.5369C14.3714 24.3116 13.7842 21.6174 13.7842 18.4545C13.7842 15.2822 14.3808 12.5833 15.574 10.358C16.7672 8.13257 18.3865 6.4375 20.432 5.27273C22.4774 4.09848 24.7786 3.51136 27.3354 3.51136C29.021 3.51136 30.5835 3.7481 32.0229 4.22159C33.4717 4.69507 34.7549 5.38636 35.8723 6.29545C36.9897 7.19507 37.8988 8.29829 38.5996 9.60511C39.3098 10.9119 39.7644 12.4081 39.9632 14.0937Z" fill="#F5F5F5"/>
<path d="M60.0635 13.3125C59.8646 12.6212 59.5853 12.0104 59.2254 11.4801C58.8656 10.9403 58.4252 10.4858 57.9044 10.1165C57.3931 9.73769 56.8059 9.44886 56.1431 9.25C55.4896 9.05114 54.7652 8.9517 53.9698 8.9517C52.483 8.9517 51.1762 9.32102 50.0493 10.0597C48.9319 10.7983 48.0607 11.8731 47.4357 13.2841C46.8107 14.6856 46.4982 16.3996 46.4982 18.4261C46.4982 20.4527 46.8059 22.1761 47.4215 23.5966C48.037 25.017 48.9082 26.1013 50.0351 26.8494C51.162 27.5881 52.4925 27.9574 54.0266 27.9574C55.4186 27.9574 56.6071 27.7112 57.5919 27.2188C58.5862 26.7169 59.3438 26.0114 59.8646 25.1023C60.3949 24.1932 60.6601 23.1184 60.6601 21.8778L61.9101 22.0625H54.4101V17.4318H66.5834V21.0966C66.5834 23.6534 66.0436 25.8504 64.9641 27.6875C63.8845 29.5152 62.3978 30.9261 60.5038 31.9205C58.6099 32.9053 56.4413 33.3977 53.9982 33.3977C51.2709 33.3977 48.8751 32.7964 46.8107 31.5938C44.7463 30.3816 43.1364 28.6629 41.9811 26.4375C40.8353 24.2027 40.2624 21.5511 40.2624 18.483C40.2624 16.125 40.6033 14.0227 41.2851 12.1761C41.9764 10.3201 42.9423 8.7481 44.1828 7.46023C45.4234 6.17235 46.8675 5.19223 48.5152 4.51988C50.1629 3.84754 51.948 3.51136 53.8703 3.51136C55.5181 3.51136 57.0521 3.75284 58.4726 4.23579C59.8931 4.70928 61.1525 5.38163 62.251 6.25284C63.359 7.12405 64.2633 8.16098 64.9641 9.36363C65.6648 10.5568 66.1146 11.8731 66.3135 13.3125H60.0635Z" fill="#F5F5F5"/>
<path d="M77.9159 33H67.6034V3.90909H78.0011C80.9273 3.90909 83.4462 4.49148 85.558 5.65625C87.6697 6.81155 89.2938 8.47348 90.4301 10.642C91.576 12.8106 92.1489 15.4053 92.1489 18.4261C92.1489 21.4564 91.576 24.0606 90.4301 26.2386C89.2938 28.4167 87.6602 30.0881 85.5296 31.2528C83.4083 32.4176 80.8705 33 77.9159 33ZM73.754 27.7301H77.6602C79.4784 27.7301 81.0078 27.4081 82.2483 26.7642C83.4983 26.1108 84.4358 25.1023 85.0608 23.7386C85.6953 22.3655 86.0125 20.5947 86.0125 18.4261C86.0125 16.2765 85.6953 14.5199 85.0608 13.1562C84.4358 11.7926 83.503 10.7888 82.2625 10.1449C81.022 9.50095 79.4926 9.17898 77.6744 9.17898H73.754V27.7301Z" fill="#F5F5F5"/>
<path d="M102.935 33.4261C100.69 33.4261 98.7584 32.9716 97.1391 32.0625C95.5292 31.1439 94.2887 29.8466 93.4175 28.1705C92.5463 26.4848 92.1107 24.4915 92.1107 22.1903C92.1107 19.946 92.5463 17.9763 93.4175 16.2812C94.2887 14.5862 95.515 13.2651 97.0965 12.3182C98.6874 11.3712 100.553 10.8977 102.693 10.8977C104.132 10.8977 105.472 11.1297 106.713 11.5937C107.963 12.0483 109.052 12.7348 109.98 13.6534C110.917 14.572 111.647 15.7273 112.167 17.1193C112.688 18.5019 112.949 20.1212 112.949 21.9773V23.6392H94.5254V19.8892H107.253C107.253 19.018 107.063 18.2462 106.685 17.5739C106.306 16.9015 105.78 16.3759 105.108 15.9972C104.445 15.6089 103.673 15.4148 102.792 15.4148C101.874 15.4148 101.06 15.6278 100.349 16.054C99.6485 16.4706 99.0993 17.0341 98.7016 17.7443C98.3038 18.4451 98.1003 19.2263 98.0908 20.0881V23.6534C98.0908 24.733 98.2896 25.6657 98.6874 26.4517C99.0946 27.2377 99.6675 27.8437 100.406 28.2699C101.145 28.696 102.021 28.9091 103.034 28.9091C103.706 28.9091 104.322 28.8144 104.881 28.625C105.439 28.4356 105.917 28.1515 106.315 27.7727C106.713 27.3939 107.016 26.9299 107.224 26.3807L112.821 26.75C112.537 28.0947 111.954 29.2689 111.074 30.2727C110.203 31.267 109.076 32.0436 107.693 32.6023C106.32 33.1515 104.734 33.4261 102.935 33.4261Z" fill="#F5F5F5"/>
<path d="M133.053 11.1818L125.425 33H118.607L110.979 11.1818H117.371L121.902 26.7926H122.129L126.646 11.1818H133.053Z" fill="#F5F5F5"/>
<path d="M145.262 21.2102V24.0653C143.633 24.0653 142.497 24.392 141.853 25.0455C141.219 25.6989 140.901 26.7547 140.901 28.2131V31.3665C140.901 33.1184 140.655 34.5199 140.163 35.571C139.68 36.6316 138.998 37.4318 138.117 37.9716C137.246 38.5114 136.209 38.8712 135.007 39.0511C133.813 39.2311 132.497 39.321 131.058 39.321V34.7898C132.175 34.7898 133.023 34.643 133.6 34.3494C134.187 34.0653 134.585 33.6203 134.793 33.0142C135.002 32.4176 135.106 31.6648 135.106 30.7557V26.608C135.106 25.8788 135.239 25.1922 135.504 24.5483C135.769 23.8949 136.261 23.322 136.981 22.8295C137.701 22.3276 138.728 21.9347 140.063 21.6506C141.399 21.357 143.132 21.2102 145.262 21.2102ZM131.058 3.36932C132.497 3.36932 133.813 3.45928 135.007 3.6392C136.209 3.81913 137.246 4.17898 138.117 4.71875C138.998 5.25852 139.68 6.05871 140.163 7.11932C140.655 8.17045 140.901 9.57197 140.901 11.3239V14.4631C140.901 15.9214 141.219 16.9773 141.853 17.6307C142.497 18.2841 143.633 18.6108 145.262 18.6108V21.4659C143.132 21.4659 141.399 21.3239 140.063 21.0398C138.728 20.7462 137.701 20.3532 136.981 19.8608C136.261 19.3589 135.769 18.786 135.504 18.142C135.239 17.4886 135.106 16.8021 135.106 16.0824V11.9347C135.106 11.0161 135.002 10.2585 134.793 9.66193C134.585 9.05587 134.187 8.61079 133.6 8.3267C133.023 8.03314 132.175 7.88636 131.058 7.88636V3.36932ZM145.262 18.6108V24.0653H140.163V18.6108H145.262Z" fill="#F5F5F5"/>
</svg>
