<svg width="115" height="28" viewBox="0 0 115 28" fill="none" xmlns="http://www.w3.org/2000/svg">
<g clip-path="url(#clip0_12_8)">
<path d="M20.5056 7.84936L15.3361 8.66944C15.183 6.67782 14.8 5.19386 14.1873 4.21757C13.6129 3.24128 12.5216 2.75313 10.9134 2.75313C9.34337 2.75313 8.21374 3.59274 7.52447 5.27196C6.83521 6.91213 6.49057 9.82146 6.49057 14C6.49057 18.1394 6.83521 21.0487 7.52447 22.728C8.21374 24.4072 9.38166 25.2468 11.0283 25.2468C12.7131 25.2468 13.8427 24.661 14.4171 23.4895C15.0298 22.3179 15.3361 20.5606 15.3361 18.2176L20.563 18.4518C20.3333 21.6932 19.5866 24.0948 18.323 25.6569C17.0593 27.219 14.5128 28 10.6836 28C6.85435 28 4.11644 26.8674 2.46987 24.6025C0.823287 22.3375 0 18.8034 0 14C0 9.19664 0.823287 5.66248 2.46987 3.39748C4.11644 1.13249 7.04582 0 11.258 0C14.4745 0 16.7529 0.663876 18.0932 1.99163C19.4334 3.28033 20.2376 5.23291 20.5056 7.84936ZM43.3934 13.4728V27.4728H40.2917L39.1429 24.8954C37.573 26.9651 35.5243 28 32.997 28C29.0911 28 26.3149 26.8284 24.6683 24.4853C23.06 22.1031 22.2559 18.569 22.2559 13.8828C22.2559 9.15759 23.0792 5.66248 24.7258 3.39748C26.3724 1.13249 29.3018 0 33.5139 0C36.7304 0 39.0088 0.663876 40.3491 1.99163C41.6893 3.28033 42.4935 5.23291 42.7616 7.84936L37.592 8.66944C37.4389 6.67782 37.056 5.19386 36.4432 4.21757C35.8689 3.24128 34.7776 2.75313 33.1693 2.75313C31.5992 2.75313 30.4696 3.59274 29.7804 5.27196C29.0911 6.91213 28.7466 9.74336 28.7466 13.7657C28.7466 17.7489 29.0528 20.6582 29.6655 22.4936C30.3165 24.3291 31.4461 25.2468 33.0544 25.2468C34.6627 25.2468 35.8498 24.6806 36.6156 23.5481C37.4197 22.3766 37.841 20.3459 37.8792 17.456V16.636H33.916V13.4728H43.3934ZM49.026 0.527195H58.5608C62.0071 0.527195 64.611 1.38633 66.3725 3.1046C68.4786 5.13528 69.5316 8.76707 69.5316 14C69.5316 18.2957 68.7466 21.615 67.1766 23.9581C65.6449 26.3012 62.773 27.4728 58.5608 27.4728H49.026V0.527195ZM55.5165 25.0711H57.5269C58.982 25.0711 60.1117 24.5439 60.9157 23.4895C61.7582 22.396 62.3135 21.1074 62.5815 19.6234C62.8495 18.1004 62.9836 16.2259 62.9836 14C62.9836 11.774 62.8495 9.91909 62.5815 8.43513C62.3135 6.91212 61.7582 5.62343 60.9157 4.56903C60.1117 3.47558 58.982 2.92887 57.5269 2.92887H55.5165V25.0711ZM90.7357 24.3096V27.4728H74.3082V0.527195H90.0464V3.69037H80.7987V12.1841H89.0125V15.3472H80.7987V24.3096H90.7357ZM115 0.527195L107.017 27.4728H99.5494L91.5079 0.527195H97.9985L104.604 24.1924L111.152 0.527195H115Z" fill="#223D0D" fill-opacity="0.901961"/>
</g>
<defs>
<clipPath id="clip0_12_8">
<rect width="115" height="28" fill="white"/>
</clipPath>
</defs>
</svg>
