<svg xmlns="http://www.w3.org/2000/svg" viewBox="0 0 500 500"><g id="freepik--Floor--inject-8"><path id="freepik--floor--inject-8" d="M90.19,426.19c89.93,43.28,235.75,43.28,325.69,0s89.93-113.44,0-156.72-235.76-43.28-325.69,0S.25,382.91,90.19,426.19Z" style="fill:#f5f5f5"></path></g><g id="freepik--Clouds--inject-8"><g id="freepik--clouds--inject-8"><path d="M320.51,65.56l6.81,3.93c0-.3-.06-.6-.06-.9v-2c0-3.51,2.47-4.94,5.51-3.18a10.65,10.65,0,0,1,3.28,3.15c.5-4.41,4-6.06,8.17-3.63,4.55,2.63,8.24,9,8.24,14.27v3a7.88,7.88,0,0,1-.69,3.42l5.65,3.26a6.77,6.77,0,0,1,3.06,5.3c0,1.94-1.37,2.73-3.06,1.76L320.51,72.61a6.74,6.74,0,0,1-3.06-5.29C317.45,65.38,318.82,64.59,320.51,65.56Z" style="fill:#ebebeb"></path><path d="M291.35,85.41l5.14,3c0-.23,0-.46,0-.68V86.21c0-2.65,1.86-3.73,4.16-2.4a8,8,0,0,1,2.47,2.38c.38-3.33,3-4.57,6.17-2.74a13.72,13.72,0,0,1,6.22,10.77v2.23a5.8,5.8,0,0,1-.53,2.58l4.27,2.47a5.07,5.07,0,0,1,2.31,4c0,1.47-1,2.07-2.31,1.33L291.35,90.73a5.09,5.09,0,0,1-2.3-4C289.05,85.27,290.08,84.67,291.35,85.41Z" style="fill:#ebebeb"></path></g></g><g id="freepik--Plants--inject-8"><g id="freepik--plants--inject-8"><path d="M108.6,338.2l6.62-3.78s3.18-17.52.81-32.58c-3.35-21.18-17.76-28.48-23-26.38s-6.47,8.38,3,20.62C101.6,303.29,108.77,318.55,108.6,338.2Z" style="fill:#A8BF8C"></path><g style="opacity:0.1"><path d="M108.6,338.2l6.62-3.78s3.18-17.52.81-32.58c-3.35-21.18-17.76-28.48-23-26.38s-6.47,8.38,3,20.62C101.6,303.29,108.77,318.55,108.6,338.2Z"></path></g><path d="M111,329.79h-.07a.47.47,0,0,1-.4-.53c2.74-19.83-5.23-41.54-14.19-50.3a.47.47,0,1,1,.66-.67c9.12,8.91,17.25,31,14.47,51.1A.48.48,0,0,1,111,329.79Z" style="fill:#fff"></path><path d="M90.21,348.83c-1,.6-3.21-.72-4-1.27a10,10,0,0,1-3.32-3.82,9.3,9.3,0,0,1-.83-5.62,20.32,20.32,0,0,1,.71-3c.28-1,.55-1.94.83-2.91a7.35,7.35,0,0,0,.43-2.93c-.26-2-2-3.37-3.62-4.57-1.77-1.33-3.62-3.08-3.61-5.47a8.46,8.46,0,0,1,2.11-5c1.14-1.44,2.5-2.72,3.53-4.25a5.89,5.89,0,0,0,1.2-3.72,6.11,6.11,0,0,0-.8-2.32,32.87,32.87,0,0,1-2.55-4.65c-.58-1.67-.49-3.75.81-4.95a5.46,5.46,0,0,1,4.11-1A9.3,9.3,0,0,1,89,294.67c3.8,2.11,6,6.61,10,8.23a39.76,39.76,0,0,0,4.87,1.19,6,6,0,0,1,4,2.76c1.48,2.95-1.26,6.59-.22,9.72.92,2.78,3.61,3.84,5.13,6.34a5.9,5.9,0,0,1,.7,3.63,17.24,17.24,0,0,1-1.53,6.13,42.74,42.74,0,0,1-3.36,5.53C108.53,338.26,90.37,348.73,90.21,348.83Z" style="fill:#A8BF8C"></path><path d="M101,343.09h0a.47.47,0,0,1-.46-.49c.78-18.76-8.06-39.47-14.49-45.49a.47.47,0,1,1,.65-.69c6.56,6.14,15.58,27.19,14.79,46.22A.47.47,0,0,1,101,343.09Z" style="fill:#fff"></path><path d="M98.15,320.93l-.14,0a62.91,62.91,0,0,0-13.61-2.2.47.47,0,0,1-.45-.49.45.45,0,0,1,.49-.45A64.07,64.07,0,0,1,98.29,320a.47.47,0,0,1-.14.93Z" style="fill:#fff"></path></g></g><g id="freepik--Mailbox--inject-8"><g id="freepik--mailbox--inject-8"><path d="M87.75,361.72v-7.37h1.82c2.12-4.3,6.08-8.35,11.93-11.72,18.35-10.6,48.1-10.6,66.45,0,5.86,3.37,9.82,7.42,11.94,11.72h1.8v7.13c.15,7-4.42,14.13-13.74,19.51-18.35,10.59-48.1,10.59-66.45,0C92.29,375.67,87.71,368.69,87.75,361.72Z" style="fill:#263238"></path><path d="M168,335.16c-18.35-10.59-48.1-10.59-66.45,0s-18.35,27.77,0,38.37,48.1,10.59,66.45,0S186.3,345.76,168,335.16Z" style="fill:#455a64"></path><path d="M146.83,222.08v129c0,1.78-1.18,3.57-3.54,4.93-4.72,2.73-12.38,2.73-17.1,0-2.36-1.36-3.54-3.15-3.54-4.93v-129Z" style="fill:#37474f"></path><polygon points="122.64 252.58 122.64 261.32 146.83 275.26 146.83 266.58 122.64 252.58" style="fill:#263238"></polygon><path d="M260.32,138.69h0l-2.06,4.13-22.15,44.4L225.6,208.32,190,279.66l-3.92,7.86q-.35,0-.69,0a8.1,8.1,0,0,1-4-1l-141.8-82a8.83,8.83,0,0,1-4-6.91V136.51c0-30.55,20.11-66.92,44.94-81.26C92.34,48.46,103,47.91,111,52.4l0-.06Z" style="fill:#455a64"></path><path d="M230.37,141.92c-10,3.71-46.48,33.82-46.48,81.23,0,39.86.05,60.55.06,64.27a8.93,8.93,0,0,0,1.47.13q.35,0,.69,0l3.92-7.86,35.57-71.34,10.51-21.09,2.41-4.83Z" style="fill:#37474f"></path><path d="M273.36,237.45s0,0,0,0a5,5,0,0,1-1.65,1.6l-.41.26-81.88,47.27a7.74,7.74,0,0,1-3.3.93q-.35,0-.69,0v-64.4c0-11,2.62-22.72,7.12-33.93l4,2.34,29,16.76,45.07,26,2.31,1.33A1.18,1.18,0,0,1,273.36,237.45Z" style="fill:#37474f"></path><path d="M260.32,138.7c-7.94-4.17-18.44-3.44-29.95,3.22-12.91,7.43-24.56,20.87-32.74,36.33a112.31,112.31,0,0,0-5.09,11c-4.5,11.21-7.12,22.94-7.12,33.93v64.4q.35,0,.69,0a7.74,7.74,0,0,0,3.3-.93l81.88-47.27.41-.26a7.78,7.78,0,0,0,1.65-1.6s0,0,0,0a8.63,8.63,0,0,0,1.92-5V171.27C275.28,154.9,269.5,143.52,260.32,138.7ZM269.48,235l-78.25,45.18c-.66.38-1.2.07-1.2-.69V223.15c0-9.83,2.27-20.73,6.55-31.59a6.62,6.62,0,0,1,.24-.62,107.09,107.09,0,0,1,5.45-11.61c7.95-14.69,18.82-26.76,30.41-33.42,5.95-3.45,11.59-5.19,16.75-5.19a18.61,18.61,0,0,1,8.83,2.11c7.83,4.17,12.41,14.3,12.41,28.44V233A2.64,2.64,0,0,1,269.48,235Z" style="fill:#455a64"></path><path d="M351.15,304.77v-5.63h-.53v.8a24.68,24.68,0,0,0-1.47-4.56c-3-6.9-9.19-13.52-18.71-19l-52.95-30.57a8.83,8.83,0,0,0-8,0l-81,46.74a11.65,11.65,0,0,1-2.57-2.84v5.68h0a2.81,2.81,0,0,0,1.65,2.31l53,30.56c14.17,8.19,32.7,12.21,50.65,12,15.53-.2,30.63-3.6,42.14-10.25,11.9-6.84,17.77-15.92,17.77-25.19Z" style="fill:#263238"></path><path d="M349.15,295.38c-3-6.9-9.19-13.52-18.71-19l-52.95-30.57a8.83,8.83,0,0,0-8,0l-81,46.74,52,30c14.17,8.19,32.7,12.21,50.65,12,15.53-.21,30.63-3.6,42.14-10.25,10.68-6.15,16.52-14.09,17.59-22.36A23.41,23.41,0,0,0,349.15,295.38Z" style="fill:#455a64"></path><path d="M351,301.93a23.41,23.41,0,0,0-1.81-6.55c-3-6.9-9.19-13.52-18.71-19l-52.95-30.57a8.83,8.83,0,0,0-8,0l-81,46.74-.92-.52c-2.2-1.28-2.2-3.34,0-4.61l81.88-47.28a8.83,8.83,0,0,1,8,0l52.95,30.57c9.52,5.5,15.75,12.12,18.71,19a24.09,24.09,0,0,1,1.87,7A22,22,0,0,1,351,301.93Z" style="fill:#37474f"></path><path d="M270.67,171.27v63.08l-74.09-42.79a6.62,6.62,0,0,1,.24-.62c7.94-19.85,21.34-36.68,35.86-45,5.95-3.45,11.59-5.19,16.75-5.19C262.53,140.72,270.67,152.42,270.67,171.27Z" style="fill:#263238"></path><path d="M137.27,219.64l6.52-3.76h0l.05,0h0c2.23-1.26,5.3-1.07,8.69.89,6.82,3.94,12.35,13.52,12.35,21.4,0,3.93-1.38,6.7-3.6,8h0l-6.06,3.47-1.1-1.83a12.53,12.53,0,0,1-3.54-1.38c-6.82-3.94-12.36-13.52-12.36-21.4a13.18,13.18,0,0,1,.39-3.15Z" style="fill:#e0e0e0"></path><path d="M146.26,220.35c6.82,3.94,12.36,13.52,12.36,21.4s-5.54,11.07-12.36,7.13-12.36-13.52-12.36-21.4S139.43,216.41,146.26,220.35Z" style="fill:#fafafa"></path><path d="M146.26,238a3.58,3.58,0,0,1-3.58-3.58V133.14a3.58,3.58,0,0,1,7.16,0V234.43A3.58,3.58,0,0,1,146.26,238Z" style="fill:#ebebeb"></path><polygon points="142.68 143.15 106.78 122.43 118.02 144.04 106.78 152.69 142.68 173.41 142.68 143.15" style="fill:#A8BF8C"></polygon></g></g><g id="freepik--Envelope--inject-8"><g id="freepik--Letter--inject-8"><path d="M330.12,236.7a4.29,4.29,0,0,0-1.95-3.37l-99.69-57.56a4.3,4.3,0,0,0-3.89,0l-2.2,1.27a4.29,4.29,0,0,0-1.95,3.38v76.41a4.34,4.34,0,0,0,1.95,3.38l99.69,57.55a4.32,4.32,0,0,0,3.9,0l2.19-1.27a4.33,4.33,0,0,0,1.95-3.37Z" style="fill:#A8BF8C"></path><path d="M329.55,234.78,324,238,221,178.5a4,4,0,0,1,1.38-1.46l2.2-1.26a4.24,4.24,0,0,1,3.89,0l99.69,57.55A4,4,0,0,1,329.55,234.78Z" style="fill:#fff;opacity:0.4"></path><path d="M330.12,236.7v76.41a4.29,4.29,0,0,1-1.95,3.38L326,317.76a3.28,3.28,0,0,1-.54.24,4.06,4.06,0,0,1-.8.18,4.68,4.68,0,0,1-1.54-.05l-.38-.1-.23-.09a1.19,1.19,0,0,0,.93,0,1.36,1.36,0,0,0,.6-1.28V240.22a1.71,1.71,0,0,0-1-1.66l1-.59,5.53-3.19A4,4,0,0,1,330.12,236.7Z" style="opacity:0.1"></path><path d="M324,238l-46.16,17.25a7.5,7.5,0,0,1-8.91-2.93l-7.41-11.36-40.89-62.65,39.41,63.08-39.62,15.5a4.08,4.08,0,0,0,.61,1.95l39.12-17.27,8.61,13.78a7.51,7.51,0,0,0,9.4,2.89l6.13-2.71,39.11,62.42a1.36,1.36,0,0,0,.6-1.28v-1.28L284.5,255.42Z" style="opacity:0.2"></path></g></g></svg>