<svg xmlns="http://www.w3.org/2000/svg" viewBox="0 0 500 500"><g id="freepik--background-simple--inject-16"><path d="M459.24,137.52c-2.41-18.76-7.11-36.75-17-53.14C424,53.93,391,35.53,357.63,26.2c-28-7.82-58.16-10.08-86.09-2-30.66,8.87-56.39,29.29-84,45.3a437.69,437.69,0,0,1-63.1,29.66c-17.58,6.73-39.92,10.5-54.37,23.28a144.93,144.93,0,0,0-23.35,26.65C19.74,188.4,11,238.62,15.12,285.5c2.91,32.66,11.89,65.71,32,91.58,28.27,36.31,76.8,54.2,122.59,49.69,52-5.12,101.25-36.19,152.93-28.73,25.73,3.71,50.35,16.93,76.23,14.47,25.51-2.42,47.34-20,62.73-40.45,12.34-16.43,20.55-36.3,21.31-57,.83-22.39-9.31-42.81-14.4-64.19C459.66,213.5,464.09,175.27,459.24,137.52Z" style="fill:#efefef"></path><path d="M459.24,137.52c-2.41-18.76-7.11-36.75-17-53.14C424,53.93,391,35.53,357.63,26.2c-28-7.82-58.16-10.08-86.09-2-30.66,8.87-56.39,29.29-84,45.3a437.69,437.69,0,0,1-63.1,29.66c-17.58,6.73-39.92,10.5-54.37,23.28a144.93,144.93,0,0,0-23.35,26.65C19.74,188.4,11,238.62,15.12,285.5c2.91,32.66,11.89,65.71,32,91.58,28.27,36.31,76.8,54.2,122.59,49.69,52-5.12,101.25-36.19,152.93-28.73,25.73,3.71,50.35,16.93,76.23,14.47,25.51-2.42,47.34-20,62.73-40.45,12.34-16.43,20.55-36.3,21.31-57,.83-22.39-9.31-42.81-14.4-64.19C459.66,213.5,464.09,175.27,459.24,137.52Z" style="fill:#efefef;opacity:0.7000000000000001"></path></g><g id="freepik--Plant--inject-16"><line x1="28.47" y1="316.96" x2="40.07" y2="428.09" style="fill:none;stroke:#263238;stroke-miterlimit:10;stroke-width:2px"></line><line x1="38.2" y1="406.82" x2="32.94" y2="401.27" style="fill:none;stroke:#263238;stroke-miterlimit:10;stroke-width:2px"></line><path d="M34.54,402.93a6,6,0,0,0-2.09-4.46c-1.35-1.2-8.46-4.19-9.13-1.69C22.59,399.5,29.86,404.84,34.54,402.93Z" style="fill:#C4D352;stroke:#263238;stroke-miterlimit:10"></path><line x1="34.54" y1="402.93" x2="27.78" y2="398.72" style="fill:none;stroke:#263238;stroke-miterlimit:10;stroke-width:0.5px"></line><line x1="39.52" y1="419.46" x2="34.26" y2="413.91" style="fill:none;stroke:#263238;stroke-miterlimit:10;stroke-width:2px"></line><path d="M35.86,415.57a6,6,0,0,0-2.09-4.46c-1.35-1.2-8.46-4.19-9.13-1.69C23.91,412.14,31.18,417.48,35.86,415.57Z" style="fill:#C4D352;stroke:#263238;stroke-miterlimit:10"></path><line x1="35.86" y1="415.57" x2="29.1" y2="411.36" style="fill:none;stroke:#263238;stroke-miterlimit:10;stroke-width:0.5px"></line><line x1="34.98" y1="375.98" x2="29.72" y2="370.43" style="fill:none;stroke:#263238;stroke-miterlimit:10;stroke-width:2px"></line><path d="M31.32,372.09a6,6,0,0,0-2.09-4.46c-1.35-1.21-8.46-4.19-9.13-1.69C19.37,368.66,26.64,374,31.32,372.09Z" style="fill:#C4D352;stroke:#263238;stroke-miterlimit:10"></path><line x1="31.32" y1="372.09" x2="24.56" y2="367.88" style="fill:none;stroke:#263238;stroke-miterlimit:10;stroke-width:0.5px"></line><line x1="36.3" y1="388.62" x2="31.04" y2="383.07" style="fill:none;stroke:#263238;stroke-miterlimit:10;stroke-width:2px"></line><path d="M32.64,384.73a6,6,0,0,0-2.09-4.46c-1.35-1.21-8.46-4.19-9.13-1.69C20.69,381.3,28,386.64,32.64,384.73Z" style="fill:#C4D352;stroke:#263238;stroke-miterlimit:10"></path><line x1="32.64" y1="384.73" x2="25.88" y2="380.52" style="fill:none;stroke:#263238;stroke-miterlimit:10;stroke-width:0.5px"></line><line x1="32.84" y1="355.45" x2="27.58" y2="349.89" style="fill:none;stroke:#263238;stroke-miterlimit:10;stroke-width:2px"></line><path d="M29.18,351.56a5.94,5.94,0,0,0-2.1-4.46c-1.35-1.21-8.45-4.19-9.12-1.69C17.23,348.13,24.5,353.47,29.18,351.56Z" style="fill:#C4D352;stroke:#263238;stroke-miterlimit:10"></path><line x1="29.18" y1="351.56" x2="22.42" y2="347.35" style="fill:none;stroke:#263238;stroke-miterlimit:10;stroke-width:0.5px"></line><line x1="30.69" y1="334.83" x2="25.43" y2="329.27" style="fill:none;stroke:#263238;stroke-miterlimit:10;stroke-width:2px"></line><path d="M27,330.94a5.94,5.94,0,0,0-2.1-4.46c-1.35-1.21-8.45-4.2-9.12-1.69C15.07,327.51,22.34,332.85,27,330.94Z" style="fill:#C4D352;stroke:#263238;stroke-miterlimit:10"></path><line x1="27.03" y1="330.94" x2="20.26" y2="326.72" style="fill:none;stroke:#263238;stroke-miterlimit:10;stroke-width:0.5px"></line><line x1="37.32" y1="399.34" x2="41.31" y2="392.82" style="fill:none;stroke:#263238;stroke-miterlimit:10;stroke-width:2px"></line><path d="M40.09,394.78A6,6,0,0,1,41.22,390c1.07-1.46,7.4-5.85,8.58-3.54C51.08,389,45.07,395.69,40.09,394.78Z" style="fill:#C4D352;stroke:#263238;stroke-miterlimit:10"></path><line x1="40.09" y1="394.78" x2="46.18" y2="388.96" style="fill:none;stroke:#263238;stroke-miterlimit:10;stroke-width:0.5px"></line><line x1="33.84" y1="366.08" x2="37.84" y2="359.56" style="fill:none;stroke:#263238;stroke-miterlimit:10;stroke-width:2px"></line><path d="M36.62,361.52a6,6,0,0,1,1.13-4.79c1.07-1.46,7.4-5.85,8.58-3.54C47.61,355.7,41.6,362.43,36.62,361.52Z" style="fill:#C4D352;stroke:#263238;stroke-miterlimit:10"></path><line x1="36.62" y1="361.52" x2="42.71" y2="355.7" style="fill:none;stroke:#263238;stroke-miterlimit:10;stroke-width:0.5px"></line><line x1="32.32" y1="351.47" x2="36.32" y2="344.95" style="fill:none;stroke:#263238;stroke-miterlimit:10;stroke-width:2px"></line><path d="M35.1,346.91a6,6,0,0,1,1.12-4.8c1.08-1.46,7.41-5.85,8.58-3.54C46.08,341.08,40.07,347.81,35.1,346.91Z" style="fill:#C4D352;stroke:#263238;stroke-miterlimit:10"></path><line x1="35.1" y1="346.91" x2="41.19" y2="341.09" style="fill:none;stroke:#263238;stroke-miterlimit:10;stroke-width:0.5px"></line><line x1="30.08" y1="330.04" x2="34.08" y2="323.52" style="fill:none;stroke:#263238;stroke-miterlimit:10;stroke-width:2px"></line><path d="M32.86,325.48a6,6,0,0,1,1.13-4.8c1.07-1.46,7.4-5.85,8.58-3.54C43.85,319.65,37.84,326.38,32.86,325.48Z" style="fill:#C4D352;stroke:#263238;stroke-miterlimit:10"></path><line x1="32.86" y1="325.48" x2="38.95" y2="319.66" style="fill:none;stroke:#263238;stroke-miterlimit:10;stroke-width:0.5px"></line><path d="M28.37,316.34a6,6,0,0,1,1.13-4.8c1.07-1.46,7.4-5.85,8.58-3.54C39.36,310.51,33.35,317.24,28.37,316.34Z" style="fill:#C4D352;stroke:#263238;stroke-miterlimit:10"></path><line x1="28.37" y1="316.34" x2="34.46" y2="310.52" style="fill:none;stroke:#263238;stroke-miterlimit:10;stroke-width:0.5px"></line><path d="M28.73,316.59A6,6,0,0,1,24.07,315c-1.33-1.22-5-8-2.62-8.91C24.08,305.05,30.15,311.74,28.73,316.59Z" style="fill:#C4D352;stroke:#263238;stroke-miterlimit:10"></path><line x1="28.73" y1="316.59" x2="23.58" y2="309.92" style="fill:none;stroke:#263238;stroke-miterlimit:10;stroke-width:0.5px"></line><line x1="59.06" y1="332.26" x2="47.53" y2="443.4" style="fill:none;stroke:#263238;stroke-miterlimit:10;stroke-width:2px"></line><line x1="50.08" y1="422.2" x2="46.08" y2="415.69" style="fill:none;stroke:#263238;stroke-miterlimit:10;stroke-width:2px"></line><path d="M47.3,417.64a6,6,0,0,0-1.13-4.79c-1.08-1.46-7.41-5.84-8.59-3.54C36.31,411.83,42.32,418.55,47.3,417.64Z" style="fill:#C4D352;stroke:#263238;stroke-miterlimit:10"></path><line x1="47.3" y1="417.64" x2="41.55" y2="412.13" style="fill:none;stroke:#263238;stroke-miterlimit:10;stroke-width:0.5px"></line><line x1="53.28" y1="391.36" x2="49.28" y2="384.84" style="fill:none;stroke:#263238;stroke-miterlimit:10;stroke-width:2px"></line><path d="M50.5,386.8A6,6,0,0,0,49.37,382c-1.07-1.46-7.41-5.85-8.58-3.54C39.51,381,45.52,387.71,50.5,386.8Z" style="fill:#C4D352;stroke:#263238;stroke-miterlimit:10"></path><line x1="50.5" y1="386.8" x2="44.75" y2="381.28" style="fill:none;stroke:#263238;stroke-miterlimit:10;stroke-width:0.5px"></line><line x1="51.97" y1="404" x2="47.97" y2="397.48" style="fill:none;stroke:#263238;stroke-miterlimit:10;stroke-width:2px"></line><path d="M49.19,399.44a6,6,0,0,0-1.13-4.79c-1.08-1.46-7.41-5.85-8.59-3.54C38.2,393.62,44.21,400.35,49.19,399.44Z" style="fill:#C4D352;stroke:#263238;stroke-miterlimit:10"></path><line x1="49.19" y1="399.44" x2="43.44" y2="393.92" style="fill:none;stroke:#263238;stroke-miterlimit:10;stroke-width:0.5px"></line><line x1="55.41" y1="370.83" x2="51.41" y2="364.31" style="fill:none;stroke:#263238;stroke-miterlimit:10;stroke-width:2px"></line><path d="M52.63,366.27a6,6,0,0,0-1.13-4.8c-1.07-1.45-7.41-5.84-8.58-3.53C41.64,360.45,47.65,367.18,52.63,366.27Z" style="fill:#C4D352;stroke:#263238;stroke-miterlimit:10"></path><line x1="52.63" y1="366.27" x2="46.88" y2="360.75" style="fill:none;stroke:#263238;stroke-miterlimit:10;stroke-width:0.5px"></line><line x1="57.55" y1="350.21" x2="53.55" y2="343.69" style="fill:none;stroke:#263238;stroke-miterlimit:10;stroke-width:2px"></line><path d="M54.77,345.65a6,6,0,0,0-1.13-4.8c-1.07-1.46-7.41-5.84-8.58-3.53C43.78,339.83,49.79,346.55,54.77,345.65Z" style="fill:#C4D352;stroke:#263238;stroke-miterlimit:10"></path><line x1="54.77" y1="345.65" x2="49.02" y2="340.13" style="fill:none;stroke:#263238;stroke-miterlimit:10;stroke-width:0.5px"></line><line x1="50.75" y1="414.7" x2="56.01" y2="409.15" style="fill:none;stroke:#263238;stroke-miterlimit:10;stroke-width:2px"></line><path d="M54.41,410.81a6,6,0,0,1,2.09-4.46c1.35-1.2,8.45-4.2,9.13-1.7C66.36,407.37,59.09,412.72,54.41,410.81Z" style="fill:#C4D352;stroke:#263238;stroke-miterlimit:10"></path><line x1="54.41" y1="410.81" x2="61.57" y2="406.37" style="fill:none;stroke:#263238;stroke-miterlimit:10;stroke-width:0.5px"></line><line x1="54.2" y1="381.44" x2="59.46" y2="375.89" style="fill:none;stroke:#263238;stroke-miterlimit:10;stroke-width:2px"></line><path d="M57.86,377.55A6,6,0,0,1,60,373.09c1.35-1.21,8.45-4.2,9.13-1.7C69.81,374.11,62.55,379.46,57.86,377.55Z" style="fill:#C4D352;stroke:#263238;stroke-miterlimit:10"></path><line x1="57.86" y1="377.55" x2="65.02" y2="373.11" style="fill:none;stroke:#263238;stroke-miterlimit:10;stroke-width:0.5px"></line><line x1="55.72" y1="366.82" x2="60.98" y2="361.27" style="fill:none;stroke:#263238;stroke-miterlimit:10;stroke-width:2px"></line><path d="M59.38,362.93a6,6,0,0,1,2.09-4.46c1.35-1.2,8.45-4.2,9.12-1.7C71.33,359.5,64.06,364.84,59.38,362.93Z" style="fill:#C4D352;stroke:#263238;stroke-miterlimit:10"></path><line x1="59.38" y1="362.93" x2="66.54" y2="358.49" style="fill:none;stroke:#263238;stroke-miterlimit:10;stroke-width:0.5px"></line><line x1="57.94" y1="345.4" x2="63.2" y2="339.84" style="fill:none;stroke:#263238;stroke-miterlimit:10;stroke-width:2px"></line><path d="M61.6,341.5A6,6,0,0,1,63.69,337c1.35-1.2,8.45-4.2,9.13-1.69C73.55,338.07,66.29,343.41,61.6,341.5Z" style="fill:#C4D352;stroke:#263238;stroke-miterlimit:10"></path><line x1="61.6" y1="341.5" x2="68.76" y2="337.06" style="fill:none;stroke:#263238;stroke-miterlimit:10;stroke-width:0.5px"></line><path d="M59.09,331.64a6,6,0,0,1,2.09-4.46c1.35-1.21,8.45-4.2,9.13-1.7C71,328.2,63.78,333.55,59.09,331.64Z" style="fill:#C4D352;stroke:#263238;stroke-miterlimit:10"></path><line x1="59.09" y1="331.64" x2="66.25" y2="327.2" style="fill:none;stroke:#263238;stroke-miterlimit:10;stroke-width:0.5px"></line><path d="M59.39,332a5.94,5.94,0,0,1-4.22-2.54c-1.06-1.47-3.29-8.84-.73-9.25C57.22,319.71,61.78,327.5,59.39,332Z" style="fill:#C4D352;stroke:#263238;stroke-miterlimit:10"></path><line x1="59.39" y1="331.95" x2="55.72" y2="324.37" style="fill:none;stroke:#263238;stroke-miterlimit:10;stroke-width:0.5px"></line><line x1="45.84" y1="287" x2="45.84" y2="427.55" style="fill:none;stroke:#263238;stroke-miterlimit:10;stroke-width:2px"></line><line x1="45.96" y1="406.42" x2="41.3" y2="400.35" style="fill:none;stroke:#263238;stroke-miterlimit:10;stroke-width:2px"></line><path d="M42.72,402.17a6,6,0,0,0-1.62-4.66c-1.22-1.33-8-5-8.9-2.62C31.19,397.51,37.86,403.58,42.72,402.17Z" style="fill:#C4D352;stroke:#263238;stroke-miterlimit:10"></path><line x1="42.72" y1="402.17" x2="36.43" y2="397.28" style="fill:none;stroke:#263238;stroke-miterlimit:10;stroke-width:0.5px"></line><line x1="45.96" y1="380" x2="41.3" y2="373.94" style="fill:none;stroke:#263238;stroke-miterlimit:10;stroke-width:2px"></line><path d="M42.72,375.76a6,6,0,0,0-1.62-4.66c-1.22-1.34-8-5.05-8.9-2.63C31.19,371.1,37.86,377.17,42.72,375.76Z" style="fill:#C4D352;stroke:#263238;stroke-miterlimit:10"></path><line x1="42.72" y1="375.76" x2="36.43" y2="370.86" style="fill:none;stroke:#263238;stroke-miterlimit:10;stroke-width:0.5px"></line><line x1="45.96" y1="349" x2="41.3" y2="342.93" style="fill:none;stroke:#263238;stroke-miterlimit:10;stroke-width:2px"></line><path d="M42.72,344.75a6,6,0,0,0-1.62-4.66c-1.22-1.34-8-5-8.9-2.63C31.19,340.09,37.86,346.16,42.72,344.75Z" style="fill:#C4D352;stroke:#263238;stroke-miterlimit:10"></path><line x1="42.72" y1="344.75" x2="36.43" y2="339.85" style="fill:none;stroke:#263238;stroke-miterlimit:10;stroke-width:0.5px"></line><line x1="45.96" y1="328.35" x2="41.3" y2="322.28" style="fill:none;stroke:#263238;stroke-miterlimit:10;stroke-width:2px"></line><path d="M42.72,324.1a6,6,0,0,0-1.62-4.65c-1.22-1.34-8-5.05-8.9-2.63C31.19,319.45,37.86,325.52,42.72,324.1Z" style="fill:#C4D352;stroke:#263238;stroke-miterlimit:10"></path><line x1="42.72" y1="324.1" x2="36.43" y2="319.21" style="fill:none;stroke:#263238;stroke-miterlimit:10;stroke-width:0.5px"></line><line x1="45.96" y1="307.62" x2="41.3" y2="301.55" style="fill:none;stroke:#263238;stroke-miterlimit:10;stroke-width:2px"></line><path d="M42.72,303.37a6,6,0,0,0-1.62-4.65c-1.22-1.34-8-5.05-8.9-2.63C31.19,298.72,37.86,304.79,42.72,303.37Z" style="fill:#C4D352;stroke:#263238;stroke-miterlimit:10"></path><line x1="42.72" y1="303.37" x2="36.43" y2="298.48" style="fill:none;stroke:#263238;stroke-miterlimit:10;stroke-width:0.5px"></line><line x1="45.85" y1="414.48" x2="50.51" y2="408.41" style="fill:none;stroke:#263238;stroke-miterlimit:10;stroke-width:2px"></line><path d="M49.09,410.23a6,6,0,0,1,1.62-4.65c1.22-1.34,8-5.05,8.9-2.63C60.62,405.58,54,411.65,49.09,410.23Z" style="fill:#C4D352;stroke:#263238;stroke-miterlimit:10"></path><line x1="49.09" y1="410.23" x2="55.75" y2="405.08" style="fill:none;stroke:#263238;stroke-miterlimit:10;stroke-width:0.5px"></line><line x1="45.85" y1="372.47" x2="50.51" y2="366.41" style="fill:none;stroke:#263238;stroke-miterlimit:10;stroke-width:2px"></line><path d="M49.09,368.23a6,6,0,0,1,1.62-4.66c1.22-1.34,8-5,8.9-2.63C60.62,363.57,54,369.64,49.09,368.23Z" style="fill:#C4D352;stroke:#263238;stroke-miterlimit:10"></path><line x1="49.09" y1="368.23" x2="55.75" y2="363.07" style="fill:none;stroke:#263238;stroke-miterlimit:10;stroke-width:0.5px"></line><line x1="45.85" y1="351.74" x2="50.51" y2="345.67" style="fill:none;stroke:#263238;stroke-miterlimit:10;stroke-width:2px"></line><path d="M49.09,347.49a6,6,0,0,1,1.62-4.65c1.22-1.34,8-5,8.9-2.63C60.62,342.84,54,348.91,49.09,347.49Z" style="fill:#C4D352;stroke:#263238;stroke-miterlimit:10"></path><line x1="49.09" y1="347.49" x2="55.75" y2="342.34" style="fill:none;stroke:#263238;stroke-miterlimit:10;stroke-width:0.5px"></line><line x1="45.85" y1="324.34" x2="50.51" y2="318.27" style="fill:none;stroke:#263238;stroke-miterlimit:10;stroke-width:2px"></line><path d="M49.09,320.09a6,6,0,0,1,1.62-4.65c1.22-1.34,8-5.05,8.9-2.63C60.62,315.44,54,321.51,49.09,320.09Z" style="fill:#C4D352;stroke:#263238;stroke-miterlimit:10"></path><line x1="49.09" y1="320.09" x2="55.75" y2="314.93" style="fill:none;stroke:#263238;stroke-miterlimit:10;stroke-width:0.5px"></line><line x1="45.85" y1="302.79" x2="50.51" y2="296.72" style="fill:none;stroke:#263238;stroke-miterlimit:10;stroke-width:2px"></line><path d="M49.09,298.55a6,6,0,0,1,1.62-4.66c1.22-1.34,8-5.05,8.9-2.63C60.62,293.89,54,300,49.09,298.55Z" style="fill:#C4D352;stroke:#263238;stroke-miterlimit:10"></path><line x1="49.09" y1="298.55" x2="55.75" y2="293.39" style="fill:none;stroke:#263238;stroke-miterlimit:10;stroke-width:0.5px"></line><path d="M45.58,289a5.93,5.93,0,0,1,1.61-4.65c1.22-1.34,8-5,8.91-2.63C57.11,284.34,50.43,290.41,45.58,289Z" style="fill:#C4D352;stroke:#263238;stroke-miterlimit:10"></path><line x1="45.58" y1="288.99" x2="52.24" y2="283.83" style="fill:none;stroke:#263238;stroke-miterlimit:10;stroke-width:0.5px"></line><path d="M45.9,289.28a6,6,0,0,1-4.46-2.1c-1.2-1.35-4.18-8.46-1.68-9.13C42.48,277.32,47.82,284.6,45.9,289.28Z" style="fill:#C4D352;stroke:#263238;stroke-miterlimit:10"></path><line x1="45.9" y1="289.28" x2="41.47" y2="282.11" style="fill:none;stroke:#263238;stroke-miterlimit:10;stroke-width:0.5px"></line><polygon points="51.63 464 36.74 464 34.88 426.41 53.49 426.41 51.63 464" style="fill:#263238;stroke:#263238;stroke-miterlimit:10"></polygon></g><g id="freepik--Picture--inject-16"><polyline points="115.08 176.18 25.66 176.18 25.66 33.83 136.37 33.83 136.37 176.18 120.89 176.18" style="fill:none;stroke:#263238;stroke-miterlimit:10"></polyline><rect x="29.68" y="38.99" width="102.68" height="132.03" style="fill:none;stroke:#263238;stroke-miterlimit:10"></rect><path d="M50.25,75.15a48.89,48.89,0,0,0,5.81,4.61c23.23,15.76,62.63,8.3,75.9,30.69" style="fill:none;stroke:#263238;stroke-miterlimit:10"></path><path d="M36.57,39.53A42.92,42.92,0,0,0,47.35,72.22" style="fill:none;stroke:#263238;stroke-miterlimit:10"></path><path d="M45.37,112.26c11.33-6,26-10.23,33.51,1.92,8.71,14.11-31.53,39-31.53,56.82" style="fill:none;stroke:#263238;stroke-miterlimit:10"></path><path d="M29.94,122.48A98.4,98.4,0,0,1,42.24,114" style="fill:none;stroke:#263238;stroke-miterlimit:10"></path><path d="M83.44,39.53s14.93,23.23,48.94,17" style="fill:none;stroke:#263238;stroke-miterlimit:10"></path><path d="M87.9,62.34A13,13,0,0,1,88,64a13.67,13.67,0,1,1-1.58-6.4" style="fill:none;stroke:#263238;stroke-miterlimit:10"></path><path d="M122,82.46A6.43,6.43,0,1,1,115.58,76,6.42,6.42,0,0,1,122,82.46Z" style="fill:none;stroke:#263238;stroke-miterlimit:10"></path><path d="M122.09,125.83a26.28,26.28,0,0,1,9.91,5" style="fill:none;stroke:#263238;stroke-miterlimit:10"></path><path d="M97.46,171.1A26.54,26.54,0,0,1,115.37,125c.52,0,1,0,1.53,0" style="fill:none;stroke:#263238;stroke-miterlimit:10"></path></g><g id="freepik--Device--inject-16"><rect x="193.7" y="42.5" width="201.83" height="373.89" style="fill:#fff"></rect><rect x="193.7" y="352.63" width="201.83" height="63.76" style="fill:#C4D352"></rect><path d="M401.59,116.06a2.49,2.49,0,0,0,2.49-2.49V88.64a2.49,2.49,0,0,0-2.49-2.49,2.42,2.42,0,0,0-.47,0V39.56a16.07,16.07,0,0,0-16.07-16.07H207.9a16.07,16.07,0,0,0-16.08,16.07V415.85a16.08,16.08,0,0,0,16.08,16.08H385.05a16.08,16.08,0,0,0,16.07-16.08V186.93a2.42,2.42,0,0,0,.47,0,2.5,2.5,0,0,0,2.49-2.5V159.55a2.49,2.49,0,0,0-2.49-2.49,2.42,2.42,0,0,0-.47.05v-5.64a2.42,2.42,0,0,0,.47.05,2.5,2.5,0,0,0,2.49-2.49V124.09a2.5,2.5,0,0,0-2.49-2.49,2.42,2.42,0,0,0-.47.05V116A2.42,2.42,0,0,0,401.59,116.06Zm-9.78,291.63H201.13V51.22H391.81Z" style="fill:#263238"></path><rect x="369.51" y="54.92" width="15.81" height="8.67" style="fill:none;stroke:#263238;stroke-linecap:round;stroke-linejoin:round;stroke-width:0.821067px"></rect><rect x="369.51" y="54.92" width="12.33" height="8.67" style="fill:#263238;stroke:#263238;stroke-linecap:round;stroke-linejoin:round;stroke-width:0.725073px"></rect><rect x="385.29" y="57.35" width="2.23" height="3.82" style="fill:#263238;stroke:#263238;stroke-linecap:round;stroke-linejoin:round;stroke-width:0.725073px"></rect><rect x="205.42" y="57.61" width="2.9" height="4.97" style="fill:#263238;stroke:#263238;stroke-linecap:round;stroke-linejoin:round;stroke-width:0.8830859999999999px"></rect><rect x="209.98" y="55.87" width="2.9" height="6.71" style="fill:#263238;stroke:#263238;stroke-linecap:round;stroke-linejoin:round;stroke-width:0.8830859999999999px"></rect><rect x="214.53" y="53.8" width="2.9" height="8.78" style="fill:#263238;stroke:#263238;stroke-linecap:round;stroke-linejoin:round;stroke-width:0.8830859999999999px"></rect><rect x="204.2" y="68.41" width="183.11" height="48.12" style="fill:#C4D352"></rect><line x1="250.48" y1="75.34" x2="250.48" y2="110.67" style="fill:none;stroke:#fff;stroke-miterlimit:10"></line><line x1="297.14" y1="75.34" x2="297.14" y2="110.67" style="fill:none;stroke:#fff;stroke-miterlimit:10"></line><line x1="343.81" y1="75.34" x2="343.81" y2="110.67" style="fill:none;stroke:#fff;stroke-miterlimit:10"></line><path d="M399.47,186.93a2.42,2.42,0,0,0,.47,0,2.5,2.5,0,0,0,2.49-2.5v-8.93l-12.27,21.63V407.69H270.79L257,431.93H383.39a16.08,16.08,0,0,0,16.08-16.08Z" style="fill:#fff;opacity:0.15"></path></g><g id="freepik--qr-code--inject-16"><path d="M288.73,282.43V271l0,0h5.71v-5.75h-5.69c0-1.91,0-3.83,0-5.74H300.2v-5.71h5.72v5.68h5.74V248h17.2v5.71h5.69V248h-5.71v-5.76H317.37V230.86H300.16v5.72H288.75v11.47h5.68v5.72h-5.71v5.73H283v-5.74H265.81v-5.71H283V202.17h5.75v0q0,8.28,0,16.56v.62h5.73V207.92h5.71v11.45h5.76v5.71h28.66v5.72h5.74v5.77l0,0h-5.71v5.75h5.69v11.48h5.75l0,0v11.46h-5.69V276.7H346v5.73h11.45v5.72H340.33V299.6h-5.72v-5.72h-11.5l0,0v-5.73h-5.72v-5.72h11.41v-5.73H300.21v5.7H288.73Zm34.38-17.2v-5.7h-5.69v5.69h5.71v5.71h11.42v-5.7Zm-11.48,0H306v5.67h5.67Zm11.51-28.73h5.67v-5.68h-5.67Z" style="fill:#263238"></path><path d="M237.14,219.33V179.25h40.07v40.08ZM242.89,185v28.61h28.6V185Z" style="fill:#263238"></path><path d="M357.48,219.34H317.41V179.27h40.07ZM351.76,185h-28.6v28.6h28.6Z" style="fill:#263238"></path><path d="M237.15,259.51h40.08v40.08H237.15Zm34.35,5.75H242.89v28.61H271.5Z" style="fill:#263238"></path><path d="M288.72,202.17V190.7H283V179.26h28.61v11.42H306v5.74h5.67v11.44h-5.71v-5.69H300.2v-5.72h-5.72v5.7h-5.77Zm5.75-11.51h5.68V185h-5.68Z" style="fill:#263238"></path><path d="M265.78,230.82v5.73h11.45v5.72H260.06v11.46h-22.9v-11.4h5.67V248h11.5V230.82h11.46Z" style="fill:#263238"></path><path d="M288.71,282.42v5.73h5.73v5.72h5.71v5.73H283V282.43h5.69Z" style="fill:#263238"></path><path d="M254.33,230.82H242.87v5.71h-5.71v-11.4h17.15v5.7Z" style="fill:#263238"></path><path d="M357.48,242.27H351.8V230.84h-5.72v-5.72h11.4Z" style="fill:#263238"></path><path d="M265.79,230.84v-5.71h11.43v5.69H265.78Z" style="fill:#263238"></path><path d="M346.06,253.77v-5.71h5.69v5.69H346Z" style="fill:#263238"></path><path d="M351.81,259.52h5.67v5.68h-5.67Z" style="fill:#263238"></path><path d="M305.92,219.37v-5.71h5.7v5.69h-5.71Z" style="fill:#263238"></path><path d="M288.73,271H283v-5.72h5.69V271Z" style="fill:#263238"></path><path d="M346.06,276.7V271h5.69v5.69h-5.69Z" style="fill:#263238"></path><path d="M340.31,236.57H346v5.72h-5.69v-5.75Z" style="fill:#263238"></path><path d="M311.62,293.87h-5.68V288.2h5.68Z" style="fill:#263238"></path><path d="M323.11,293.88v5.71h-5.69V293.9h5.71Z" style="fill:#263238"></path><path d="M357.48,299.61h-5.67v-5.68h5.67Z" style="fill:#263238"></path><path d="M311.66,248H306v-5.69h5.7V248Z" style="fill:#263238"></path><path d="M265.75,207.87H248.61V190.73h17.14Z" style="fill:#263238"></path><path d="M328.87,207.86V190.72H346v17.14Z" style="fill:#263238"></path><path d="M248.61,288.13V271h17.14v17.14Z" style="fill:#263238"></path><polyline points="253.79 165.67 228.69 165.67 228.69 193.36" style="fill:none;stroke:#C4D352;stroke-miterlimit:10;stroke-width:2px"></polyline><polyline points="345.07 165.67 370.16 165.67 370.16 193.36" style="fill:none;stroke:#C4D352;stroke-miterlimit:10;stroke-width:2px"></polyline><polyline points="253.79 311.49 228.69 311.49 228.69 283.8" style="fill:none;stroke:#C4D352;stroke-miterlimit:10;stroke-width:2px"></polyline><polyline points="345.07 311.49 370.16 311.49 370.16 283.8" style="fill:none;stroke:#C4D352;stroke-miterlimit:10;stroke-width:2px"></polyline></g><g id="freepik--Character--inject-16"><rect x="166.42" y="171.67" width="13.67" height="28.67" rx="2.67" style="fill:#263238;stroke:#263238;stroke-miterlimit:10"></rect><rect x="167.62" y="174.2" width="11.25" height="23.6" style="fill:#fff;stroke:#263238;stroke-miterlimit:10"></rect><path d="M57.66,312.17A21.6,21.6,0,0,0,69,308.88c-.22,6.38-.39,11.21-.39,11.21s1.1,1.92,1.65,2.75,5.22,3.57,5.77,6.05,3,3.85,2.75,7.42-3.3-.28-2.75.55,2.2,3.57,2.2,6.05-5.22,2.47-7.15.82-8.24-5.5-8.79-9.07l-2.15-8Z" style="fill:#fff;stroke:#263238;stroke-miterlimit:10"></path><path d="M69.08,332l1.34,6s4.33,3.33,4.66,5.67" style="fill:#fff;stroke:#263238;stroke-miterlimit:10"></path><line x1="76.02" y1="336.86" x2="74.08" y2="333" style="fill:#fff;stroke:#263238;stroke-miterlimit:10"></line><path d="M90.69,458.77s-1.57,12.87-.35,14.44A9.17,9.17,0,0,0,96.25,477c2.78.35,7.48-1.22,7.48-1.22a28.38,28.38,0,0,0,9.74.87c5-.52,8.34-2.43,8.69-4.87s-4-3.47-6.43-6.08-6.31-7.23-6.31-7.23l-1-3.38s-5.91,3-9.73,3.13a23.11,23.11,0,0,1-6.44-.52Z" style="fill:#fff;stroke:#263238;stroke-miterlimit:10"></path><path d="M122.16,471.81a1.86,1.86,0,0,0-.08-.85c-1.15.48-2.62,1.06-4.44,1.72-5.22,1.92-7.83.35-10.43.35s-2.79,2.78-10.09.87c-4.77-1.25-6.56-2.86-7.24-3.84a6.86,6.86,0,0,0,.46,3.15A9.17,9.17,0,0,0,96.25,477c2.78.35,7.48-1.22,7.48-1.22a28.38,28.38,0,0,0,9.74.87C118.51,476.16,121.81,474.25,122.16,471.81Z" style="fill:#fff;stroke:#263238;stroke-miterlimit:10"></path><path d="M81.42,299s-7,23.5-4.5,40,14.5,47.5,14.5,47.5-1.5,11.5-1.5,15.5-3.5,11.5-1,19.5,2.5,29,2.5,30.5-1,9.5-1,9.5,2,3,9.5,3,9.5-6,9.5-6,7.5-44.5,7.5-51.5,8-33,11-43.5a89.6,89.6,0,0,1,8.65-20.68c2-3.5.85-45.82.85-45.82l-57-5Z" style="fill:#737373;stroke:#263238;stroke-miterlimit:10"></path><path d="M120.77,462.08s7.48,2.95,11.13,4.69,6.08,1.91,6.08,4.7-6.6,5.56-10.6,6.26-10.44.52-11.13.69-13.74,2.09-15.3-1.22.17-14.6.17-14.6A50.57,50.57,0,0,0,120.77,462.08Z" style="fill:#fff;stroke:#263238;stroke-miterlimit:10"></path><path d="M116.25,478.42c.69-.17,7.13,0,11.13-.69s10.6-3.48,10.6-6.26a3.56,3.56,0,0,0-.16-1.08,48.36,48.36,0,0,1-5.23,2.64c-4.87,2.09-11.3,3.48-21,3.31a44.88,44.88,0,0,1-11.14-1.43,7.34,7.34,0,0,0,.54,2.29C102.51,480.51,115.55,478.6,116.25,478.42Z" style="fill:#fff;stroke:#263238;stroke-miterlimit:10"></path><path d="M137.92,301s3,40.5-3,71-16,72-16.5,74,3.5,7.5,3.5,7.5v8s-3.5,3.5-11.5,4.5-10.5-1.5-10.5-1.5-2-13.5-2-23,2-42,2-42,4.5-33,4-38-2-20.5-2-20.5l-8-9.5" style="fill:#737373;stroke:#263238;stroke-miterlimit:10"></path><path d="M53.87,293.38l15.73-2.76c-.07,2.13.38-11.33.38-12.33,0-2.2,5.22-16,5.22-16s4.12,17.88,4.12,20.08-1.65,19,.55,21.17,9.9,6.6,26.95,6.05,29.7-1.93,33-5.23-.55-13.47-.83-14.84,4.4-37.4,4.4-37.4,18.42,19.25,29.42,16.5S178.59,223,178.59,223l.55-12.37s3.57-9.07,3.57-10.45-3.57-11.27-3.57-11.27-2.2-1.93-3.58,2.75a45.12,45.12,0,0,0-1.65,7.7s-3.3,2.47-3,6.05a23.65,23.65,0,0,0,1.37,6.32L164.84,236s-8.25-9.35-8.8-11-.28-7.7-7.15-11.28-20.9-3.85-20.9-3.85l-38.77.28S71.07,211.75,67,215.32s-16.77,48.95-16.77,55.82c0,2.15,1.12,8.81,2.69,17.05Z" style="fill:#fff;stroke:#263238;stroke-miterlimit:10"></path><path d="M179.14,188.93s-.83,6.87-.28,8.25a15.36,15.36,0,0,1,.55,7.42" style="fill:none;stroke:#263238;stroke-miterlimit:10"></path><path d="M172.81,268.67c11-2.75,5.78-45.65,5.78-45.65l.12-2.77a9.94,9.94,0,0,0-8.54-1.69L164.84,236s-8.25-9.35-8.8-11-.28-7.7-7.15-11.28-20.9-3.85-20.9-3.85l-38.77.28S71.07,211.75,67,215.32s-16.77,48.95-16.77,55.82c0,4.08,4.06,24.42,7.48,41A21.6,21.6,0,0,0,69,308.88c.4-11.89,1-29.16,1-30.59,0-2.2,5.22-16,5.22-16s4.12,17.88,4.12,20.08-1.65,19,.55,21.17,9.9,6.6,26.95,6.05,29.7-1.93,33-5.23-.55-13.47-.83-14.84,4.4-37.4,4.4-37.4S161.81,271.42,172.81,268.67Z" style="fill:#C4D352;stroke:#263238;stroke-miterlimit:10"></path><polyline points="69.8 247.21 75.2 262.34 64.08 243.33" style="fill:none;stroke:#263238;stroke-miterlimit:10"></polyline><line x1="66.75" y1="238.67" x2="68.66" y2="244.02" style="fill:none;stroke:#263238;stroke-miterlimit:10"></line><path d="M104.83,248.28c2.43,5.46,6,12.31,10.25,16.72" style="fill:none;stroke:#263238;stroke-miterlimit:10"></path><path d="M101.42,239.67s.75,2.25,2.09,5.52" style="fill:none;stroke:#263238;stroke-miterlimit:10"></path><path d="M107.42,258s6,12,9,14.33" style="fill:none;stroke:#263238;stroke-miterlimit:10"></path><line x1="152.8" y1="243.45" x2="155.08" y2="241.33" style="fill:none;stroke:#263238;stroke-miterlimit:10"></line><polyline points="149.08 240.33 143.39 252.17 150.73 245.37" style="fill:none;stroke:#263238;stroke-miterlimit:10"></polyline><path d="M175.08,247c-.33-2.33-10.24-11.05-10.24-11.05s10.24,4.05,12.91,7.72" style="fill:none;stroke:#263238;stroke-miterlimit:10"></path><path d="M131.84,173.8s.55,6.88,1.38,8,1.37,9.62,0,12.1-2.2,5.5-3,6.32-3.85.83-5,.83-13.47-.55-13.47-.55l.28-17.33S115.07,170.23,131.84,173.8Z" style="fill:#fff;stroke:#263238;stroke-miterlimit:10"></path><path d="M109.85,154.56S98.57,158.13,96.1,168s5.5,21.17,5.5,21.17,2.2,8,4.12,9.63,9.62,0,12.1-.55,8-15.4,8-15.4,0,3.57,1.65,3.57,1.38-4.67,1.38-5.5,7.7-6.6,7.7-16.49S128,150.16,120,150.71,109.85,154.56,109.85,154.56Z" style="fill:#263238;stroke:#263238;stroke-miterlimit:10"></path><path d="M133.22,209.27s-1.65-5.77-2.48-6.59-6.05-4.13-14.57-4.68-21.17-.27-22.27.28-1.38,5.22-1.38,5.22-3.57,3.3-4.4,5.23-1.65,2.74,6,9.07,11.83,8.8,19.8,6.87,19.52-13.47,19.52-13.47Z" style="fill:#C4D352;stroke:#263238;stroke-miterlimit:10"></path><path d="M113.55,213.17A83.29,83.29,0,0,0,129.09,206" style="fill:none;stroke:#263238;stroke-miterlimit:10"></path><path d="M92.52,204.6s5,9.9,13.75,9.9a18.92,18.92,0,0,0,3.55-.38" style="fill:none;stroke:#263238;stroke-miterlimit:10"></path></g></svg>