<svg width="144" height="9" viewBox="0 0 144 9" fill="none" xmlns="http://www.w3.org/2000/svg">
<path d="M5.2713 3.8259L1.34895 5.1923L5.2713 6.59512V8.01616L0 6.01214V4.37245L5.2713 2.36841V3.8259ZM7.50265 0.455462H10.9477C12.1928 0.455462 13.1337 0.722668 13.7701 1.25708C14.5311 1.88866 14.9115 3.01821 14.9115 4.64573C14.9115 5.98176 14.6279 7.01418 14.0606 7.7429C13.5072 8.47162 12.4696 8.83601 10.9477 8.83601H7.50265V0.455462ZM9.84774 8.08903H10.5741C11.0999 8.08903 11.508 7.92509 11.7986 7.59717C12.103 7.25707 12.3036 6.85627 12.4004 6.39473C12.4972 5.92101 12.5456 5.33804 12.5456 4.64573C12.5456 3.95343 12.4972 3.37651 12.4004 2.91497C12.3036 2.44129 12.103 2.04048 11.7986 1.71255C11.508 1.37246 11.0999 1.20243 10.5741 1.20243H9.84774V8.08903ZM22.9048 5.82994H18.4844C18.4844 6.65587 18.5881 7.22669 18.7957 7.5425C19.0032 7.84614 19.3284 7.99796 19.7711 7.99796C20.5182 7.99796 20.8917 7.63966 20.8917 6.92305L22.801 6.95951C22.7319 7.59108 22.4621 8.08903 21.9917 8.45342C21.5212 8.81781 20.6981 9 19.522 9C18.3598 9 17.509 8.71456 16.9694 8.14369C16.4436 7.57288 16.1808 6.71048 16.1808 5.55668C16.1808 3.26113 17.3153 2.11336 19.5843 2.11336C21.798 2.11336 22.9048 3.27935 22.9048 5.61134V5.82994ZM20.6635 4.82792C20.6358 4.23278 20.5389 3.80161 20.3729 3.53441C20.2207 3.25505 19.9648 3.11538 19.605 3.11538C19.2591 3.11538 19.0032 3.23683 18.8372 3.47975C18.685 3.71051 18.5813 4.15991 18.5259 4.82792H20.6635ZM27.5137 4.64573L28.1363 4.84614C28.8557 5.02833 29.4022 5.27731 29.7758 5.59308C30.1493 5.90889 30.3361 6.37653 30.3361 6.99592C30.3361 7.60319 30.0456 8.08903 29.4645 8.45342C28.8972 8.81781 28.1224 9 27.1401 9C26.1578 9 25.4107 8.82384 24.8988 8.47162C24.4007 8.10729 24.0894 7.57288 23.9649 6.86839L25.8742 6.63159C25.9157 7.05667 26.061 7.39068 26.31 7.63357C26.5591 7.87652 26.8842 7.99796 27.2854 7.99796C28.0187 7.99796 28.3853 7.79756 28.3853 7.39677C28.3853 6.9838 27.8596 6.64979 26.8081 6.39473L26.144 6.21253C25.4522 6.04251 24.9334 5.79957 24.5875 5.48381C24.2554 5.15586 24.0894 4.68825 24.0894 4.08096C24.0894 3.46153 24.3662 2.98177 24.9196 2.64169C25.4868 2.28947 26.2408 2.11336 27.1817 2.11336C28.1224 2.11336 28.8419 2.28947 29.34 2.64169C29.838 2.99392 30.1493 3.51619 30.2739 4.20849L28.3439 4.42711C28.2608 3.55262 27.8388 3.11538 27.0779 3.11538C26.3861 3.11538 26.0402 3.30971 26.0402 3.69837C26.0402 3.92914 26.1648 4.1174 26.4138 4.26314C26.6628 4.39675 27.0295 4.52428 27.5137 4.64573ZM38.1445 5.82994H33.724C33.724 6.65587 33.8279 7.22669 34.0354 7.5425C34.2429 7.84614 34.568 7.99796 35.0108 7.99796C35.7579 7.99796 36.1314 7.63966 36.1314 6.92305L38.0407 6.95951C37.9715 7.59108 37.7017 8.08903 37.2313 8.45342C36.761 8.81781 35.9377 9 34.7618 9C33.5996 9 32.7487 8.71456 32.2091 8.14369C31.6834 7.57288 31.4205 6.71048 31.4205 5.55668C31.4205 3.26113 32.555 2.11336 34.824 2.11336C37.0376 2.11336 38.1445 3.27935 38.1445 5.61134V5.82994ZM35.9031 4.82792C35.8755 4.23278 35.7787 3.80161 35.6126 3.53441C35.4604 3.25505 35.2044 3.11538 34.8448 3.11538C34.4989 3.11538 34.2429 3.23683 34.0769 3.47975C33.9247 3.71051 33.8209 4.15991 33.7656 4.82792H35.9031ZM41.6534 2.86032C42.4974 2.36234 43.3276 2.11336 44.1439 2.11336C44.9601 2.11336 45.562 2.31376 45.9493 2.71457C46.3506 3.10323 46.5512 3.60728 46.5512 4.22671V8.83601H44.2476V4.48177C44.2476 4.05667 44.1853 3.74695 44.0608 3.55262C43.9363 3.35829 43.6803 3.26113 43.293 3.26113C42.9194 3.26113 42.5389 3.37651 42.1515 3.60728V8.83601H39.8272V2.27732H40.8856L41.6534 2.86032ZM54.9459 2.27732L52.5177 8.83601H49.9236L47.5162 2.27732H49.8198L51.7291 7.83397L53.6384 2.27732H54.9459ZM62.6211 5.55668C62.6211 7.85223 61.4381 9 59.0723 9C56.7203 9 55.5443 7.85223 55.5443 5.55668C55.5443 3.26113 56.7203 2.11336 59.0723 2.11336C61.4381 2.11336 62.6211 3.26113 62.6211 5.55668ZM57.8479 5.55668C57.8479 6.40684 57.9309 7.02629 58.0969 7.41497C58.263 7.80365 58.5881 7.99796 59.0723 7.99796C59.5704 7.99796 59.8955 7.80968 60.0477 7.43317C60.2137 7.0445 60.2968 6.41902 60.2968 5.55668C60.2968 4.69432 60.2137 4.07489 60.0477 3.69837C59.8955 3.30971 59.5704 3.11538 59.0723 3.11538C58.5881 3.11538 58.263 3.30971 58.0969 3.69837C57.9309 4.08704 57.8479 4.70646 57.8479 5.55668ZM66.6396 8.83601H64.3153V0.25506L66.6396 0V8.83601ZM75.1972 2.27732L72.7693 8.83601H70.1748L67.7677 2.27732H70.0712L71.98 7.83397L73.8896 2.27732H75.1972ZM82.5197 5.82994H78.0994C78.0994 6.65587 78.203 7.22669 78.4104 7.5425C78.6177 7.84614 78.943 7.99796 79.3856 7.99796C80.1327 7.99796 80.5065 7.63966 80.5065 6.92305L82.4161 6.95951C82.3467 7.59108 82.0765 8.08903 81.6061 8.45342C81.1357 8.81781 80.3128 9 79.1367 9C77.9743 9 77.1235 8.71456 76.5844 8.14369C76.0583 7.57288 75.7952 6.71048 75.7952 5.55668C75.7952 3.26113 76.9298 2.11336 79.199 2.11336C81.4124 2.11336 82.5197 3.27935 82.5197 5.61134V5.82994ZM80.2785 4.82792C80.2506 4.23278 80.1534 3.80161 79.9875 3.53441C79.8352 3.25505 79.5793 3.11538 79.2197 3.11538C78.8737 3.11538 78.6177 3.23683 78.4519 3.47975C78.2996 3.71051 78.1959 4.15991 78.1408 4.82792H80.2785ZM90.6147 0V8.83601H89.0376L88.5399 8.21656C87.9445 8.73885 87.2803 9 86.5475 9C84.6794 9 83.7457 7.9008 83.7457 5.70241C83.7457 3.30971 84.7902 2.11336 86.8792 2.11336C87.3911 2.11336 87.8615 2.21052 88.2905 2.40485V0.25506L90.6147 0ZM87.2116 7.99796C87.6406 7.99796 88.0002 7.84614 88.2905 7.5425V3.40688C88.0695 3.30971 87.8343 3.26113 87.5848 3.26113C86.5611 3.26113 86.0492 4.0506 86.0492 5.62955C86.0492 7.20849 86.4366 7.99796 87.2116 7.99796ZM99.3874 5.55668C99.3874 7.85223 98.2049 9 95.8392 9C93.4871 9 92.311 7.85223 92.311 5.55668C92.311 3.26113 93.4871 2.11336 95.8392 2.11336C98.2049 2.11336 99.3874 3.26113 99.3874 5.55668ZM94.6145 5.55668C94.6145 6.40684 94.6975 7.02629 94.8634 7.41497C95.0292 7.80365 95.3545 7.99796 95.8392 7.99796C96.3368 7.99796 96.6621 7.80968 96.8143 7.43317C96.9802 7.0445 97.0632 6.41902 97.0632 5.55668C97.0632 4.69432 96.9802 4.07489 96.8143 3.69837C96.6621 3.30971 96.3368 3.11538 95.8392 3.11538C95.3545 3.11538 95.0292 3.30971 94.8634 3.69837C94.6975 4.08704 94.6145 4.70646 94.6145 5.55668ZM102.141 2.27732L103.074 3.42509C103.642 2.62347 104.43 2.22267 105.44 2.22267V3.66193C104.679 3.66193 104.147 3.75303 103.842 3.93521C103.552 4.1174 103.407 4.39675 103.407 4.77327V8.83601H101.082V2.27732H102.141ZM120.854 0.455462L118.882 8.83601H116.786L115.043 2.73278L113.195 8.83601H110.975L109.024 0.455462H111.328L112.656 6.37653L114.379 0.455462H116.516L118.176 6.34006L119.463 0.455462H120.854ZM128.398 5.82994H123.977C123.977 6.65587 124.081 7.22669 124.289 7.5425C124.496 7.84614 124.822 7.99796 125.264 7.99796C126.011 7.99796 126.385 7.63966 126.385 6.92305L128.294 6.95951C128.225 7.59108 127.955 8.08903 127.485 8.45342C127.014 8.81781 126.192 9 125.015 9C123.853 9 123.002 8.71456 122.463 8.14369C121.937 7.57288 121.674 6.71048 121.674 5.55668C121.674 3.26113 122.809 2.11336 125.078 2.11336C127.291 2.11336 128.398 3.27935 128.398 5.61134V5.82994ZM126.157 4.82792C126.129 4.23278 126.032 3.80161 125.866 3.53441C125.714 3.25505 125.458 3.11538 125.098 3.11538C124.752 3.11538 124.496 3.23683 124.331 3.47975C124.178 3.71051 124.075 4.15991 124.019 4.82792H126.157ZM132.405 2.3502C132.875 2.1923 133.346 2.11336 133.816 2.11336C135.919 2.11336 136.971 3.26113 136.971 5.55668C136.971 7.85223 135.919 9 133.816 9C133.055 9 132.37 8.78743 131.762 8.36235L131.16 8.83601H130.081V0.25506L132.405 0V2.3502ZM132.405 7.70644C132.654 7.80365 132.889 7.85223 133.11 7.85223C134.148 7.85223 134.667 7.08704 134.667 5.55668C134.667 4.73076 134.55 4.1174 134.314 3.71659C134.079 3.31578 133.685 3.11538 133.131 3.11538C132.924 3.11538 132.682 3.14574 132.405 3.20647V7.70644ZM144 4.37245V6.01214L138.729 8.01616V6.59512L142.652 5.1923L138.729 3.8259V2.36841L144 4.37245Z" fill="#223D0D" fill-opacity="0.901961"/>
</svg>
